<mxfile host="app.diagrams.net" agent="Mozilla/5.0 (X11; Linux x86_64) AppleWebKit/537.36 (KHTML, like Gecko) Chrome/127.0.0.0 Safari/537.36" version="24.7.16">
  <diagram name="PÃ¡gina-1" id="2Bun4hXmkwTdKliS5bkS">
    <mxGraphModel dx="2022" dy="1857" grid="1" gridSize="10" guides="1" tooltips="1" connect="1" arrows="1" fold="1" page="1" pageScale="1" pageWidth="827" pageHeight="1169" math="0" shadow="0">
      <root>
        <mxCell id="0" />
        <mxCell id="1" parent="0" />
        <mxCell id="fVgRkVASK4dvTecgE4iH-1" value="" style="shape=image;verticalLabelPosition=bottom;labelBackgroundColor=default;verticalAlign=top;aspect=fixed;imageAspect=0;image=data:image/png,iVBORw0KGgoAAAANSUhEUgAAAzwAAAMUCAYAAAB5CSK1AAAABHNCSVQICAgIfAhkiAAAABl0RVh0U29mdHdhcmUAZ25vbWUtc2NyZWVuc2hvdO8Dvz4AAAAudEVYdENyZWF0aW9uIFRpbWUATW9uIDIzIFNlcCAyMDI0IDEyOjE2OjU3IFBNIENFU1SsNH0lAAAgAElEQVR4nOzdd1SUZ/4F8DsgYgULvYgdDVgQFUsIIjKgRBEluopdWfvPICHEkhA7FjRZjSZxY2KPBkXWqDDYo6JRwAJWVBClqkSxAIL8/sjGjYkFZt533uHlfs7Zc3bJzPe5hiWZy/PMM4qysrIyEBERERERyZCe1AGIiIiIiIjEwsJDRERERESyxcJDRERERESyxcJDRERERESyxcJDRERERESyxcJDRERERESyxcJDRERERESyxcJDRERERESyxcJDRERERESyxcJDRERERESyxcJDRERERESyxcJDRERERESyxcJDRERERESyxcJDRERERESyxcJDRERERESyxcJDRERERESyxcJDRERERESyxcJDRERERESyxcJDRERERESyxcJDRERERESyxcJDRERERESyxcJDRERERESyxcJDRERERESyxcJDRERERESyxcJDRERERESyxcJDRERERESyxcJDRERERESyxcJDRERERESyxcJDRERERESyxcJDRERERESyxcJDRERERESyxcJDRERERESyxcJDRERERESyxcJDRERERESyxcJDRERERESyxcJDRERERESyxcJDRERERESyxcJDRERERESyxcJDRERERESyxcJDRERERESyxcJDRERERESyxcJDRERERESyxcJDRERERESyxcJDRERERESyxcJDRERERESyxcJDRERERESyxcJDRERERESyxcJDRERERESyxcJDRERERESyxcJDRERERESyxcJDRERERESyxcJDRERERESyxcJDRERERESyxcJDRERERESyxcJDRERERESyxcJDRERERESyxcJDRERERESyxcJDRERERESyxcJDRERERESyxcJDRERERESyxcJDRERERESyxcJDRERERESyxcJDRERERESyxcJDRERERESyxcJDRERERESyxcJDRERERESyxcJDRERERESyxcJDRERERESyxcJDRERERESyxcJDRERERESyxcJDRERERESyxcJDRERERESyxcJDRERERESyxcJDRERERESyVU3qAEREpJvKysqQk5ODrKwsZGZmIicnBwqFApaWlrCysoKVlRVMTEykjklERPRGLDxERPRCXl4eoqKiEBUVhYKCAqSmpsLMzAzm5uawsbFBYWEhcnJyXvzH0dERpqam6N+/P/z8/FCrVi2p/whEREQvUZSVlZVJHYKIiKT1n//8B2vXrsXJkyfh5eUFb29veHh4vPV5JSUl2Lt3L2JjYxEbGwt/f3/885//RPfu3bWQmoiI6O1YeIiIqrCTJ08iODgYdevWxbRp09C+fXuN54WHh8Pc3BwRERFo0aKFQEmJiIjUw8JDRFRFTZgwAWfOnMGnn36Kzp07Czo7NjYW8+bNw6BBg7Bo0SJBZxMREVUEb2kjIqpi8vPzYWVlBVdXV+zevVvwsgMAXl5eOHbsGGxsbESZT0REVF68tICIqAo5evQofH19cfDgQVhYWIi+3oABA9C4cWPUqlULly9fRqNGjURfk4iI6M94pI2IqIq4ceMG/Pz8EBMTo/W1nz59iv79+yMuLg7m5uZaX5+IiKouFh4ioirg3LlzCAgIQFxcnKQ57O3tcfv2bRgZGUmag4iIqg4WHiIimXv+/DkMDAxw+/ZtqaMgIyMDgwYNQlpamtRRiIioiuClBUREMteuXTscOnRI6hgAAFtbW8ybNw/9+vWTOgoREVURLDxERDI2e/Zs+Pj46NTn4fTq1Qu1atXCDz/8IHUUIiKqAnikjYhIph4+fAgbGxtcuXJF6ih/c+/ePbi7uyMvL0/qKEREJHMsPEREMhUYGIiWLVti2LBhas8ozDiEjas2ICYxFRkPAGMzWzh09cagEYPQzbaGRvnmz5+PRo0aITQ0VKM5REREb8LCQ0QkQ1evXkVgYCB+/PFHtWdkxHyIoRO343rRK/6iYTP4hn+PFYObQ5Pa06NHD1y8eBH6+voaTCEiIno9voeHiEiG1q1bh+7du6s/IHkVJk7cjuuGHTA8PBKqU2dx9tRRRK6eDK9mhkDRdUQHDcUnhx5olNPZ2Znv5SEiIlFxh4eISIZat26Nr7/+Gi1btlTj2bnYNvQ9BB02xbjIOMzt9pc9nAeHEPr+GGy8XgQ0G4fdcXPhrOY2T2xsLHbs2IHdu3erN4CIiOgtuMNDRCQz165dw7Nnz9QsOwAyorE9/iFMfWch+K9lBwCM3TFnri9MAeB6NDbGF6qd1cvLC3v27AF/90ZERGJh4SEikpldu3ZBqVSqP8CoOWxNTeE+qAeMX/OQGl194W4EAHlIOZGq/loAvL29ER0drdEMIiKi12HhISKSmcTERDg7O6s/wNgd4WvWYFzXN5xTq2EKU9vf/2vuw4fqrwWgU6dOOH36tEYziIiIXoeFh4hIZtLS0mBqaqrRjBrO3eD4xvflPMTD/95XYGRkpNFaJiYmSE9P12gGERHR67DwEBHJTHZ2NszNzcVdJDURKXkAYINu7s01GmVubo7MzExBYhEREf0VCw8RkcxkZWWJXHgKkbBhGxKLAEOHERj+qosNKsDS0pKFh4iIRMPCQ0QkI/n5+XB1dYWhoaFoaxQm/xthG68Dhh0QvGIcHDWcZ2lpCWtra0GyERER/RULDxGRjNSvXx+HDh1CaWmpOAs8OISwiRFILDJF1zlfYNyb3+hTLrm5uXwPDxERiYaFh4hIZiwtLZGdnS384MJkrBozERuvG6LrzHVYN6I5NK87QE5ODiwtLQWYRERE9HcsPEREMmNhYYHc3FxhhxYmY8OYACyMN0SPOZHYPMX5tZ/RU1HZ2dk80kZERKKpJnUAIiISlrW1NXJycoQbWJiKbRPH4JPDQI/wHYLt7PwhOzsbNjY2Ak4kIiL6H+7wEBHJTKdOnXD9+nWBpmVgV9BQfBJbhB7hmwUvOwCQnp4OJycngacSERH9TlFWVlYmdQgiIhJOUlISRo0ahZiYGA0n5SLmw4GYuP0hOszZjM2BjoKXHQCwt7fHnTt3ULduXRGmExFRVccdHiIimXFycsL9+/dx584dDabk4lBowO9lZ6Z4Zef48ePo0KEDyw4REYmG7+EhIpIhX19fxMbGYsyYMWo8+wFOfDYGEzemovm4dfhiuC2KHjxAEYCioqK/P9zQCGbG6tWh2NhY+Pn5qfVcIiKi8mDhISKSoaFDh2LlypXqPfnBIazdmIiHAFL+HQCXf7/54UaDNuPyF+5qLXXz5k3MmzdPrecSERGVB4+0ERHJULdu3fD06VMB3scjnjVr1qB9+/awsLCQOgoREckYLy0gIpKp1NRUeHl54dixY1JHeSUrKyvwX0FERCQ27vAQEclU8+bN4eHhgU2bNkkd5W/mz5+PxYsXSx2DiIiqAO7wEBHJ2PPnz9G0aVMcPnwYhoaGUscBAFy7dg0ffvghEhMTpY5CRERVAHd4iIhkKi8vD87OzoiIiEDPnj2ljvOCm5sbQkND4ePjI3UUIiKqAnhLGxGRDG3evBlBQUFQqVRo37499PX1MXbsWHz33XeS5vL09MTZs2fRrl071K1bFwYGBlCpVHB3V++WNyIiorfhkTYiIpkZOXIkSktL//bencOHDyM8PBzff/+9JLmGDh2KL774Au3atXvxtZKSEiiVSri4uGDRokWS5CIiInnjkTYiIpm4cOECLC0tX3tRQY8ePTBw4ED4+vpqNdfDhw/h4uKCsLCwl8oOAFSrVg0HDx6EsbExnJ2dce/ePa1mIyIi+eMODxGRDERERGD9+vVQqVRv/Vyb+Ph4eHl5ISYmBk2aNBE1V0JCAoYNG4bz58+jUaNGb3xsYmIilEolVq5ciSFDhoiai4iIqg4WHiKiSs7Lywtt2rTBsmXLyv2cgoICDBs2DLVq1cLs2bPRoEEDQTOlpqZiwYIFsLCwwA8//FCh5w4dOhSGhoaSHb0jIiJ54ZE2IqJKKi4uDgqFAsHBwRUqOwBQt25dREdHw8vLCz169MDChQtRUFCgcaacnByEhIRg3LhxmDx5coXLDgBs2bIFbm5usLa2RkpKisaZiIioauMODxFRJfTxxx/j7NmzUKlUgsxbsmQJtmzZglq1akGpVMLb2xt2dnbleu7FixcRGxsLlUoFU1NT/OMf/8DYsWM1zpSZmQmlUomxY8ciKChI43lERFQ1sfAQEVUiubm5UCqVCAgIQEhIiODznZycYGpqitTUVLRt2xZ3796FmZkZzM3NYWVlhaKiIuTm5iInJwe5ubkwMzPDzZs30apVK7Rs2RLz588XPNP06dNx+fJl7N27V/DZREQkfyw8RESVxKZNmxAcHAyVSvW3286E8OTJE9SuXRt//GvhypUryMrKQlZWFjIzM5GXl4eysjJYWlrCysoKVlZWsLGxQePGjXHr1i24uroiPT1d8FwAsG/fPvTt2xcqlUqnPkSViIh0Hz94lIioEhgxYgTKysqQk5Mj2hqffPLJSzep2dvbw97evlzPbdSoEczMzHDmzBl07NhR8Gy9e/dGUVERlEolVCoVwsPDBV+DiIjkiZcWEBHpsPPnz8PCwgKenp7YuHGjqGvt3LkT/v7+aj9/4MCB2LFjh4CJXqavr48DBw6gfv366NChA+7evSvaWkREJB880kZEpKOWLVuGjRs3QqVSwdzcXPT1FAoFSktLoaen3u/Crl27Bh8fH1y9elXgZH+XlJQEpVKJL7/8EkOHDhV9PSIiqry4w0NEpIOUSiVycnJw7tw5rZSdjz/+GFZWVmqXHQBo0aIFatasifPnzwuY7NWcnJyQl5eHPXv2YNSoUaKvR0RElRcLDxGRDlGpVFAoFAgJCcHSpUu1tu727dvRv39/jeeIfaztrzZv3gx3d3dYWVkhOTlZa+sSEVHlwSNtREQ64qOPPsKFCxcQGxur9bUVCgUePHgAIyMjjeakpKRg8ODBWi8fWVlZUCqVGD16NKZPn67VtYmISLdxh4eISGLZ2dlo27YtLC0tJSk7n3/+OczMzDQuOwDg4OCAkpISXLlyRYBk5WdpaYkLFy7gzp078Pb21uraRESk21h4iIgktGHDBjg5OWHz5s0IDg6WJMOWLVvw/vvvCzZP28fa/iwiIgJBQUHQ09PD/v37JclARES6hUfaiIgkMmzYMOjr62P9+vWS5lAoFMjIyICNjY0g8xITExEYGIiEhARB5qmjrKwMSqUSTk5OWLJkiWQ5iIhIetzhISLSsrNnz8LMzAy9e/eWvOyEh4ejQYMGgpUdAOjQoQPy8/Nx8+ZNwWZWlEKhQFxcHExNTdG+fXvk5uZKloWIiKTFwkNEpEVLlizB6NGjkZKSgoCAAKnjYMOGDaK850XKY21/FhISgvXr16NNmzbYtGmT1HGIiEgCLDxERFpQVlYGT09P3Lt3D0lJSTA1NZU6EgDg8uXL+OyzzwSfqyuFBwDatWuHnJwcxMbGYsSIEVLHISIiLWPhISISWWxsLPT19REaGorFixdLHeeFlStXwsjICPb29oLP7tKlC27duoXMzEzBZ6tr48aN8PT0fHGjGxERVQ28tICISETBwcFISUlBTEyM1FH+pn379mjWrJloOzH/93//hxYtWmDq1KmizFdXdnY2lEolRo4cKdnNeEREpD3c4SEiEkFWVhbatGkDa2trnSw7AHDhwgXMmjVLtPn+/v6IjIwUbb66LCwscP78eWRlZcHLy0vqOEREJDLu8BARCWz9+vWYMWMGVCoVHB0dpY7zSv/+978RFBSEgoICUdcxNTXFpUuXYGJiIuo66lKpVPDy8oJKpYKnp6fUcYiISAQsPEREAgoICICBgQF++OEHqaO8UefOnWFubo7du3eLus6ECRPg5OSE8ePHi7qOppRKJdq1a4elS5dKHYWIiATGI21ERAL44+Y1Hx8fnS87wO95Q0JCRF9Hl25rexOVSgVzc/MXN7oREZF8cIeHiEhDixcvxrZt26BSqXT26Nafbd26FWPHjsWTJ0+0sp6RkRHu3LmDunXramU9TZw/fx5KpRJLly7F8OHDpY5DREQC4A4PEZGaSktL4eHhgfz8fCQmJlaKsgMAX331Fbp376619SrLLg8AtG3bFtnZ2YiLi2PhISKSCRYeIiI17Nu3D4aGhpg1axbCw8OljlMhp0+f1up1zLp6W9ubbNiwAV5eXjA3N8e5c+ekjkNERBrgkTYiogoKCgrClStXsHfvXqmjVFh0dDQGDx6MwsJCra5bo0YNPHjwAIaGhlpdV1O5ublQKpUICAjQynueiIhIeNzhISIqpzt37sDBwQF2dnaVsuwAwJdffgkXFxetr1uZjrX9mZmZGc6ePYu8vDx4enqCvyMkIqp8WHiIiMrh+++/h4uLC3766Sd8+OGHUsdRW3x8PKZOnar1dStr4fnDkiVLEBoaCn19fcTGxkodh4iIKoBH2oiI3mLo0KGoUaMG1q1bJ3UUjRw4cAC9e/dGcXGxJOsrFApZ7JB4e3vDwcEBERERUkchIqJy4A4PEdFr/HHzWt++fSt92QGAZcuWoUOHDpKtX9l3ef4QExMDa2vrFze6ERGRbmPhISJ6hfDwcAQGBuLKlSsYMmSI1HEEcfToUUyaNEmy9SvjbW2vM336dGzevBlOTk7YsGGD1HGIiOgNeKSNiCSXmZmJixcv4vbt28jMzERmZiaqVasGPT09WFlZwdraGtbW1ujatSsMDAxEzVJSUgKlUgkXFxcsWrRI1LW0KT4+Hq6urigpKZEsw7Nnz1C7dm3JjtSJZeTIkSgtLcWmTZtEXys/Px9JSUnIzMzE7du3kZWVBT09PTx//hxWVlawsbGBlZUVOnXqhDp16oieh4ioMmDhISJJXLp0CTt37kR0dDRKS0tRp04dmJubw8zMDBYWFrCyskJaWhpycnKQk5ODx48f48iRI3B3d8eAAQPQv39/mJubC5pp79698PX1hUqlgru7u6Czpda/f39kZGQgISFB0hz9+vVDYGAg+vbtK2kOoW3evBlBQUFQqVRo3769oLNv3LiBqKgo7Nq1C+np6bCzs3vxc2JmZgZbW1tkZGQgJycH2dnZyMvLw4ULF9C+fXv0798ffn5+sLOzEzQTEVFlwsJDRFoVExODb7/9FikpKfDy8oKXl1eF3ldy8OBBxMTEQKVSwcPDA2FhYbC3t9c414cffohr165hz549Gs/SRUZGRli8eDEmTpwoaY7169fj0KFD+OGHHyTNIYa8vDwolUoMGTIEH3/8scbzTpw4gRUrVuDMmTNQKpXw9vZGly5dyv3848ePv/hZ6dKlC0JCQtCpUyeNcxERVTYsPESkFUlJSZg+fToUCgXmzJmD5s2bazzz0KFDCAsLw7vvvovly5ejfv36FZ5x+/ZtKJVKjB8/HtOmTdM4ky5KTk5Gu3btUFpaKnUUPHr0CJaWligoKJA6imhCQ0ORkJAAlUoFPb2Kv1U2NTUV06dPR3Z2NubOnYt27dppnCkhIQGfffYZmjRpghUrVqBRo0YazyQiqix4aQERiS40NBQjR47ExIkTsXnzZkHKDgC4u7vj6NGjaNOmDVq3bo3vvvuuQs9ft24dunbtih07dsi27ADA/Pnz8c4770gdAwBQp04ddOvWDSqVSuooolm8eDFmzJgBAwMDxMTEVOi58+fPh1KphJ+fH6KjowUpOwDg7OyMPXv2wMvLC927d8fSpUsFmUtEVBmw8BCRqNzd3WFmZobY2Fi4urqKssaQIUOQlJSEuLg4BAUFles5//jHP3D8+HFkZGSgdevWouTSFbGxsRg9erTUMV6Q021tr+Ph4YHS0lJ8+eWXmD59erme88EHH+DJkyc4fvw4vL29RcnVt29f/Prrr8jIyMCwYcNEWYOISNew8BCRKB4/fgxTU1NMmjQJQ4cO1cqaK1asgJGRETw9PV/7mDNnzqBBgwbw8/Or8I5QZXTz5k08ePCg3C+6tUEun8dTHvv27YOtrS0cHR2RmZn52se1atUKvXr1wtSpU7WSa8aMGejcubPgFywQEekivoeHiAT38OFD9OnTB19//TUaNmyo9fX/85//4NixY9iwYQMUCsWLry9cuBBRUVFQqVRqvd+nMho5ciROnTqFy5cvSx3lJe7u7ggLC0OPHj2kjqIVKSkpUCqVWLBgAUaNGvXi68+fP4ebmxvmz5+Pli1baj1XUlISIiIiEBcXp9b7jYiIKgP+042IBNeiRQusXr1akrID/H71cbdu3TBgwAAAQHFxMXr06IHHjx/j9OnTVabsAL9fta2LR5eq0i4PADg4OODOnTs4cuTISzue7du3R1hYmCRlBwCcnJwQFBRUodvfiIgqG+7wEJGgevbsiQkTJoj2fp2KWL58OfT19bFixQqoVCq4ublJHUmr7t69C1NTU+jiP+azsrLg7Oz8xmNecrV161ZMnToVSqUS3bt3f1HMpc6UnJyMdevWSR2FiEhw3OEhIsHMnDkTPj4+OlF2AGD69OlIS0vDli1bqlzZAX7/fjRt2lTqGK9kaWmJJk2a4MSJE1JH0bohQ4Zg2rRpsLOz04myA/yeycTEBKtXr5Y6ChGR4LjDQ0SCOHfuHAICAhAXFyd1lJc8evQIzs7OePjwodRRtM7S0hJjx47F/PnzpY7ySsuXL8edO3cQEREhdRStys3NhaOjI86dOyd1lL+xt7fHnTt3ULduXamjEBEJhoWHiATRq1cvjBs3Tid3UpYuXQojIyN8/vnnUkfRmsLCQtSsWVMnj7P9IT09HW5ubkhLS5M6ilYNGzYMnTt3xgcffCB1lL/ZsGEDrl+/jm+//VbqKEREguGRNiLS2P79+1FcXCxo2cmI+QwDR29AqgCzQkJCEB4ejqKiIgGmVQ6hoaGwtbWVOsYb2dnZwcTEBAkJCVJH0ZqUlBQkJCRoXHYKc09g24IPMXrg+3B1dcX7QycidME2JORqlm/EiBFQqVS4efOmZoOIiHQId3iISGODBg3ChAkTNP4Azwe5GchIPYHojf/GxugUFDnMRFzcFDQXIOP27dtx//59zJkzR4Bpus/W1hYffPABli9fLnWUN1q0aBEKCgqwcOFCqaNoRWBgIJRKJd599101JzxAwtqJmLjwMG6/qr8bdcC4Nesw191M7Yz79+/Hr7/+ipUrV6o9g4hIl7DwEJFGUlNT4eXlhWPHjqk940HMRLw3MRp5f3kBZyhg4cnLy4OnpydycnIEmKb7FAoFnj17hmrVqkkd5Y2uXr2Kvn374sqVK1JHEd2jR49gaWmJq1evqjmhEMlrA+AfFo+HRg7wDQ7GZO+uaG5riIfJh7E2LBRfxecBRl0RHrcDIzTY4LOystLp45BERBXBI21EpJGoqCgolUrNhhQChqbN4NDVF+PmrMBML1Nhwv2JqakpbGxscPLkScFn65rQ0FBYWlrqfNkBgJYtW8LQ0BAXLlyQOorodu3aBS8vL/UHFB7GVxHxeGjjhRU/78aaQG842hqjBmrAzNEbszZ/gUE2AB7GY9VazW6/8/b2RlRUlEYziIh0BQsPEWlk165d8Pb21miGcf81+PXXXxC3Yw3mBg5GV1tDgdK9zNvbG7t27RJlti7Zvn07+vfvL3WMcqsqH0IaFRWlWeGp0QOTp3hh3BdrMLh5jVf89a7wdv79ZycvJRUZ6q8ELy+vKvGzQkRVAwsPEaktLy8PhYWF6Ny5s9RRysXHxwe//vqr1DFEl5aWVqneE1MVCs/z589x6dIl9O7dW4MpNeA45XvM7faKsgMAKMKDB//9r4aG0OTXBj4+Pjp5bTYRkTpYeIhIbZcuXYKhoTi7MWJo0qQJjhw5gufPn0sdRTRz5syBqakp6tWrJ3WUcnN0dERxcbEG723RfdevX0dxcTH09fXFW+TBIRxO/P2NcM0dHKD+tQVAnTp1kJubi8zMTGGyERFJiIWHiNSWmZkJc3NzqWNUiIWFhaxfxG3evBk+Pj5Sx6gwue/yiP+zkouYsAjEPARg1BXDRzhqPNHc3FzWPytEVHWw8BCR2lh4dM+1a9cq5dXbci88WVlZMDUV+jKOQjzIzUDqiV1YMHogJm6/jiLYwDd8jUY3tP2BhYeI5EL3r/AhIp11+/ZtWFhYSB2jQiwsLHDkyBE8evRI6iiC+/HHH1GnTh2kpqYiNVWIj2zVrtu3b2PLli2V7v9T5ZGYmCjwnysZC1yV+Or6n75k2gHjFq/BTG9NDrP9j4WFBe7cuSPILCIiKbHwEJHa9PT0YG1tLXWMCmnZsiUWLlwoy8JTUlIChUKh2U1gEnr+/DmGDx8OPT35HT4wMzPDlClTBJ1pbGwKU1Og6OFDPCwqAh4+QOqJE0jtOhiOxprPb9KkCYqKXvXppkRElQsLDxGpzdDQEDdu3JA6RoVcuHABW7Zs0fC2LN2kp6eHlJQUtG7dWuooaomPj0dwcDBOnNDsM2R00erVq3H69GkBJzpiys/n8EeFKsw4gY0LQ7Hw30Hoe+gwVmxZg/4aHmu7fPmy5p+xRUSkA+T3azQi0horKyvk5ORIHaNCcnJyYGVlJXUMwa1atQp169attGUHALp27Yq0tDRkZWVJHUVwlpaWyM3NFW1+DdtuCFyzBXN6GKHoejSCJq6Fpoca5fqzQkRVDwsPEanN2toa2dnZUseokKysrEp3DK88vvvuO3h4eEgdQ2NyvbxAO78csMWgKb4wBVCUuAqrDhVqNC07O1uWPytEVPWw8BCR2iwtLVFYqNmLKm0qKSlBzZo10bBhQ6mjCO78+fOYOXOm1DE05u/vj8jISKljCM7CwgIlJSWir1PDoQMcDAEgDwknUjSaVVpaKssLJIio6mHhISK1ubi44JdfftHKCzkh/Prrr2jWrBkUCoXUUQS1bt061KpVCx07dpQ6isbc3NyQnJyMe/fuSR1FUHZ2drh796741zwbGuOP+woePlT/woHU1FQoFAqYmJgIk4uISEIsPMZy56cAACAASURBVESkkb59+yI2NlbqGOUSGxsLX19fqWMI7uuvv8Z7770ndQzByPVYm6+vr2Y/K7mpyHjbhmpeBjIAAIawba7+9dRy/VkhoqqJhYeINOLn51epCo+fn5/UMQSXlJSEkJAQqWMIRq6Fx8/PDyqVSu3n5x76DEODdv230Lxaakw0UooAoDm6dm2u9lpy/VkhoqqJhYeINNK/f/9KUXguXrwIY2NjNG7cWOoogtq2bRsMDAzQo0cPqaMIRqlU4sSJE7L7rKRevXrh9OnTePr0qXoDjI1RFD0J77//GXal/n2rpzB5FUIjElEEwNRrMgId1Vvm7t27SE9PR5cuXdQbQESkYxRlZWVlUocgosptzJgx6NatG3x8fNQbkLwWoz+JRt5//+eDjBRczysCDG3g4GAGw/9+3Xb4GqwZrN6HiyxcuBDvvPMOJk6cqF5GHeXq6gpDQ0Ps379f6iiCGjVqFNzd3TFy5Eipowjqk08+Qb169dT8cxUiee0YBIQdRh4MYdPVG+4dHNDczBC5KTGIjo7H7SLAsNlwrNuxGO5qnmj75ptvoFAoEBYWpt4AIiIdw8JDRBq7ffs2XFxccObMGfUGJHyGzn3/jdtveZjDzKOIm1LxYzq3b9+Gv78/0tPT1cunwwwNDREVFYU+ffpIHUVQP//8M7755hvs3r1b6iiC+uOmwFu3bqk9I/fEWoSFrUJMSh5evpbACA6+wQgPD4Sz8Wue/BbPnj1D8+bNUVxcrHY+IiJdw8JDRIKYOnUqzM3NMXbsWKmj/M2ECRMQEBCAQYMGSR1FULt378YHH3xQqa4GrwhDQ0MUFBSgevXqUkcR1MKFC5GTk4NPPvlEozkPUk8gPiEVGQ+LYGhkC4duPeBsW0OjmZ9//jlatWqFoKAgjeYQEekSFh4iEkRxcTEsLCyQkqLZZ38I7cKFC5g7dy6OHTsmdRTBeXh44NmzZzh69KjUUUQxdOhQ9O3bF0OGDJE6iuCsra1x4MABGBuruRUjgry8PPj5+eH69etSRyEiEhQvLSAiQVSvXh3ffPMNJkyYIHWUlwwePBienp5SxxDFiRMnMGXKFKljiEaut7UBwNixYzFq1CipY7xk1KhR2LZtm9QxiIgExx0eIhJUWFgYnjx5gunTp0sdBUOGDMHs2bPxwQcfoFWrVoiPj5c6kmAOHjwILy8vPHv2TOooolIoFJDbv6ZGjhyJ0tJSdO/eHadOncKiRYukjoTp06dDqVRi9OjRUkchIhIcd3iISFBz5szB9evXsWXLFklzhISEoF+/fujVqxfy8/NhbGyMWrVq4dq1a5LmEsqyZcvQoUMHqWOIbsCAAdi5c6fUMQRx4cIFWFpawsPDA5s2bcLEiRNRs2ZNfPnll5LmWrJkCSwtLVl2iEi2WHiISHA7d+7EzZs3JSs9ISEh8PX1fWmXKSYmBmvXroW9vT2mTp0qSS4hHT16FJMmTZI6huj8/f0RGRkpdQyNRUREICAgAElJSRgxYsSLr69ZswbGxsb417/+JUmuJUuWoFGjRli+fLkk6xMRaQOPtBGRaIYPHw5jY2PMmjVLa2sOHToU/fr1e+MtU40bN4aBgUGl3e05deoUunfvjpKSEqmjiK64uBh169ZFUVHR2x+so7y8vNCmTRssW7bstY8JCgpCbm7uGx8jtClTpsDe3h4LFy7U2ppERFLgDg8RiWbjxo1o1KgRgoODcffuXVHXOnfuHNq3b4+ZM2e+9UrdtLQ0uLm5QV9fH9HR0aLmEkN4eDjatm0rdQytqF69OpRKJX7++Wepo1RYXFwcFAoFgoOD31pkVqxYAQ8PDwQEBCAtLU3UXNeuXUPfvn0xcOBAlh0iqhK4w0NEotu3bx9GjRoFf39/zJ49W9DZGRkZWLBgAe7evYudO3fC3Ny83M9NTExEt27d4O3tjV27dgmaS0zGxsZYtGhRlTjSBgA//PADjhw5gu+//17qKOUWEhKCc+fOQaVSVeh5v/76K4YMGYJ3330Xs2fPRp06dQTLlJ+fjwULFiAxMRE//fQTHB0dBZtNRKTLuMNDRKLr3bs3cnJy0LhxY1hZWWHz5s24c+eORjOTk5OxcOFCDBo0CMOHD8fx48crVHYAoEOHDigsLERGRgZMTU01yqMtKSkpKCgoqDJlB6hc11Pn5OSgXbt2MDc3r3DZAYDOnTvj+vXr6NatG5ydnbF27VrcuHFDo0ypqalYs2YNXF1d4eHhgUuXLrHsEFGVwsJDRFoTEhKCsrIyFBcXY8CAAfD29sby5ctx+fJllJaWvvG5hYWFOHbsGD777DO4uLggJCQEbdq0QVpaGvz9/TXKlZCQgGnTpkGhUGDp0qUazRLbvHnz4ODgIHUMrapbty66du2qVoHQpo0bN6Jdu3bYuHEjPvroI41mjR8/Hg8fPkSdOnUwatQouLu7Izw8HOfPn3/rVeTFxcU4c+YMFixYgPfeew+BgYFo0KAB7t27hzFjxmiUi4ioMuKRNiKSTFJSEqKjo3H8+HEcOnQIDRo0gLm5OczNzdGqVSucP38eOTk5yM3NRa1atdCqVSv4+vpi+fLlSExMRIMGDQTNU1JSAjMzM7Ro0QKnTp0SdLZQGjRogFmzZiE4OFjqKFr17bffIiEhAd98843UUV5p+PDhUCgU2LBhg+Czz5w5g2nTpuH9999HTEwM4uPjUbduXVhYWMDMzAyOjo5ITk5GTk4OsrOz8fjxY7i4uOD9999H//790bJlS8EzERFVJiw8RKQzcnNzkZWVhczMTBQUFKBhw4awsrKCpaUljI2NoVAoAAATJkyAk5MTxo8fL0qOPn364PDhw0hISEDr1q1FWUMd6enpaNKkCZ4/fy51FK27d+8e7O3tRb/8oqLOnTsHpVKJiIgIDBs2TJQ1QkJCYG5u/tKu0b1795CZmYmsrCz89ttvqFevHqysrGBlZSX4LwKIiCo7Fh4iqnTi4uKwdOlSUY84bdu2DUOGDMGECROwevVq0dapiFGjRiE+Ph5XrlyROookevTogTlz5sDNzU3qKACApUuXYvPmzVCpVDAzMxNtnaZNm+LAgQNo0qSJaGsQEckZ38NDRJWOp6cnTp48iYKCAtHWGDx4MJ4/f459+/ahWbNmoq1TEXv37hVtF6Ey0JXLC8rKyuDp6Ym8vDycPXtW1LKTlJSEevXqsewQEWmAhYeIKiV/f39ERkaKvs7Nmzfh4eEBfX197Ny5U/T1Xuf+/fvIy8vDp59+KlkGqelC4YmNjYW+vj5CQ0OxZMkS0deLjIzU+FIOIqKqjoWHiColbb74/fbbb5GUlISAgAD069dPK2v+1cyZM9G0aVNJ1tYVVlZWsLOzQ3x8vCTrBwcHY8WKFXj+/Dl69eqllTV37NiBgQMHamUtIiK5YuEhokrJx8cH+/fvR1FRkVbWa9u2LZ4+fYqsrCyYmJhoZc0/i46OxuDBg7W+rq6RYpcnKysLbdq0gbW1NWJiYrS2bkpKCqpVqwZ7e3utrUlEJEcsPERUaUnx4vf06dMIDg6GQqFAeHi4VtYsLi5GdnY2Fi5cqJX1dJm2v+fr16+Hs7Mztm7diunTp2ttXYC7O0REQmHhIaJKS6r3dMyYMQNlZWVYunQpOnfuLPp6oaGhsLW1FX2dyqBx48Zo0KABEhMTRV8rICAAhw4dQmZmJhwdHUVf769YeIiIhMHCQ0SV1oABAxAVFQWpbte/d+8ezM3NUbNmTSQnJ4u2Dl/4vkzsopuUlARTU1P4+Pjghx9+EG2dN7l27RqePn2Ktm3bSrI+EZGcsPAQUaUm9c1du3fvxsaNG9GuXTtMmDBBlDUyMjKwePFiUWZXRmJ+zxcvXoyxY8fi0qVLGDp0qChrlAdLLhGRcFh4iKhSk7rwAL9fkV1aWoq4uDjBb1KbMWMGLC0tUb16dUHnVmb29vYwMDAQdFettLQUHh4eyM/PR2JioiQXU/wZCw8RkXBYeIioUtOFwvOH69evw8vLC3p6eti+fbsgM7dt2wZfX19BZsmJkN/3ffv2wdDQELNmzdLaRRRvcuvWLeTm5qJjx45SRyEikgVFmVSH34mIBNKvXz8EBgaib9++UkcB8Pt1wh07dkTPnj2xZ88ejWYpFArcu3cPDRo0ECidPFy4cAEBAQE4f/68RnOCgoJw5coV7N27V6BkmluxYgUyMjKwfPlyqaMQEckCd3iIqNLz9/dHZGSk1DFecHBwwNOnT5GXl4eGDRvi+fPnas2ZN28eTE1NWXZeoU2bNigsLMS1a9fUev6dO3fg4OAAOzs7nSo7ABAZGQl/f3+pYxARyQYLDxFVerp0rO3Pfv31V4SGhkJfXx8LFiyo8PM3bdqEPn36iJBMHtT9vn///fdwcXHBTz/9hA8//FCEZOrLzs7GjRs30K1bN6mjEBHJBo+0EZEseHt7IygoCF5eXlJHeSUTExM0btwYZ86cKfdzFAoF0tPT0ahRIxGTVV4JCQkYP358hf6eDhkyBDVr1sS6detETKa+r776CpcuXcKqVaukjkJEJBvc4SEiWdDVXZ4/3L17F9bW1qhRowbOnj371scvXboU9evXZ9l5A2dnZ9y9exfp6elvfWxCQgIaNmwIX19fnS07AG9nIyISA3d4iEgW7t+/jxYtWuDevXtSR3mjqKgo+Pv7Y8yYMVi7du1rH+fo6Ig2bdpg69atWkxX+QQHB8Pa2hrTp09/7WMWLVqEHTt2QKVS6fT7ofLz89GsWTPcv39f6ihERLLCHR4ikoUGDRqgXbt2OHTokNRR3sjPzw+lpaU4dOgQGjdu/NrHXbx4EbNnz9ZesErqTTt7z549g7u7OwoKCnDmzBmdLjsALysgIhILCw8RyYauH2v7s9TUVPj4+EBPT+9vuzirV69G3bp14eDgIFG6yqNbt264ceMGsrOzX/r6nj17ULt2bYSFhWHhwoUSpasYHmcjIhIHj7QRkWxkZ2fDyckJWVlZUkcptytXrsDJyQlubm7Yt28fAKBDhw6ws7NDVFSUxOkqhylTpqB169aYPHkyAGDatGm4fv06fv75Z4mTld/jx49hbm6OR48eSR2FiEh2uMNDRLJhYWGBpk2b4sSJE1JHKTd7e3s8efIE+fn5aNCgAYqLi3H+/HnMnDlT6miVxh+fw5SRkYHWrVujWbNmlarsANzdISISE3d4iEhWli9fjjt37iAiIkLqKBUWERGBjz76CAYGBiguLpY6TqVSp04d1KtXD/v370erVq2kjlNhvr6+GDt2LPr16yd1FCIi2WHhISJZSU9Ph5ubG9LS0qSOohYXFxecPXsWDg4OSExMlDpOpTB48GCcO3cOwcHBCAwMlDpOhZWUlKBmzZp49uyZ1FGIiGSJR9qISFbs7OxgampaoQ+j1CWJiYnYt28f7OzsUKNGjUr759CG06dPo379+hg4cCC+/PLLSnNhxV/xdjYiInFVkzoAEZHQ/ritrWPHjlJHqZDt27ejWrVq6NmzJ3r27Indu3fDxcUFo0aNwnfffSd1PJ2yYMECREdH4+bNm6hXrx6A37/vjx8/Ru3atSVOVzE7duzA4MGDpY5BRCRbPNJGRLJz7do1+Pj44OrVq1JHqZD33nsPBgYGOHDgwEtfb9myJYqKipCeni5RMt1RVFQEpVIJV1dXzJ8//6W/NnLkSHh4eGDEiBESpVOPnp4eSktLoVAopI5CRCRLPNJGRLLTokUL1KhRAxcuXJA6SoWcOnUKQUFBf/v61atX4evrCz09PWzatEmCZLph9+7dMDY2xrx58/5WdoD/3dZWmURFRaF///4sO0REIuIODxHJ0pw5c1BWVobPP/9c6ijl8vPPP2PgwIEoKip67WOuX7+Otm3b4t1330VsbKwW00lv6tSpSE9Px3/+8583Pq569ep4/PgxDAwMtJRMM8OGDUPv3r0REBAgdRQiItniDg8RyVJl+23/F198gc6dO7/xMc2aNcPjx49RUFCA+vXr48mTJ1pKJ5309HTY29vD3t7+rWUH+N/7tyoLXlhARCQ+Fh4ikiUHBweUlJTgypUrUkcplxMnTmDKlCnlfmxYWBhq165daXaw1LF27Vq4ublh9+7d5f57U5kKz549e9CrVy8YGhpKHYWISNZ4pI2IZGvWrFmoXbs2Zs6cKXWUNzp8+DA8PT3V+hwWc3NzWFpa4uzZsyIkk84HH3yA+vXr49tvv63Q88rKyqCvr4/nz5+LlEw4Y8aMgaurK0aPHi11FCIiWeMODxHJVmX5bf+SJUvQoUMHtZ6bk5ODZs2awdDQEKdOnRI4mfadOnUKxsbGGDx4cIXLDgAoFAr4+flh586dIqQT1o4dOzBw4ECpYxARyR4LDxHJVocOHXD//n2kpaVJHeWNjh49igkTJqj9/B07diAqKgrdu3fHqFGjhAumZfPmzcO0adOQkZGh0ftaKkPR3b9/Pzp37gwjIyOpoxARyR4LDxHJmq5fXnD69GkUFhZqfKypT58+KCkpQXx8PBo1aiRQOu14+vQpXF1d8ezZM5w8eVLjElAZCg8vKyAi0h4WHiKSNV1/8bto0SK0adNGsHlXrlzBwIEDoaenh/Xr1ws2VyzR0dFo2LAhFi1ahLlz5woy09DQEL169cKePXsEmScGHmcjItIeFh4ikrUuXbrg1q1byMzMlDrKKx04cABjx44VdOaKFStw8+ZNTJ48GZ6enoLOFtLkyZPx/fff48mTJ3j33XcFna3LRffo0aN45513YGJiInUUIqIqgYWHiGRPV1/8Xrp0CQUFBeW+crki7Ozs8OjRIzx9+hT16tXDw4cPBV9DXTdv3kSLFi3g4OCAXbt2ibKGrn7PAe7uEBFpGwsPEcmerr74nTt3Lt555x1R1zh27BjmzZsHY2NjfPrpp6KuVR7ffPMNPDw8sG/fPkyaNEm0dYyMjODi4oK4uDjR1lAXCw8RkXax8BCR7Lm5uSElJQV3796VOspLYmNjMXLkSNHXmTp1KsrKyrB27Vq0bdtW9PVeZ+DAgUhKSsKNGzfQvHlzrayna0X35MmTsLW1hbW1tdRRiIiqDBYeIqoSdO3F761bt5Cfn4+QkBCtrZmdnQ17e3tUr14dx48f19q68fHxqFu3LgICAvD1119rbV1d+54D3N0hIpICCw8RVQm69uI3LCwMLVq00Pq6P/30E3bv3g03NzeMGDFC9PXmzJmD4OBgZGVlYcCAAaKv92cmJiZ45513cPToUa2u+yYsPERE2sfCQ0RVgqenJ06ePImCggKpowAA9uzZg4CAAEnW9vLyQklJCU6fPg0bGxtR1nj8+DG6d++OsrIynDhxAnXq1BFlnbfRpaKblJSEevXqoUmTJlJHISKqUlh4iKjK0JUXv7/99hvy8vIQFhYmaY5Lly5h8ODBUCgUWLdunWBzo6KiYG5ujqVLl+Lzzz8XbK46dOV7DnB3h4hIKiw8RFRl+Pv7IzIyUuoYmDFjhs78lj8iIgIZGRmYNm0aPDw8NJ43ceJEbNy4EY8ePUK3bt0ESKgZa2tr2Nra4uTJk1JHQWRkJPz9/aWOQURU5bDwEFGV4ePjg/3796OoqEjSHNHR0Rg8eLCkGf7MxsYGBQUFePbsGYyNjXH//v0Kz7h+/TqaNWuGdu3aYefOnSKkVJ8u7PKkpKSgWrVqsLe3lzQHEVFVxMJDRFWK1C9+S0pKkJWVhUWLFkmW4XWOHj2KRYsWoWHDhpg5c2a5n7dmzRp4eXkhLi4OEyZMEDGheqT+ngM8zkZEJCUWHiKqUqR+8fvxxx+LdlGAECZNmoSysjJ8//33aNOmzVsf7+fnhwsXLiA1NRVNmzbVQsKKa9KkCerVq4ekpCTJMrDwEBFJh4WHiKqUAQMGSHrkKjIyUuvXM6sjKysLDg4OqF69+iuvdT5+/Dhq166NkSNHYvXq1RIkrBgpi25qaiqePHki6Ye+EhFVZYqysrIyqUMQEWmTv78/hgwZIslv3BUKBZ4+fYoaNWpofW11HDhwAN7e3hg0aBA2b94M4PfPEDpw4ABUKhVq1aolccLyuXz5Mvz8/HDp0iWtr7148WLk5+cjPDxc62sTERF3eIioCpLqtraZM2fCwsKi0pQdAPDw8MCzZ8+QlJQES0tLdO3aFfr6+jh27FilKTsA0KpVK+jr6yMlJUXra/N2NiIiabHwEFGVI9Xxpm3btsHX11fr6wph3rx5uH//Pk6ePAkLCwup46hFiu/7rVu3kJubi44dO2p1XSIi+h8WHiKqcgwMDODt7Y3du3drdd0bN25g/vz5Wl1TCOPHj8fWrVtRVFSErKwsBAcHw93dXepYFSZF4eFlBURE0mPhIaIqSdsvfufPnw8TExOYmJhobU1NXbt2DU2aNIGzs/OLI4AWFhYoKChAWVkZjIyMkJubK3HK8mvbti2ePHmC1NRUra3JwkNEJD0WHiKqkrRdeDZt2oQ+ffpobT1NffXVV/Dx8cGhQ4fwz3/+829//fDhw1i6dCnMzc0RGhoqQUL1aPP7npOTg9TUVHTv3l0r6xER0aux8BBRlVSnTh10794dsbGxWlnv6tWrmDt3rlbW0pSvry8uXbqEq1evonHjxq993Pjx41FWVoaNGzfCwcFBewE1oM0LK3hZARGRbmDhIaIqS1u/7Y+IiEC9evVgZ2cn+lqa+OWXX1CzZk2MHTsWq1atKvfzMjMz0a5dOxgYGODgwYMiJtRcx44dkZubi1u3bom+Fo+zERHpBn4ODxFVWffv30eLFi1w7949Uddp06YNHBwc8OOPP4q6jiY+/fRTHDlyBCqVSu1rsw8fPgxPT0/4+/tj69atAicUzvTp02Fra4ugoCDR1sjPz0ezZs1w//590dYgIqLy4Q4PEVVZDRo0QNu2bXH48GFR17l48SJmz54t6hrqevDgAVxcXGBoaIijR49q9BlBPXr0wLNnz3DhwgVYWVkJmFJY2tjZ4+4OEZHuYOEhoipN7Be/a9asQe3ateHo6CjaGuqKjIyEnZ0dVq5cKWghS05OxsiRI6FQKLBmzRrB5gqle/fuSE1NRU5OjmhrsPAQEekOHmkjoiotOzsbTk5OyMrKEmW+s7MzbG1tsWvXLlHmq+uf//wn8vPz8dNPP4m2xt27d9G0aVM4OTnhyJEjoq2jjsmTJ8PBwQGTJk0SfPbjx49hbm6OR48eCT6biIgqjjs8RFSlWVhYoGnTpjhx4oQo88+dO4cZM2aIMlsdf9y81qlTJ1HLDgCYmJjg4cOH0NfXR926dZGZmSnqehUh5m1t3N0hItItLDxEVOWJdaxt/fr1qFGjBlxcXASfrY5Vq1ahb9++OHLkCAIDA7W27sGDB7FixQpYW1sjJCREa+u+ibu7O86ePYv8/HzBZ7PwEBHpFh5pI6IqLz09HW5ubkhLSxN0bpcuXVC/fn3s27dP0Lnq6Nev34v360jJxsYGRkZGuHjxoqQ5ACAwMBAuLi4YN26cYDNLSkpQs2ZNPHv2TLCZRESkGe7wEFGVZ2dnBxMTEyQkJAg6NzExER999JGgMyvqj5vXAgMDJS87AHD79m04OzvDwMAAcXFxkmYRY2ePuztERLqHhYeICMK/pyMyMhL6+vrw8PAQbGZFzZ49G59++ikePHiAvn37SpbjrzZu3IhDhw7Bx8cHgwcPliyHt7c3jh49iidPngg2MzIyEv7+/oLNIyIizfFIGxERgGvXrsHHxwdXr14VZJ6bmxv09fVx8OBBQeZVxG+//QalUglfX1/MmjVL6+tXRNu2bZGXlyfaLXlvM2LECHh6emL48OGCzNPT00NpaSkUCoUg84iISHPc4SEiAtCiRQvUqFEDFy5cEGTeqVOnEBQUJMisiti+fTuaNGmCr776SufLDgCcP38eY8eOhUKhwKpVq7S+vpA7e1FRUejfvz/LDhGRjuEODxHRf82ZMwdlZWX4/PPPNZqzd+9e+Pn5oaioSJhg5TRu3DgUFBRg27ZtWl1XCL/99hvs7OzQtm1b/PLLL1pd28DAAE+fPkW1atU0mjNs2DD07t0bAQEBAiUjIiIhcIeHiOi/hHoT+4oVK9CpUycBEpXP5cuX0ahRI3Tt2rVSlh0AqFevHh48eABDQ0PUqVMHt27d0traQn3feWEBEZFuYuEhIvovR0dHFBcXa/w+nuPHj2Py5MkCpXqzf/3rX/Dz88Px48cxduxYrawppv3792PlypWws7PD9OnTtbKmEIVn79696NmzJ2rUqCFQKiIiEgqPtBER/cmsWbNQu3ZtzJw5U63nHz16FB4eHlr5HJb3338fzZo1w5dffin6WlKwtbVF7dq1cfnyZVHXef78OQwMDFBaWqr2jDFjxsDV1RWjR48WMBkREQmBOzxERH+i6W/7Fy9eDCcnJwET/d3hw4dRvXp1TJw4UbZlBwAyMjLg4uKCatWqISYmRrR19PT04Ovri6ioKLVn8DgbEZHu0uwdmkREMtOhQwfcv38faWlpaNy48Yuvl5aWIjMzE1lZWXj69CksLS1hZWWFOnXqvPT8o0ePilpCZs6cifj4eDx+/BgGBgairaMr1q9fjwkTJqBHjx7o27evoJ+V9Gd/FF0/P7+Xvv7gwQNkZmYiOzsbRkZGsLKygqWl5UuP2b9/Pzp37gwjIyNRshERkWZ4pI2I6C8++ugj6OnpoX79+jh//jwOHDiA+/fvw8LCAubm5rCxsUFKSgpycnKgUCjg6uqKJk2aoHXr1vi///s/jY5Gvc79+/ehVCoxcOBAzJgxQ/D5lUG7du2QnZ2NnJwcwWcXFhaifv362Lp1K3bt2oVr164hKSkJBgYGsLCwQKdOnZCcnPxifQsLC7i5uaFr1644ffo03n33XUyYMEHwXEREpDnu8BAR/VdxcTGWLVuGXbt2QV9fH15eXhg9ejRmzpwJExOTVz7n0aNHuHfvHg4ePIht27bBwMAAI0eOxJQpUwS7qe3HH3/E5MmT+5H28AAAGzNJREFUoVKp4OzsLMjMyujcuXP47LPPoFAo8MUXX2DatGmCzI2JicHq1atRWFiIb775Bl5eXpg0aRJMTExQs2bNVz4nJycHt27dws8//4wjR44gOTkZRUVFgmUiIiLhcIeHiAjA/PnzMW/ePCxYsABdu3ZF06ZN1Zrz9OlT7N+/H19//TWaNm2KiIgI2NnZqZ1rzJgxePr0KbZu3ar2DLl59OgRbGxs4ODggOPHj6s9JyEhAcHBwTAyMsKAAQPg5eWl9qzk5GTEx8dj2bJlWLJkCXd7iIh0CC8tIKIq7ccff0S9evVw9+5dpKWlISAgQO2yAwA1a9ZE3759sWfPHiiVSri6uiI0NLTCcy5evAgbGxu4urqy7PxFnTp18Ntvv6F27dqoXbs20tPTKzxjxIgRGDt2LKZMmfJiV0cTjo6OCAwMREJCAuLj49GsWTMcPnxYo5lERCQM7vAQUZUVHByM0tJSTJw4UdQ3nG/fvh3ffvstkpOToVAo3vr4L774AmvXroVKpYK1tbVoueRgw4YNGDVqFKZNm4YVK1a89fG3bt2Co6Mjli9fDh8fH9FypaWlYeXKlejcuTM+/PBD0dYhIqK3Y+EhoirJy8sLXbp00drRoytXrqBnz544d+4c2rRp89rH9enTB/b29uV68U7/06hRI9SsWRNXrlx57WN+/vlnTJw4EQcPHvzb7XpiCQsLQ1lZGdauXauV9YiI6O94pI2IqpyePXti1KhRWn2fhb29Pe7c+f/27j9W64Lu//grcBzEhLQAUSiXLFOyQi0FpqFNDxbIDzdcfNNZ3vljmn9o80YqHd95k3f+6F5xp1PqO3Etf1QgqR20tGFwlJRs42QrRIHDr4MtYbrOKYvvHxa33oL5PdeB6/6+eTw2N7fD9f682cUf53l9rs/nszHnnHNONm/e/KafP/rooznggAPyxS9+Uez0wvr16zNu3LgccMABeeihh97081WrVuXGG2/MypUr91nsJMncuXNz1FFH5YorrthnxwTgjZzhAfYrxx13XObOnZtx48Y1bYdTTjklS5YsybHHHpskmT17dn75y1/m4YcfTv/+/Zu2VwVPPvlkTj311EyePHnXA2SXLFmSm2++OXfffXfT9rrzzjvz5JNPNvRwUwB6R/AA+41Zs2ZlwoQJmTFjRlP3+Otf/5ojjzwyr7zySsaNG5dzzz23Vzc2YM8++tGPZvPmzXniiScyceLEPPHEE81eKbfccksGDRqUuXPnNnsVgP2Kr7QB+4Wvfe1rGTp0aNNjJ0n69++ftra2fOADH8h3vvMdsbMXPPPMM7n00kvzwQ9+MI8++miz10mSXHnllXnmmWdy3333NXsVgP2K4AHKe/rpp/PII49k9uzZzV5llzFjxuTiiy/e9bUr+t7atWtz++23Z9CgQc1eZZfbbrst1157bV566aVmrwKw3/CVNqC8008/PZdccklOOeWUZq/yJscdd1x++9vf5j3veU+zVymlvb09V1xxRZYsWdLsVd7krrvuypo1a3L77bc3exWA/YLgAUpra2vL17/+9Xzve99raM721W25a8HCPNaxIV3dAzPsQxMz81++kHNPGNbQ3HvuuSe/+tWvcueddzY0hzeaMGFCrr766nz84x/vs5ndax7L/U93JUmGnTA1p40e2OtZEyZMyCOPPJKjjjqqr9YDYA8ED1Da2LFj841vfCNHH310Lyd0Z83CSzPruqXp7PnvPxuacXNuzXcvH58hDezY2tqau+++e9dd22jM/fffnzvuuKOPn32zJndMPiPXrepJ0pJxc5flh18Y1etpS5cuzQMPPJAf/OAHfbciALvlGh6grGXLlmXQoEENxE6yfcV1mTV7aTp7RmbinO9l2bNrs2ntk/nxDTMzpmVb2uddmtmLuxrac9asWfnmN7/Z0Az+y/z583Peeef16cyuxf+W+R0tGTq4b+a1trZmxYoV2bRpU98MBGCPBA9Q1qJFi3LGGWc0MGF15l93bzrTkuPnfDffvfy0jB4yMBk4Kiec/x/57g0TMzjbcv918/JYd++P0tra+j/yWpP/H/3pT3/K8uXLc+qpp/bd0O4VuXne0uwYMy5jWvpu7JlnnpnFixf33UAAdkvwAGUtWbIkra2tvX5994q7cn9HTzJ0aq4670P571dsjDr3qsw8Ksm2tixs297r4xx22GEZPnx4nnrqqV7P4DWLFy9u6D3fnTUL5uXezpaMmzkpo/oweFpbWwUPwD4geICSVq9enZaWlhx55JG9ntHRtiKdSQaPn5Rxu71I54RMGj8yyY60/3xVGjjJk9bW1ixatKiBCSR7IXi67sm181elZ+iknD+p99fs7M7EiRPz+OOPp7u7kX85APwzggcoqb29vcFffDeko6MzSUtGjxn9prM7/zDm+NFpSdLT0ZHOBo526qmn5tlnn21gAkmybt26Prz9+PY8dvPN+fmO5Kip/5KJjd2Qb7fOPvvsLFu2rO8HA7CL4AFKeuGFFzJwYO9vG5x0Zc2G127LNnTk0D3+qSHDhmVwkp4NHVnTwAf1hx56aJ555pneDyA7d+7MypUrc+ihh/bNwNV3Zd69ncngibn88hP2GL2N6NevXzZu3LgXJgPwD4IHKGnjxo0ZNqyBj+S7t2Xbttf+d+DAt7hwo2VwWpKkZ3u27+j94YYNG5YtW7b0fgDZvHlzDjvssD6a1pV75s1PR09y1MyrMnUvnN1JXnvf3akNYO8SPEBJmzZtauyX357u112T8xaf7e9qoR3Z8abn9Lx9Bx54YAYMGJCXXnqp90P2c5s2bcrw4cP7ZNb2x+bl5p/vSAa35qq9dHYnSYYPH+4MD8BedkCzFwDYGwYMGJDDDz+8gQk9ea1fWtLylnfmatnVPD0NBE+SnHTSSRk5cmT69+/f2KD91IABA/LpT3+68UHdqzN/3v3pTEvGnHdVpu2lsztJ8t73vjcvvPDC3jsAAIIHqOmPf/zjPjpb8o8wet3Jnl5avXp1rrnmmhxyyCGNLrVf6uzs7JMbAGy497rc1dGTDJ2Zqy7/UB9stmd/+MMf0tNoKQPwlgQPUNKIESOydevWBib848xNT3p6urPHr7X1vC53GiyeLVu25Jprrkm/fr5t3Bu/+93vct999zU2ZHtb5t3cnh0ZnHFXXZVJu70ded/ZunVrg2ciAfhnBA9Q0ogRI9LV1dX7AUOGZEhLkp6ku7snbxU8r92roCVDB/f+cC+++GLe/e53i50GNB65yer5N6dtW5Kh4zJ1zPasXv26B8r2rElXT5L0ZMeGjjy9entakgwZ/aGM6uVFPlu3bs1HPvKRhnYG4K0JHqCkI444Ip2djTwZZ2iGDk2yI9m2bVuS3X/Uv72r67WvtA0eliENnA3YsmWLT/obdPDBB2fnzp155ZVXctBBB/ViwvasWbPmtfdz29LMnrJ0j3+yY8HnM2VBkgzNzB/8Ov8xvnc7d3V15YgjjujdiwF4WwQPUNKxxx6b3//+9w1MGJUxo1uS53qypmNDurP7h4+u6XjtF+SW0cdndANH27RpU8aNG9fABJLkk5/8ZNavX59jjjmmF69uybATJqU1e3qg0rZ0LF2VziSDx0zMuJEtSYbk+AbO7P3tb3/L6NGN/MsB4J8RPEBJkydPzvTp03P99df3csKQfGj8mLQsXZUdT6/ImpyWN1++viGrVr32sJ6RY8ZkVAP7LlmyJDNmzGhgAkkyduzYPPjgg70MnoEZf/mt2ePJmu62fO6Yz6ezpyVjZv57/s8XGnnHk/Xr1+c3v/mNr7QB7GW+LA6U1K9fv5x11ll5+OGHez1j9GmTMqYlyXNtuffp3Xzqv+b+3NvRk+SoTJp5Qq+PkyRtbW2ZPn16QzNIpk+fnqVL9/xVtP9J2traMnXq1GavAVCe4AHKmjZtWkPBk9Hn5fJJI5M8l7uuuzlvaJ7uNbnjX+enoycZPPELOb+BuxcvW7YsJ598cgYNGtT7ISRJPvzhD+fll1/Ohg0bmr3KP/Xwww+LXIB9QPAAZU2fPj0vvvhiAxOGZNLc/52pI5OeVf+Z/3XG53LtHQuz8I5/y6VTJue69h3J4ImZ8+/nN/R1tqeffjqf/exnG5jA61144YV5/PHHm73GW9qxY0cGDRqUT3ziE81eBaC8d+zcuXNns5cA2FuuvvrqDBgwIJdddlnvh2xoy7WX/msW/P16nX8YPGZm5t56Q84d3ct7EifZuHFjZsyYkfXr1/d+P97gL3/5Sw466KCsW7eubwf//RqepT0tGTd3WX7YwDU8V199dU455ZRcdNFFfbggALsjeIDy+vXrl87OzrzjHe9oYEp3up7+eR7r2JAdGZxRo8dn4vhRe3o6z9t2ySWXZNasWTn33HMbnMTrXX/99dm2bVtmz57d7FXeZO3atbngggsavIsgAG+X4AHKu+mmm/Lcc8/l2muvbfYqb/DrX/86X/nKV/LUU081e5WSDjnkkLS3t2dIIw9I2gsuvPDCXHTRRZk2bVqzVwHYL7iGByjvS1/6UtatW9fgg0j73oIFC3Lrrbc2e42yFixYkG9961vNXuMNVqxYkcMOO0zsAOxDzvAA+4Xu7u4ccsghWbt2bbNXSZJceeWVOfPMM/O5z32u2auUNmfOnOzcuTNXXHFFs1fJ5s2bM2XKlGzcuLHZqwDsV5zhAfYLAwcOzLJly/KpT32q2avk29/+dkaMGCF29oF58+alo6MjP/nJT5q9Sk4//fR0dHQ0ew2A/Y7gAfYbH/vYx3LLLbfk85//fNN2mD9/fl599dXccsstTdthf7NkyZI8+OCDjT2TqUGf+cxn0t7enne9611N2wFgf3VAsxcA2JdOO+20/PnPf05ra2uWLl26T499ww03pKurK9///vf36XFJfvjDH2bChAnZsmVLzj///H123K1bt+b0009Pe3t7jj766H12XAD+izM8wH6ntbU1d955Z0aNGpXnn39+nxzzggsuyLBhw8ROEy1fvjzPP/985syZs0+O197enrPOOitr1qwROwBNJHiA/dLYsWPT09OTG2+8MbNnz84rr7yyV46zcOHCTJkyJZdffnm+/OUv75Vj8PbddtttOfHEEzNp0qQ88MADe+UYGzZsyMUXX5zFixdn8+bNOfTQQ/fKcQB4ewQPsN/q379/Fi1alJNPPjljx47NTTfd1GezH3rooYwfPz5r167NT3/600yZMqXPZtOYyy67LIsWLUpbW1smT56clStX9snc7u7uzJkzJzNnzsx5552XhQsX9slcABrjttQAfzd37tz87Gc/y+DBg9Pa2prW1tYcfPDBb/v1v/jFL7J06dIsX748xxxzTG666aa8//3v34sb06iVK1fmq1/9al544YVd7/nxxx//tl/f1dWVtra2XdeDnXPOObnsssv21roA9ILgAXidV199NUuWLMmPfvSj/PjHP87ZZ5+dV199NcOHD9/138EHH5zOzs5s3bo1W7duTf/+/XPPPffkxBNPzLRp0zJt2rS8733va/Zfhf8Hzz77bBYtWpTFixdn3bp1OfPMM9PS0rLrPR81alRefPHFXe95V1dXenp68sQTT2Tq1KmZMWNGWltbm/3XAGA3BA/AW1i2bFmee+65dHZ2ZtOmTdm8eXMOPPDAtLS05PDDD8/IkSMzatSonHbaaXnnO9/Z7HXpA1u3bs3y5cuzYcOGbNy4MZs3b06/fv3y8ssvZ8SIEbve96OPPjonnXRSs9cF4J8QPAAAQFluWgAAAJQleAAAgLIEDwAAUJbgAQAAyhI8AABAWYIHAAAoS/AAAABlCR4AAKAswQMAAJQleAAAgLIEDwAAUJbgAQAAyhI8AABAWYIHAAAoS/AAAABlCR4AAKAswQMAAJQleAAAgLIEDwAAUJbgAQAAyhI8AABAWYIHAAAoS/AAAABlCR4AAKAswQMAAJQleAAAgLIEDwAAUJbgAQAAyhI8AABAWYIHAAAoS/AAAABlCR4AAKAswQMAAJQleAAAgLIEDwAAUJbgAQAAyhI8AABAWYIHAAAoS/AAAABlCR4AAKAswQMAAJQleAAAgLIEDwAAUJbgAQAAyhI8AABAWYIHAAAoS/AAAABlCR4AAKAswQMAAJQleAAAgLIEDwAAUJbgAQAAyhI8AABAWYIHAAAoS/AAAABlCR4AAKAswQMAAJQleAAAgLIEDwAAUJbgAQAAyhI8AABAWYIHAAAoS/AAAABlCR4AAKAswQMAAJQleAAAgLIEDwAAUJbgAQAAyhI8AABAWYIHAAAoS/AAAABlCR4AAKAswQMAAJQleAAAgLIEDwAAUJbgAQAAyhI8AABAWYIHAAAoS/AAAABlCR4AAKAswQMAAJQleAAAgLIEDwAAUJbgAQAAyhI8AABAWYIHAAAoS/AAAABlCR4AAKAswQMAAJQleAAAgLIEDwAAUJbgAQAAyhI8AABAWYIHAAAoS/AAAABlCR4AAKAswQMAAJQleAAAgLIEDwAAUJbgAQAAyhI8AABAWYIHAAAoS/AAAABlCR4AAKAswQMAAJQleAAAgLIEDwAAUJbgAQAAyhI8AABAWYIHAAAoS/AAAABlCR4AAKAswQMAAJQleAAAgLIEDwAAUJbgAQAAyhI8AABAWYIHAAAoS/AAAABlCR4AAKAswQMAAJQleAAAgLIEDwAAUJbgAQAAyhI8AABAWYIHAAAoS/AAAABlCR4AAKAswQMAAJQleAAAgLIEDwAAUJbgAQAAyhI8AABAWYIHAAAoS/AAAABlCR4AAKAswQMAAJQleAAAgLIEDwAAUJbgAQAAyhI8AABAWYIHAAAoS/AAAABlCR4AAKAswQMAAJQleAAAgLIEDwAAUJbgAQAAyhI8AABAWYIHAAAoS/AAAABlCR4AAKAswQMAAJQleAAAgLIEDwAAUJbgAQAAyhI8AABAWYIHAAAoS/AAAABlCR4AAKAswQMAAJQleAAAgLIEDwAAUJbgAQAAyhI8AABAWYIHAAAoS/AAAABlCR4AAKAswQMAAJQleAAAgLIEDwAAUJbgAQAAyhI8AABAWYIHAAAoS/AAAABlCR4AAKAswQMAAJQleAAAgLIEDwAAUJbgAQAAyhI8AABAWYIHAAAoS/AAAABlCR4AAKAswQMAAJQleAAAgLIEDwAAUJbgAQAAyhI8AABAWYIHAAAoS/AAAABlCR4AAKAswQMAAJQleAAAgLIEDwAAUJbgAQAAyhI8AABAWYIHAAAoS/AAAABlCR4AAKAswQMAAJQleAAAgLIEDwAAUJbgAQAAyhI8AABAWYIHAAAoS/AAAABlCR4AAKAswQMAAJQleAAAgLIEDwAAUJbgAQAAyhI8AABAWYIHAAAoS/AAAABlCR4AAKAswQMAAJQleAAAgLIEDwAAUJbgAQAAyhI8AABAWYIHAAAoS/AAAABlCR4AAKAswQMAAJQleAAAgLIEDwAAUJbgAQAAyhI8AABAWYIHAAAoS/AAAABlCR4AAKAswQMAAJQleAAAgLIEDwAAUJbgAQAAyhI8AABAWYIHAAAoS/AAAABlCR4AAKAswQMAAJQleAAAgLIEDwAAUJbgAQAAyhI8AABAWYIHAAAoS/AAAABlCR4AAKAswQMAAJQleAAAgLIEDwAAUJbgAQAAyhI8AABAWYIHAAAoS/AAAABlCR4AAKAswQMAAJQleAAAgLIEDwAAUJbgAQAAyhI8AABAWYIHAAAoS/AAAABlCR4AAKAswQMAAJQleAAAgLIEDwAAUJbgAQAAyhI8AABAWYIHAAAoS/AAAABlCR4AAKAswQMAAJQleAAAgLIEDwAAUJbgAQAAyhI8AABAWYIHAAAoS/AAAABlCR4AAKAswQMAAJQleAAAgLIEDwAAUJbgAQAAyhI8AABAWYIHAAAoS/AAAABlCR4AAKAswQMAAJQleAAAgLIEDwAAUJbgAQAAyhI8AABAWYIHAAAoS/AAAABlCR4AAKAswQMAAJQleAAAgLIEDwAAUJbgAQAAyhI8AABAWYIHAAAoS/AAAABlCR4AAKAswQMAAJQleAAAgLIEDwAAUJbgAQAAyhI8AABAWYIHAAAoS/AAAABlCR4AAKAswQMAAJQleAAAgLIEDwAAUJbgAQAAyhI8AABAWYIHAAAoS/AAAABlCR4AAKAswQMAAJQleAAAgLIEDwAAUJbgAQAAyhI8AABAWYIHAAAoS/AAAABlCR4AAKAswQMAAJQleAAAgLIEDwAAUJbgAQAAyhI8AABAWYIHAAAoS/AAAABlCR4AAKAswQMAAJQleAAAgLIEDwAAUJbgAQAAyhI8AABAWYIHAAAoS/AAAABlCR4AAKAswQMAAJQleAAAgLIEDwAAUJbgAQAAyhI8AABAWYIHAAAoS/AAAABlCR4AAKAswQMAAJQleAAAgLIEDwAAUJbgAQAAyhI8AABAWYIHAAAoS/AAAABlCR4AAKAswQMAAJQleAAAgLIEDwAAUJbgAQAAyhI8AABAWYIHAAAoS/AAAABlCR4AAKAswQMAAJQleAAAgLIEDwAAUJbgAQAAyhI8AABAWYIHAAAoS/AAAABlCR4AAKAswQMAAJQleAAAgLIEDwAAUJbgAQAAyhI8AABAWYIHAAAoS/AAAABlCR4AAKAswQMAAJQleAAAgLIEDwAAUJbgAQAAyhI8AABAWYIHAAAoS/AAAABlCR4AAKAswQMAAJQleAAAgLIEDwAAUJbgAQAAyhI8AABAWYIHAAAoS/AAAABlCR4AAKAswQMAAJQleAAAgLIEDwAAUJbgAQAAyhI8AABAWYIHAAAoS/AAAABlCR4AAKAswQMAAJQleAAAgLIEDwAAUJbgAQAAyhI8AABAWYIHAAAoS/AAAABlCR4AAKAswQMAAJQleAAAgLIEDwAAUJbgAQAAyhI8AABAWYIHAAAoS/AAAABlCR4AAKAswQMAAJQleAAAgLIEDwAAUJbgAQAAyhI8AABAWYIHAAAoS/AAAABlCR4AAKAswQMAAJQleAAAgLIEDwAAUJbgAQAAyhI8AABAWYIHAAAoS/AAAABlCR4AAKAswQMAAJQleAAAgLIEDwAAUJbgAQAAyhI8AABAWYIHAAAoS/AAAABlCR4AAKAswQMAAJQleAAAgLIEDwAAUJbgAQAAyhI8AABAWYIHAAAoS/AAAABlCR4AAKAswQMAAJQleAAAgLIEDwAAUJbgAQAAyhI8AABAWYIHAAAoS/AAAABlCR4AAKAswQMAAJQleAAAgLIEDwAAUJbgAQAAyhI8AABAWYIHAAAoS/AAAABlCR4AAKCs/wu66kcuGlOX7wAAAABJRU5ErkJggg==;" parent="1" vertex="1">
          <mxGeometry x="-780" y="-1125.5099999999998" width="838" height="797.5" as="geometry" />
        </mxCell>
        <mxCell id="fVgRkVASK4dvTecgE4iH-37" value="" style="endArrow=none;html=1;rounded=0;strokeColor=#C2C2C2;dashed=1;dashPattern=1 1;strokeWidth=3;" parent="1" edge="1">
          <mxGeometry width="50" height="50" relative="1" as="geometry">
            <mxPoint x="-395.5" y="-770" as="sourcePoint" />
            <mxPoint x="-425" y="-810" as="targetPoint" />
          </mxGeometry>
        </mxCell>
        <mxCell id="fVgRkVASK4dvTecgE4iH-38" value="" style="endArrow=none;html=1;rounded=0;strokeColor=#C2C2C2;strokeWidth=3;dashed=1;dashPattern=1 1;" parent="1" edge="1">
          <mxGeometry width="50" height="50" relative="1" as="geometry">
            <mxPoint x="-490" y="-770" as="sourcePoint" />
            <mxPoint x="-456" y="-812" as="targetPoint" />
          </mxGeometry>
        </mxCell>
        <mxCell id="fVgRkVASK4dvTecgE4iH-39" value="" style="rounded=1;whiteSpace=wrap;html=1;fillColor=#3B3B3B;strokeColor=#FFFFFF;glass=0;shadow=0;" parent="1" vertex="1">
          <mxGeometry x="-531.5" y="-765.76" width="190" height="120" as="geometry" />
        </mxCell>
        <mxCell id="fVgRkVASK4dvTecgE4iH-40" value="&lt;font face=&quot;Verdana&quot;&gt;&lt;i&gt;Node 0&lt;/i&gt;&lt;/font&gt;" style="text;html=1;align=center;verticalAlign=middle;whiteSpace=wrap;rounded=0;fontColor=#FFFFFF;strokeColor=#FFFFFF;" parent="1" vertex="1">
          <mxGeometry x="-468.5" y="-765.76" width="60" height="20" as="geometry" />
        </mxCell>
        <mxCell id="fVgRkVASK4dvTecgE4iH-41" value="&lt;font size=&quot;1&quot; face=&quot;Verdana&quot; color=&quot;#ffffff&quot;&gt;&lt;i style=&quot;font-size: 14px;&quot;&gt;M0&lt;/i&gt;&lt;/font&gt;" style="rounded=1;whiteSpace=wrap;html=1;strokeColor=#FFFFFF;fillColor=#666666;" parent="1" vertex="1">
          <mxGeometry x="-458.5" y="-705.76" width="50" height="45" as="geometry" />
        </mxCell>
        <mxCell id="fVgRkVASK4dvTecgE4iH-50" value="" style="curved=1;endArrow=classic;html=1;rounded=0;dashed=1;strokeColor=#FFFFFF;sourcePerimeterSpacing=0;endSize=6;" parent="1" edge="1">
          <mxGeometry width="50" height="50" relative="1" as="geometry">
            <mxPoint x="-578.5" y="-715.76" as="sourcePoint" />
            <mxPoint x="-538.5" y="-715.76" as="targetPoint" />
            <Array as="points" />
          </mxGeometry>
        </mxCell>
        <mxCell id="fVgRkVASK4dvTecgE4iH-51" value="" style="curved=1;endArrow=classic;html=1;rounded=0;dashed=1;strokeColor=#FFFFFF;" parent="1" edge="1">
          <mxGeometry width="50" height="50" relative="1" as="geometry">
            <mxPoint x="-578.5" y="-701" as="sourcePoint" />
            <mxPoint x="-538.88" y="-701" as="targetPoint" />
            <Array as="points" />
          </mxGeometry>
        </mxCell>
        <mxCell id="fVgRkVASK4dvTecgE4iH-52" value="" style="curved=1;endArrow=classic;html=1;rounded=0;dashed=1;strokeColor=#FFFFFF;" parent="1" edge="1">
          <mxGeometry width="50" height="50" relative="1" as="geometry">
            <mxPoint x="-578.5" y="-685" as="sourcePoint" />
            <mxPoint x="-538.88" y="-685" as="targetPoint" />
            <Array as="points" />
          </mxGeometry>
        </mxCell>
        <mxCell id="fVgRkVASK4dvTecgE4iH-53" value="1" style="text;html=1;align=center;verticalAlign=middle;whiteSpace=wrap;rounded=0;fontColor=#FFFFFF;" parent="1" vertex="1">
          <mxGeometry x="-616.5" y="-730.76" width="60" height="30" as="geometry" />
        </mxCell>
        <mxCell id="fVgRkVASK4dvTecgE4iH-54" value="2" style="text;html=1;align=center;verticalAlign=middle;whiteSpace=wrap;rounded=0;fontColor=#FFFFFF;" parent="1" vertex="1">
          <mxGeometry x="-616.5" y="-715.76" width="60" height="30" as="geometry" />
        </mxCell>
        <mxCell id="fVgRkVASK4dvTecgE4iH-55" value="3" style="text;html=1;align=center;verticalAlign=middle;whiteSpace=wrap;rounded=0;fontColor=#FFFFFF;" parent="1" vertex="1">
          <mxGeometry x="-616.5" y="-699" width="60" height="30" as="geometry" />
        </mxCell>
        <mxCell id="fVgRkVASK4dvTecgE4iH-56" value="" style="curved=1;endArrow=classic;html=1;rounded=0;dashed=1;strokeColor=#FFFFFF;sourcePerimeterSpacing=0;endSize=6;exitX=1;exitY=0.5;exitDx=0;exitDy=0;" parent="1" source="fVgRkVASK4dvTecgE4iH-39" edge="1">
          <mxGeometry width="50" height="50" relative="1" as="geometry">
            <mxPoint x="-342.46000000000004" y="-706.76" as="sourcePoint" />
            <mxPoint x="-303.5" y="-705.76" as="targetPoint" />
            <Array as="points" />
          </mxGeometry>
        </mxCell>
        <mxCell id="fVgRkVASK4dvTecgE4iH-57" value="" style="curved=1;endArrow=classic;html=1;rounded=0;dashed=1;strokeColor=#FFFFFF;sourcePerimeterSpacing=0;endSize=6;exitX=1;exitY=0.5;exitDx=0;exitDy=0;" parent="1" edge="1">
          <mxGeometry width="50" height="50" relative="1" as="geometry">
            <mxPoint x="-342.46" y="-705.76" as="sourcePoint" />
            <mxPoint x="-303.46" y="-732.76" as="targetPoint" />
            <Array as="points" />
          </mxGeometry>
        </mxCell>
        <mxCell id="fVgRkVASK4dvTecgE4iH-58" value="" style="curved=1;endArrow=classic;html=1;rounded=0;dashed=1;strokeColor=#FFFFFF;sourcePerimeterSpacing=0;endSize=6;exitX=1;exitY=0.5;exitDx=0;exitDy=0;" parent="1" edge="1">
          <mxGeometry width="50" height="50" relative="1" as="geometry">
            <mxPoint x="-342.46" y="-705.76" as="sourcePoint" />
            <mxPoint x="-303.46" y="-683" as="targetPoint" />
            <Array as="points" />
          </mxGeometry>
        </mxCell>
        <mxCell id="fVgRkVASK4dvTecgE4iH-59" value="1" style="text;html=1;align=center;verticalAlign=middle;whiteSpace=wrap;rounded=0;fontColor=#FFFFFF;" parent="1" vertex="1">
          <mxGeometry x="-323.5" y="-751.14" width="60" height="30" as="geometry" />
        </mxCell>
        <mxCell id="fVgRkVASK4dvTecgE4iH-60" value="2" style="text;html=1;align=center;verticalAlign=middle;whiteSpace=wrap;rounded=0;fontColor=#FFFFFF;" parent="1" vertex="1">
          <mxGeometry x="-323.5" y="-722.26" width="60" height="30" as="geometry" />
        </mxCell>
        <mxCell id="fVgRkVASK4dvTecgE4iH-61" value="3" style="text;html=1;align=center;verticalAlign=middle;whiteSpace=wrap;rounded=0;fontColor=#FFFFFF;" parent="1" vertex="1">
          <mxGeometry x="-323.5" y="-698.26" width="60" height="30" as="geometry" />
        </mxCell>
        <mxCell id="fVgRkVASK4dvTecgE4iH-64" value="" style="shape=image;verticalLabelPosition=bottom;labelBackgroundColor=default;verticalAlign=top;aspect=fixed;imageAspect=0;image=data:image/png,iVBORw0KGgoAAAANSUhEUgAAAPAAAADwCAYAAAA+VemSAAAABHNCSVQICAgIfAhkiAAAIABJREFUeF7tnQe4dEWVrhvEiAlz9v8dc04YQZARMSvmMBjGNHq9M6Ne76MzZu/ojDo6OmavjhkRxYABjJgxo2KOGMAEiBhJ537v/vtrvl6ndnefn3C65+56nupdtWqtVatW2FW7dujRaEiDBgYNDBoYNDBoYNDAoIFBA4MGBg0MGhg0MGhg0MCggUEDgwYGDQwaGDQwaGDQwKCBQQODBgYNDBoYNDBoYNDAoIFBA4MGBg0MGhg0MGhg0MCggUEDgwYGDQwaGDQwaGDQwKCBQQODBgYNDBoYNDBoYNDAoIFBA4MGBg0MGhg0MGhg0MCggUEDgwYGDQwaGDQwaGDQwKCBQQODBgYNDBoYNDBoYNDAoIFBA4MGBg0MGhg0MGhg0MCggUEDgwYGDQwaGDQwaGDQwKCBQQODBgYNDBoYNDBoYNDAoIFBA4MGBg0MGhg0MGhg0MCggUEDgwYGDQwaGDQwaGDQwKCBQQODBgYNDBoYNDBoYNDAoIFBA4MGBg0MGhg0MGhg0MCggUEDgwYGDQwaGDSwPBrYYXlE2S5JkH9tuyjPXqJzqLudd9xxx0fusMMON1X5nGtraz897bTTPnWOc5zjAarvo/wXwd4r2KtVPl55q/LvlD+nfKLyZqTzqdMbK19c+SfK59QYHqYx7KvyBZQ/fuqpp75asJsJdkXVd9QYvqgxvFzl45Sxzdlpn1XxB6nlzEmrEsA2jOXFKVrGasEW1VSLtgVblN8F5dgPl2PfXgQ7y7F3Uf1qixALd0103VgVDEcq//OYDti3lb+rfFYExlbxvZYyJ5xTdXJ5isS4CX2nTNRnJcl7lOiOFg4npY+p/hKVCegzO50R+5zZsmwKv85JljydlUZK3i4v2l/i7SQdXlMBeks57G1V3okZSfXrVN2qfURsciSN47Qru83l2j6Gnyq8Jysonq/6KR3hGU87isXDFLAvlTyMZSpVuVJmEHMsiWsmkvV7gnPiYbwE9CdV/JrySVMdbbyyqK02znmgONM1sOjJpg+vD25BaTdOlvsGgtN7abz/TjvttDYrKzjWyArqtfvd735rt7jFLdbOd77zrZ3znOfs8uMe97i1y13uch0P4wLv4yk+/6r+z6+881iOPjlnwVkis7R/VKsf5Kjwc5/73GsPechD1v7qr/6qazvXuc7VyX3f+9537cIXvvBE9kpX6wrkD6nvC41ln2ebWWOY19bi3Wdfw1s08/oZ2rdDA32GgNVGjLARXHjfRM79YTn+j5R/pvJp1UGz/nd/93drD33oQ9eucIUrrBEA5znPedae/exnr73xjW/sjsB32WWXtbe85S1rz3jGM9bOf/7zd8HxxCc+ce26173uJPAveMELdmXa6FP5JOW/SAauOTeURPMs0f55zGMiPycYZKSPnXfeee0JT3hCF6z0u/fee6+9/vWv74L1vOc979qDHvSgtde85jUd7BrXuEZ3crr4xS++duc737mju+IVr7juBGC9IL/wf4EOVWZGvvWGBrDNvhu1Gyfd/1ZpowrY7MFXeX0dCLzvurhPZtP0tffBHymHe5FmkHMnAktHBd5or732Gl3sYhcb/fa3vx1997vfHf3gBz8YyUlHL3jBC0Zy+tGf//zn0W9+85uRgngkZ+9YnHLKKaNf/vKXo8te9rJd/Xe/+93oVa961eiRj3xkh/e2t71tdMghh4xe/vKXj/7zP/9z9M1vfrMuvU8T2RHaULq5jvOWpTtJ/oOFd1uNYcqhGcPTn/700Stf+crRiSee2JUveclLjt797nePtm7dOrrOda7T9Usb6QIXYB9LHZ50UjfWy1/+8p0OFKSjl7zkJaPDDz98tGXLlpECeaSTwEjyjb7yla+Mvv71r3d0mdT3KcpP0/L62bVtXJ9l40VtuShejwjLB64BsXwSbpNoEcVvD07SzHKQiV7k/EfLiS8NQM42FUg4t2aeztFJBIQD9jKXucxItAvrF2c3/sknnzx685vfPHrwgx/cBcszn/nM0VFHHdXx8vWo+uIE9iXR7a7jn/s6Es/3qu0OopvYHlL6espTntIF2gEHHDC6+c1vPtLKoGPDODkJLZJgC7+f/OQnowtd6EJdQMMbOOOgj5/97GfrWI3pTpP8nBX+qNyyZwu2jtccQItHCzaHzXI0T4y4HOLMlSIVbdnP7N3Y1Mk63nLG4+Rsu+CkN77xjTtHJ+HgOKqWn6OrX/3qvQ4PXcROR2unnzd60/3+978fPec5zxlpiTu65jWvOXrHO94xIVWwvUb50QLUmVgi7vhc8Xic8g7IwYx561vferT//vuPtMwf3eQm3YbzhpPlt3we47ZzyuknmWOPPbYLbOCsOjiyUnnTm9406VPwi6jCbbQzM6VNZwXrOnufmUKcFbzW7TieFZ2cSTxRfAbtWaXsFl8bHcc/Vo66C876jW98Y/SABzygWzIvmuzkiW9Hn8fDeATuP/7jP45+9KMfjW54wxuOjjnmmNGnP/3p7kSgIH2oAvh94vXOwu9manu8YbqeHj3qUY8aaeOpA21v8EJrufrGYfhFL3rR0UUuQnyenl72spdNdt+Fx8rhD1MIsysTuyBGD2rF6cPrIV9u8OJrus0dh41QlZ9BvYiEPgG0cN02E0ez7FYR3wwGLAmZVTwLt5iembAMfu1gd9fMzPzXvva1R1/84he7a1NwlP9awfB69e1guIDk/qTg2y5a1cAJ4CpXuUq3YmDZfGak1slpFl9OgMz+Xp7rxPNB4Z8+Hc8i3tZWbVXrlcO89oq/9PXFLmw2fxgO3JR3njForzj1BJAjc9ssnHMpMP7WRDgsGzK//vWvmxraqEM3mQSwNcPRBxtd2rGeLM0Fu5iC4m+C9I6Cddft8Lj97W8/uta1eF7jzE0t+Wb1cOihh05daugkcwfhX3IWTWmrtqr1ympee8Vf+vqqBLAVyW6rgxJjOLcUPauthW++NegTlyepuPfaBcIlLnGJke6Djr70pS+1+E2Wlmw8MVufFclBw9L0Tne606RPBeyT1B/b3BdSYPy7+2bG1W2eddfhi8i2yAkJedj0+tOf/jSRpcX7j3/8Y7eZxU48MkW6fgt/gLU1sEoBnIHr0bSCrQVLfM/MHnsffsJdPkGMJk8/7b777t1tHd0fbWt3DCXISQcddNDo29/uHkjqTYsESR/xPe95z+5WFYlZWId7K++h3M2+JK572RnenkRwzpKPHff3vOc9o6OPPrqTYxYu7c973vNGT3rSk7qd9Ug8/53J9lpU5D57mt7ti/Cdx2tRmc4yvFW5BkYBKLMuoc/IkqjSVmO1DHyinPI+ypfAObn3yfXjpS51qbkGYoea3Wno9MDG6Mgjj+xu0zjg5jIoCK3g4FryD3/4QycX7co86XRVwa/hmfrhD3/4hm5nzZOLlcXnP//57jaXHkYZ6Qmz7tiSL3nRzk60HmQZnXDCCR2+ZDxB+XHCO1U57dGyDewyGKuota3FAx9o2dm8q4/UPja9vkoBjLJmKbQaLJVbjddS/CxDTgwqB/umnO1vlHnzpls+80DD1q1bF3JaNp9ucIMbjDiygfOJT3yimxEvfelLz6VvCV1hnFC4tmQZq3QZyXll5XMQIFz7Xv/6279CzaD81a9+1d2+4iETPUo5uve9793dlvKGlOUyTdLSxsMsz33uc7vbSrRJl9wD3k9NfsqjZY8+G/fBJ2KMCy0/YFKY5VfmsZTHVQvgquyWQVLR89o3apQd5KB7yOH2VSZ1t0W4hUMALzIT0yF03FLh1g0z81vf+tbRJz/5ye4JJmZl2lsp4X3LWZbrn/3sZ70jvaNoOhtD+9jHPrZeb7a6mQkj4FhBkNkF13PR3YMrem57Jl02MvNyH/vnP/95N1tzvTyW8XCN6/CFGU3P0hsgm0Jd2eDtdLa9o94kOsvbp3Tas63Wzwyx91HQvY/AYJZ79KMf3QUiwbe96S9/+Us3m33kIx/pTgh3vetdu4dE2F3envTa1752dNhhh02RwuvVr371zI2lvr44WfDk1/ve977u8cirXvWqo/3222+0ZcuWPpK5cHTHRhZPZnErbjwD31eEB84l3n6Es8Iftl+aM4Fy1WZghpwnnVa5dVICZriPns3n8ch2aL6v4H2g8kWY1diU4pZMfUBhI7Yh+JnFuJ/MvdEPfvCD3dIcnuzS1mVpH2/P0FwD+zrYuOz0sku90fSLX/xidOCBB4700kJ3rcqDKwTvGRkvMnDS4nnvH/7whxbpWAXxgxvyVbs1UKZs22f/pFuEJ/gtXq3+Nw22agGcS2iUe0Zm21mzuI1X++ho5GjfULDcS/mcOOLnPve5LgD9VNP2WpMnrG51q1t1y2sezPj4xz/eBTTXtTw55QDthOtZZtPGyw41gFnicvto0cTsePDBB3cvJTD7ct3ObMnDH4ucUGbJx271i170otFXv/pVX/+epOvfB0m22Vv064VfNMDAywynDGK3re9hySGrEMBppFbQtYxYYVmvbTZRGrTVT5qS1wjvIiftXh9iOfipT31qdL3rXe8MBbGdnrd3eKvp+9///uh73/ve6MMf/nD3zDD8FwkedoV//OMfT7kes/wiAcxymVWFXmvsHlJh6c2tJ25RzbvObQWtYdn2rGc9qxuXk/o8SvlRUwL3r7RA67PhvLbSRVet+yotnKWFrUIAW3l5lpwVbLTVADSt2/p49Rkq+9tm9R13fIQDmGtB3hBiWcmmVMuR+xhPBjeeUaElEyzcZ4YnMxXPPfNKITOgX0OsPE3LLR1uJ2Xi7abddtut2/3uS9yPZXOJ1we5PcQjmk972tO6a90MxFnjswzZR9ICZ8+AcX3ta3yUo1vRHK/84oZc1nujad0lUQvHsD4+9odZtEvdtioBvKii1wWatG+Yg3p7eEE75QRyyqsr3xznZHZk2frXf/3X3QzJLEaqjm7nrvCJl4mXaU3PbHyzm92sC2LeE2am/+lPfzrSi/5TMyI8oeXa+aMf/eg6p6ONmXmfffaZzOIpB5tT//Iv/9K9lwyc3WV9OWRqI819pLzZUba3xmgY8rHzPr7VBYsPS76365gP11Q7UXfu1DPOaZtWu/lwbF2CJd9app+lTqsSwKlElNxKaby+GRg609djbbNjJK/Jxpcc7nA55G7K3Uuzxx9/fHdPl1mL69Wa7LwZoIlTg8NtwOHHbMy1KAHGk07cKmI3OB+aoI17q8yeNYCoc7uGWzi8gugTDdfwfCiAJ6hoA/7kJz95dKMb3WjqgY+WfLWPOuYcA7isAtgMe//739+VSQribyrfQ0XuJaWuq32ot9phU3ENM75pa73yhC6T+Vb40tRXMYBnKa8G7izc7WlL/nxx8SA55n7KXcQSAGxosZnFww2LOrgFAd80eSToWVKzBCbAuEZlk4kg5tp269ato8985jOj5z//+d1jiX39Av/Od74z4iGMK13pSt3DFHwphNUDfXAPmq9w8EBGi0eVr3UyApbX6dAAY/Xwwhe+sOvLz4UL/lsF7w01/mO3xxgDTVkWrpBCmAm7R41K6oO3zrQ+u/YFfS63Ko75yT93eL+ue2+HkxK4j3/847vg9X1hB0I6u53axzqIWk88ysyWb3/72yfLbd5HJigX2eCCN7Lw9BdHXytzEmDm5UGQKnNLzopTZaaedPTFCoCvfXCPmrryFzUT8xWBnBk7ESEPuNkvCuu6N1HwMwj+9pU6y6atW/0F280vruoMXAPKBrPhq2arkVr44FSjGy+PtXyaHPXuyjuwHGVW5IksviXFhtaiCWfP3EcHztWudrXuczXsEhMIzMYOqD66hIPLLOiZ8MpXvvLoqU99ajfL05YnG9NV+Vo4nWJiFZF9coLhvi8rFJLoSf+u/FnIEjfKFe56tVXCW6xadk1faflTi8/SwRb3sKUTfcMCVWeoDGifZcikz/J35LRXEu11dNyBZTSbRWw6sUxlpvPMmEFQO6feFzzGzXZ485AFG1pnJBG0LL3r7nlL1iof9UzZ7jY2+FgxvPjFL+6W7GOcNS2d36fgfYLot10Mb2PU2mSqw7OdODr32c0Cmgb+85J5zsNbivZVC+A0SCrQ8OoAfcYwvnlk3TRJS9nLLmh89gZ+mhzxPXJMXvjdQ5nnj7unlngQgwBjF9kOLdyUe1KuwdFECiB89Fna7qN5ZySxmbRly5bJFzE3Il8N4CoHsy2bat/61rdy/HyY/kXKjxA+Okt9wyL1nvUKd5u7pT3Lric87Zb8qgzZb7BdvuKqBXA1VjWSDWQDZLS0DFydIk8A5pHGrNEHPTCC+BPKv9dsu48dm9sw97///SfOmw7fcn5gffB0HXA+9KEPdcv1Fv5G3YyTzG1uc5umnLXfRfozDi878Ez3EUcc0S3zSdLR8zX7/m8V/cpg1elUl6rYbsarNqv11vD7cDwjJ+8+n2nx3XRYOvWmCzNDAAeKUfrqCXe54lYe1kF1pErfxzvFPrcC+Fjl8zGT4chcq+66667dq3xsNrGc9ixHu/EMmwg3bmvphGXpP/3TP02+gdXC2Shs3333HZEt0zz6xMtxQEewchnB/V7eXuKywjia8bcK5ah5/MftNbBsK5ppS9tV+2QXiZu0Fd4Sq/pFC2fTYKmQTRPiTOq4BlyyTeP2dQcOue5ut/i2HMd4D9D15KvksJNHnhykfBv6MY95THebphWwCFbhVVh2jXkJ3u/R1vbtrXMNjGzc//UMmrJUWCvQgb30pS/trv894wbdyeL3D5p9X8EwQ84+26SOjZ64rXIfL+hb/Axf6iCdZdNVW0LbCGnQWeNLfMqVPmkXMf48evgdKUflf394v/CKcuDz4sTk293udl2A9N3usbP3DYgXFLhvy3u083D7ePTBCVZmTWbLfGEh+5nXJ+28iMEjkpxoqIvvicrvUOA+Vkeetpplh1n6tejGyWNfAFacWX0n/0Xk6FPl2QpfGUEX1Err3i1jXOSMX7to0QFrzdBpfPfF8U6a2d4tR+6utXh0kPvDfFqHp6u4b8wtJza5Ws8oEwA8mMHH33h6iWvevuCvwp+ROh/ru/vd7969YeW/T2nx49qWp8N4MoxbaBzJyD0OXvYGHqFx/5fo0UfVqWFm32rPNrdXOnASVttrG/j2fdrsN7P6txxLdfQglkqoOcKkkmvZpBglUxrLNDl242NIf/myz+iG55G+Wnz5Q+w3Kd+ryNNVcXJe02PpyhKWACdg+ecF/7cSX+oggM+OwE0ZkYXXG/lwPC8fcKLhJENGVuThSyRveMMbJl/UqGNkJaJr3rsKvu2TGxVhfUBXDHRKTptUHOpV9322Ma3xHbjVXypeq8+lgKUTL4VACwhh5S+AuukoyHoOOfs9dXyaAvZKOp5Tx07vHAgSEktYMg9X5Fcax6gdTl+CjgQuwcVmGYHGcpb6cccd112Tch8W3u5rEd7wTf68Xpj3jOGX8gr3JOWjRMZu83/peNZ8T3ebMlbJF7ZJfCb/rlIAe8ufs3GdKa0Ww6uaEs6Yya2zep6Rs7/kV/tO3rX/dLBLyvH5IN70f4tUSbejToDxgsJNb3rTydNfwAjQeoQ9/5jIW01c757ZSf39TrPuTcX3u8p5udEXbFVntb5REd1P39H8aj998m20/7MVf5UC2LL2LWGtuJYhcpx1aVwN3TLAIjh9/Z9bgfsSNT5IAdX88ptnOJalObvxkIXf2umbLfnKpD8q54BtDWAi3LbJv1uu848SH/vYx9a9O1zpLV/lUfFcFz5nhndK9ofouJH/OqosW7aciKFCXSpX+opb22fxr7hLWU/HXkoBx0ItqugaqJAb5uucRXlVfVQ+bm/p0H1dR0H5VuVrVmYEBctRXgn0/+ryWGMNYJbUBFp9x5dlMv8s6E2mRYO3BiMnCL6O4T9HmwxKgc61LxttfLsauUjM2ryUwOuTbGDxjHNf0kniB8oPVDvPO9eU9nBbtY1xaK+2TXuYrtqo4lCvm5CVt2XJvqvsS1NvOd/SCNcjSDWS0YDbkC3lp5HzzG24DdnXRntdPvfRgnt7Of1rFFhTX30ngNjlZfOKjaF8a8nBlcFImY/A+yUAGPOSP9/O4s0haOpSGZxZqRXsBOJ73/veCT8ClqfIah/w9WqAvnmUk9tavFjB1yWznbJwjtdJ4u9VbP1pWeqvitxnL+OlHyRu161yyzZJO8vOFa/KtjT1VbsPXI1XFd13xq4Kr8adxbf2kbzsRJX/vgqAN8nRL+oGnJ1g4J8LyNxGWmRnmd1oPjfrRNDz2GPrM7YOrCrMInU203gfmHvNJJ8Y+OD8rMSqgY8KcGuMIxtl3FKyLDpyH/wO4vcL8Tmi8OrTn9HcnvairdZniWj8Fg58+nxhFl2L16bAViWAq6H76gm3cfoUm+2VHzTexHJb5W0DZzvlayp43ymn3cUdEwwELI8q+uPvs4LNbezu8syzP3wOP74Z7df+egemWXsW/z46gpglNW85Qc+szGuR9V5wH28CmFcd+ZtTltjG03En5dtKD4eq72PG/Ve92h5Vz54pIbNNfKI2DW2VLtvcnjB4JR/qlcdY1OU9WCHLK+HpkqHclLcayJgV7rqNk+0Y0Bn6xGnBq5GzT/DPqeA9RM46NfPi2HzVcdEPtRPwXGvyNUovS4Ft3bp18s8K1GtywNA2q30WHS8feHaHBzLwNY1MlXcEakfLtTkba4knnPNINx8TH3STgQJr6jmgasOKQ3sNQOhbdNBWP3d/LV9wXxyXPtWBLavADiZvQLhuo+cx2yoe42vBgKcTGSfxKdO/+6q8uN/7AgEvT4MTG0B3u9vdpq4bO8JGAJqGNl5F9EyYvIL1VJEgmsWzj67KAo98KowTCdfGfvk/+eQJo/LnlhazcQninaWjlwqXx0yrnWBhG8yyayfyOIPvesLTfn34tf8+mnEXy3lYlQCu2suZMM+ihvsM7bbEcZtxOVoPeUy46Q1LHoZdSs75P+zUCEyZL1V6Z5l6KxvXtFzz1u86g+OX95OHaSuPef202g3zrSt4kljC51ckjVf7rHWu9XmYJJN0xF+eXlfZessjqLN0TFvLtsmjZV/DOhFL39mn+ScO7UubEHgVU86EdbZkPMBytgaWtw/cjqGA15nV9TrjGzdpOlw55r/RSSa+msE1JLNQXwafgPBMxX8Ic3vGwWx+1FnKckuJZH5ZngXr67/C2VWu35Smb2bgN73pTd0G1bw+3c4mHbvlNYnfvzKEcU5dL1K27ZLe9nBXlU+1W7anDyRenZHrMJai/t9xEwvFL5IwnHEpk5LWsHoEr8IuKWd9tRxz6h/O9tprr4Wve1mq8kH13PwZyzQ5EEj8l9CWLVsW4ts6CVSetf6ud71rahc525mZ+aol960X/V9j8DjxMC4nyXV5nTgOUP24MQx9OgOyfickKmCb1LvrFWb6xDesr4/s3+VKb1mW6rhKAVyVX+vVSNnutsTJcg3klhHTyDaiYbtpmfygtCxfpuQb0V0nZelsmPF5eYF//uOWUQ265EmZJ6h4FJLAqMtT47o/z+qVR+JZFpbJvPE07wRCEHOriXvZre9fm5/HwRG8/KyOYPyz4zeE+yVldEjKgHGZFSJlrxSNC34tZ0D32X5bT/0ni8rT+Et7XJUATsVvrzJrUDpok3fCspyGrXTcz32inJLvG08SD2qw+1xTDVDumxK8ddla6bJOEPFCP5tc3Pqpt3n6aGvf1LlVxYMiPFLJiaTitHhxYuCvXjiJ8EQYCbo+Wv4ZkZk7n70Wrtis7V/4o+eWDQxzkLaOyYp243TilbrbS/frTiK1fenqqxbA8xTYd6ZOx0hjOjCr49jo1fgtvPPLGf9Neeq+L+/45jeW7eA5K/qPy7b3pQICDh7MiH7LiOtOsvtzUNEvge/XFXlFkfd5+TeJY445Jv/mZJ6Ou3b4ca0OT+5tzwpg2riG5oTjJPoLKb9W9ZPGMHSb9nA9Ybln4w0nyI2T7QkjYI3vk0HyN13LfyYyL2Nh+/+V+uwdjY2RveZZ2HA2IZxMYzzqaTzwEkYdA8Ij+8szufmbjiMBPHXriMDlni+O64DNwMXpv/zlL3dfrnCA0XkrJR3tFZ86rwoSjOCSmRn9/DLBDIw+CSKCnnrlA4wHRKCz7CzX2dTyX7JUGup8PocHPng6jHFbRsttHWzdurWT0Unwi6vMm1m/HcNsG6Ok3tOW2T7hN6Nge/rY8iW3WYbErXLN6Orsb1qVAE4lZtDNUm62zSun4bBC5dtXB34ZOePUW0a8AMCtoxp8MGYXl2tN3tGtAdF1PA4uHojgXwjZxeZ6k0AkkFg6EzAELQGWPCiT6cO7xS2XMo37YqnPioGZ1AEPnYOP4Gepzx+nMYvmCQAcZnBuM/EVD//jg/u1Dri3XOhY/V1N+QchY5+eW8MAt56A8wTesnnln3xrW623ZNh02KoEcA3aaris+wxrWDUE8EqfOIvQGx/cde/31pnIAcPnZj7wgQ90Rs9AsRfg4Hz4bo899ph60Z92BxN/9k2ZZTdvELGENn/zWfTISeKOd7zj1N+Vtk46nIw4kYBLMDOGfMjE8vC3Kdz75d1kUvJivI3kp7LQp1c/iQaMNtuLY11luR06l21D6mmrLFf/sIDm775Nk3ItTXlVAthKtJGrUlv1hNmgNrINUHGoG+ZjOkN1MnC2rRvDpDh815ECksTMySYRM1XOQiYBxmYQD30wgyVt4jiIwacP7rHyN6Nsgs2acc0jj/THX42ywdTqz30lDf0SiAQyY+Exy3xCCxr+ZI0/X9t7770nY2n1D0xjOI9OCNZzBqZJbI9qE9rzcsft3VDGOW3esht4iVP7r3XLtFTHVdnEyiCapUDjpWEqLfU0+Cx+2ZY8J3A59DXkuPdLRIKQLzsSuHzpke9a+XniOltSv/nNb97NXA6mlkCVzjhcr/LIIn8tuuhONkv8O9zhDnP7o8++ftn55j+VWFXkv0OAT53bRiw9BGpSAAAgAElEQVTzWZZzsmG5z/Vy8tMJ4f3KvpWEfj0LUq52MqzaNgPROFZP8jH/lu2Td+XRMsfSwFIZSyNUjyBVVhuuZRBYGN941L054XbTui3P6haj0gP38moHBfD/UX5SlRkHJ6BYcvYFAbPZnnvuOdqyZUtHDl6dobPeKhvGDMx1KDNiX3+W8R73uEf3wXnjzeoTGtr75OMkdeihh05eunAfpuNygn9o4EST94JpV1C/efzCPx2QHcBdc9RtA+Ak1xNu/LRp4lZ+tNnuLqfP1Pau42VLqzIDL6q3GuRJl4a1w4Dvcu3DbYabnrrLuysIX6FAWKdH39bpCybge+211yR4a+cbrTPLcSJg+Tor8QmerVu3zkLZUBvX0Xxg4Pvf//66b2wxRmZeHlDxH5sV5tfSyYGt6e+M4baF9Zu2abX12a+FSxfJz7TpM632Denj7EbOM97Z3fdG+quBOa8Ob3AqHnA7h9sSz21Jn3iWeScF7t8raN4nJ21+52rW4JjRWDLj+K3koM/gryeCWocPsyo7154xK2/g17rWtSp4Uq88a92IFc6tJz5a39dvX4fiIxWeg08OPV047MdUm1Xd46/VponjADSfxK0wt0FDGd6Vf+2rbyibBl+VAEZBVrKVZYNU5VV4y3BpvHrWdV8tOPriW88vk/P9h/K2HScBcV478DxHZqbkurUvtfgAy8Bp9UE7O9gszWsCn53k1nW2+SZPYK0+4Fvh4F7kIhfpTg61LeVgtiaXfs4j+qcoHyhcnwyrDWEDLE++DDLrDkTbNruuCjGv7Kdl7+SxlOU6sKUUcmwoFOydQSvbBsxjtlU8xteCAU8HSWNOlRUcL5ezPUx54ig4JI7JvVSWxf6OVEuZ4LJptdEU3TVJHXA8d9z3Lw+8ZN9KfUEHz1n9us30jMsfA8h+aEemBz7wgaP99ttvxAksE7qUXu+qwzsF53Jkll0htU1sgz77u5sWfvpByyfS7lPyLlNl3bXbMgk3Q5Y88eRZ1HBgWTYORnGbjQ9elsExDLhpWO/xadin43CWDedk2Xqve92r23HloYitW7d2GzatxH8j8e0pWDiD1ypXHPpKmMWoRx704LozEzjcdmJ2rjxa9Sp7H47hHgObdtxiskzA6fO+971vF9zAec0SnfFmlZPgBPFVVOfvWD6po2220WPXZQ89bZVftXer3WIu3XFVZuCqOGZiFE/KM2XCcrYGz3XTUMdYHJOfceGVPC6hOq8MToIXRB6suNOd7jR5MIMgYxb0Q/7gONHGQw4cnWmDJXWXObpecSvcuInnf3twvz6y0ZV488pVjuRXaY17vetdb90sjD68KjEdb2uxG16X+9LFU8TrRsq2SdonYba7220rRKm0iVP5pQ8kXvpVDn2pyqsSwFNBIw3OqjuIO58aa7vCqNtwoJhfOoENRRv/+3uonGvy4AuOSPDmNadjmzZ/vM5MOALzU1qG26GpZ1C4brw8b4A3K/HoZcWpgTKLPmVLvCpfiwcnCTbTMjHbthJ4/G9yJo2TTxO9VbALKHug2MA2A911l3104FZ8twOvvmO+bvNxtpLhuARpVQI4DWC1tYyReLXdhkt4NVYLB563l1PxGZhJ4nOrt7zlLaeWihk0LKWzTplrRAdimciT9dQS1w3JC9pZ9PUkAY/63DSwlKXFs6+PFm4OoP7/sZ+PTn6UGRMba7vvvvuUrqTrKyk/WDxbl0HuyrbqhqJcAzF9O3GNb9tXPi3+hi3dcVUCGOPkGdF1w/KYbfUsakNjiMqjtnk2Zvb9l2o5bgO1NmyMV2chZsB8P7jOkMm/b6ZzALi9yuQ6bxy1EkFc+6He6s8B1uLT17/ly9UHuDz55X7ML8fPSqbqS7yeINxt//w2vSTuWI35tI7AvBR2d0njsmfr9INUkOHJY+nKqxLAVlwNyKrQ3Lxwm8+0Nkg9W4OXwZt0lHeXM039NQrPHxOMnolaxxrc1AnidFw7/KTD8eW14Xmk3Bf02T+8Wm86QXvCCSdMZO4GHTN5llOelLFPLuP7iG5YSjtx66rVl2Hg8inaMj5e0eSvST1Dcqyzas7QdGf7UzYdMGzvNvuQ/cJ8k7/b4LPUaVUCOJWdyrWRrOQ8qxovDWY801X66hAE3T3SiXEy/oXAs1DfMWnotAY0MGhr4FQ6480K/JQBfAK1JnDyXxcqX/MwnfvLfmmrush2l73bnLySf8rrMkEPnXnQjwKbv2Xtuh0f8wS+6AyJT0Cf18fV7p55zd/1ijcWY3kOqxLANpYVXI8tjaaBW2VgfYYzPmu/OyVzNmS8y1uDLet1ucrs20p9jg1uBkcNnBYvYOD5Y/CJA5wPCFS5+vjU/l1PeWfRZhsvN1RdWVbjoR8e8yxpd9XZ/U/7V9unbR2ksKk2T1gfv0rjvqpcS1Nve9XSiDcRJM+EKLWeGbNOmZzLqRxRthm3thtnixzrstnIbRI7YwYYOFnPP73ONtO2HNr90Oacfdf2VhvXv32vFsIz31hKWVr99cnYwk1ZeKEiZ1JWBNSTH+V6guJBk4LDu9Y3ULYtq7/a7mlH267a37iI2vIP8JN/pW+pe9NhVSGbLlCPAD4TWt56ZmzV82xsA3PsO8vawG6HfmpKwOH6bolYbjtg/cJk658NesY6tTw3TgZA3yxI37y6OGuW/cIXvjDpNgOo8qwBlrK2cGn32FkB8ECHk183rP1VnlwL15WK6rsKz7b0iglSfIF6y6Zpe+Omj1BOXuBQT1jlAc7SpVUJYAdXVXpVqPHq2RY8B2Y1uHnUkwBPBq17YLl1LZtC2Enru7l8QYPAcns6cx1Eq54zU1+7Pxw3C5enn+o1cp8s8JnFy22Vns/eZuK94EVTo7+rjmnzJAwIe9mWafe0PXjUHejp70mbvGs/i4q+KXirEsA2RFVuNZaD1Ma1kaCvxvMSCRy3+Wi+276ZGqZJp55VrgHs1+rMyo6aDpuwyhs6AqUFB0YbX/3ImS/EnhTB9SxdeWW9jxZ4iy7xeZTTYwHuxzor/1oHt54ghcPXPmuAdWKM+7QdE+Zy4vgEnfiU7TNJk7jjbpbzsCoBnIGZCreiW9qteJ69DfcSibrbpnDkPM1PDuUs2lduPYvM52bqDJyzV+VV6wwSWIsHX+Tgg3cZOC2lAAOXP+SuvGbV3XfKYPyUB971PrT/Lzj517G06mP5HWTYxpmmtFmW7RPGrfZt2b3rvvBPurEoy3dYlQCuM21fPeE+a/dpvXVWT9wd5XAnV2I7a4VnnSCqTkw7H4Lzf/3OCjS3JU7Fzzqz/SGHHLJQ8CIHtHxhkoCvcs+qu63KknC+M13bWdqzqTdrPJarsYLgYro12066HRdatp8FS98Hj3qFVT9zn0tzXJUA7uy7oIJr4Gagmo8N49nYZ23DOQL7ebXUvADGSQmo1k4wbYcddthkBq28Xc8ZLWEZAMahHz5p03D8PvYT+Ec/+tERH3g33xwbsL6xVrjpv/KVr6z7L2E64/KBfpKu8gAPPnUDTnjb/s1tm/3TTp6ZO1Jl2qrtaSNVP2/h2xf6eJjXUh3rwJZKuBDGyp1a4qrdBs2jcevR7BKe47VRgXU4cqbvTyGMgzNhtYxjMrNVRzQeszCfgm05cOVV+67t7O4y89blesXrqyPjBz/4we5zOC15CKg8aVQ+Gfj89Skfq+/Dz1cHKx/XWZ009MbndqrNXM8TMWzm2TzxK67rFqfW+8TeVPiqBHBVUp4lW2XD6hE+hjH2LNNmfRj+OTk2hpyk/OZUOniWCYg+R4bRpz71qcn//yaey+aVdegQxTCC9sADD5x6aIN255S5lmuwsirgW8/+i5c+2at8lol3nzkR9CXofv7zbYuZOt6ss6zPhO4V0J8WDHtgm7QZMJLb8ljLtqfxq92zXvmOu1nOQ3OTZjlFnZIqg2oqwMZYhmEMyhw9e5sRdRzCmxrAbTzT/Fw+9G052TVMxOOI/Pu83601PIOi3qYxTh5ZvvJusN9QMr0dmnqWk5YTAHJUHN6Q4k/VuFdd76dCT4BCxxNZzHYZkLyE/4Y3vKH71A8y+VnmGuw5Xj6Vy7eh6z3v1nhZ4rPc9yd96Dt5M/M2PoLwU/H6qrLtabukzdOuaT/ESLqsU7ZP2Eda7S3fAm9p0qp8kcOGseL66mkMlxOWis9280uDATtZjnZR5VubEEfjM6m8IpezB+3U+friN7/5zYUMzO0W/rWPT662/skwmRBwn/3sZ0cf//jHu79WoS/3f8Mb3rD7lM81rnGN7p8KCT7aCGLjceQWDe8K87enfBWDE82JJ57YdWNeyM8ONX9cRp+8mggfgo0TADSMD1m45s0TwaxBO1jRnVPqjzFxckmYaA5UfjviKTt4O3GjbtulnRNWy1k3L2A1W8ylPnowSy3kWLmWMQ0JLM/KrfEkfqVNnpTtBDYmZ/drKyC+LMeafH2SV9/4H6B0NjPif4/qJ2Xc1nfEuZmZCGK+HeUZlBmOgCHXXW1o+KoFrzXyxYuczSxXwvr6RtaPfOQj3S5xTab3SYB2X6O2xl7pax0avonllx3MnxPDO97xjqnHPNWmSfvU24jHYcqslNLOlTX1GuCG9dnctk5eLRj0S5tWZQY+MxTYCu5ZxrPhfiPHu7by5HusLAV5xzVnTZwT5+b/ijaaoGWJye41y1F2bMm//vWvuxmyBheOzzPZu+22Wzd7L5paQed/WGAGrA+fZOC6jxZs0f6Rm5Nf/WNyZnT+b7jId5jweQ8bO9gWGcR5sq1BZhrbPHERN3mm+OZvnEWHtml4qxDAaYRWuU95GbC13MenCZcjHSHneqTyRF/suvJxOn8BEudkI4iAawVKn5AtuIOkxYd+WDLzcbyKl8FV2+jH/OqRvxXlpXp2z/NvUlqyzYMhH0t4LjH41CyzrW+p0S96Y/nOt6Spc6Kq947F4xSd0B6ovrgGrrZzsLZsBSzxLW7CHaSVr3GSf4vXPBWcre2rEsBV2Sgpz5YtpaXRWvSGJR/DOBrO8bdyqj/pWvC27ghHxeFZxnKNyPUgt0paQdcSbnth/HuhP+VDX8iRgeu6j9mP8WgjpawEHf91xGzIamCj44An18u8K73nnnt2m2lXvepVu406PmDPCw5+JprZlmU/K4zWfXHxeqHyf4XsLVumrYxa7VztmXddqv/M47e9JjtL6XLAZ2lHZ4B5ldGKd5CZNXBfKyUs6Vs4lZ7r3tonOOeSk39Cx13l3FPtBHA6Pc7MrMZ7w8xAXL9ynQdOK7AswKyj6biGhDfJAWy6GnQOVONyzOA1z4RxTcy/HVZefbKZB0HKVzVydz7lY/z777//5Ims7DN56zLkW8p8OJvdtTyJdsNowJLcdtl2hpoWukXbgk1Tnb58r/ClqLccdSkECyGs5CpXH7zi1XrStXi0YOZxXjnoz+SY6/4T2Ag4Jn8TunXr1g6UQcIMzYsE8+63VoHNh+86M6u5XvEyYGpwg+ugtEzJJwP2Xe96V99/GU11CR9OXoy3/k2MAzQJmHEPPvjgKvakLho2rq4ogJ+Am2WLbkjKNVhbsOxzXrtxF8XrHc/Z0bAKS2gbimOdYTeqo1lGoS37avE+RU52KTlt718r8JlUvsqYieAgc03I5hO3crgW3MhSlZntNrdhU/b0k0JLwFa/Ds4M0r4ygcf1K68EJk6rLzbQ7nrXu677hG6eIJIHKxLuQbeCG/6aeflnhte0+hpgbQ3kNUEbY/OhDroMPsrI7qBLKYG1soM/6ZJPLq8Nh2/2Ae1BcsBTWmphNuJhio5ovMrmiMOm03LdfJ/73Ke75uxz5sqf4CdVfPhnX1k2jwwoly1TSz7GMG93m93rfffdt9uNz/FV+bJOX3yxsuKMx8U/MryhjLvaudoOdGCGZ5k2287+YLzK13XancwrQMtXTIGXT7rTJcogcrk+WWVsAtHLqloGx20tPrkc87UwMDsAsM8or/tqHE7JN50IYicHxwQQBe77siTmPm7LoZOGdn9IzwELrMXfvCrPrLvcoqdfrtv9KdiW7Oy83/GOd5zswPukAW6VL9vod8uWLS2WwP6i/H5YjLPx0l5pH9rBtY3r0fb1MX0B2vSfpE2/qP1ZpqU5rkoAozAr08pOA1Vj1Xo1RPKquDZOCw4Mw3+lWhBH5VaMUwaMnZo2O7QDkF3a2952srld2U7q3DutgZL8altf3fB57dzmaSXgd77znScf9jNO8ku5XLYOeBIrT3Kmlz5+ovLp3+GZXvlUUTIoJyIEktuTDljC074Vv+LW/pemvgoBnGfOViBmuxWbAQoMgySt6z5WHq7XY8df165vaVmw/itgzoZZTlrgXDPXvxhJHBw+l7TQtDI0BErt13XaW2Xzynaug2sCj5nX/7Rg/JSlBcv2vhOD6N487q9l7z7YRuwHe8+6ffyqvdNnqjqWor4KAYyifEa0vHn2dLsVmmfPWq5K7zNQpat1ntH9TWVGoGWATASK69RK0wmvdq4799lnn1ZzB8sgM01FroHoWS+Dus685lVnUDbYMsF777337u7fVprsxzTmV/tjM64m8f6DNrBeMoZXXWOjCutEUK5tk+5n0Jg26RPW6st8l+64KgFsxeV1C4q24t3ugGwFZuK7HRg6qLzsGObro/H+IADXwlMpd5XTgWvwQWSnTwZsbvnfCxPOI5o85piB6PbkU8vGoX/L47JlMk/qiZ+PVdLG5hO3ipKPx5HjSz6017rpc3wq81+s7CtYv9lsH23ZxMFWj0mfPCnDJwM/fSFx0y+KuMtTXZUAttLRXBrB8NO9b/21snEc/HXzi7oNStlGdDn7mCzBFKyvl3Nmv+teOGgFXJre5HnkT8LrywnQ8K0p8BykLtcAqTzdX+K53Ccf8PySJCsLlvjQ9fFxP1W+DFhoGzM7N39fJ3p0a1tUnVvPtZ1uk66PR/UB05kvx0rruoe2lMdVCOB6Vk6lp1IrHm0VVutTAThm1oJlP24/VMBfuAHnzK9O1MCqM08Gkdt85MGIqYEpoObdl03+ta/Ka4r5uJIy8PJEvtPMzjFL30X7aPEHBr2/CRY4zLxv66Gp9ko0n8h7SJvgVfD3puB9wFUckI1al74EVgsGvmkSx3Af3YaukiZ1l/z/oCA8Ohtbn8qx0/cFdAvOPd/6/8LHH3/81OZU9guPPCF0AxhvZlV41ilX+YDxXq7fgGL23XXXXaf4u7/sw2X6zjHVPvgyh19JHOMeqyPfvUK36Y+Uq03c7rYMcMrmYXi208asahsaHzGyX+pOSZ/wpSn3Cb40AkoQjOiA4uh6a6Y0LA1YYa7nscI8/lbftJn/Z42IA/MmUv4Dgx29I1B7purkkw7HQcXfjFQcvsRRA2KKqSrZZ6u/lCODznCORx555ERe/r83d6Tdf9LST8plXpbfR+D1o++CfUPkKMfLY9vaugdu5RnmI10nPnDbMhVOOWmhI5l3tbN5Gm9pj6sQwFZeGicVmoYyjo2Yhk6a2p48wHO7y7Xe8dJM8qlkymxV/1isOnPiuwyO8Qzjfqn/RA0Y7Xy9g5f8M1iSXw14823xh651MjjiiCMm1/K0X+UqV+n6rvJZpuzfPGfJx/PQyUu4HxnzqHbs2Cln8Lq7li9UGxrXwZs2r/bMeh3SUtdXIYDz7FmNZEPOMkCrzXxazoHBsp+KY3nA+4AccOp/Qz73uc81A6N6QQYFDu9sPJ6G4n3jTNDwxY/8ZG3yqWXTJm8HVx6NR3DllyW57mXnuSWfYa3gBkY7ycHKkY04v8hBm3D+opMg99RrQHXNkFPoaU87tHDSN8Bt2XTMfqrNdG5b6uMqBDAKbCk/Ddyn5KSrOOkcLTzz99EOk/2eKCd8YzLmm1J8VcMBMvEQOXCmVgDY2Y3Hu78OBMPYHea7WP5Qeg0U91vpUo7aRr9sWvGmULbx9Bfv+GYQ9o2nBc/xsPvMX7+UdIjqXANbtzRTrvZIWG2rPF2vfNKO4KQdKSed2wO8nMVVCeDUnpVt2dNQuUFhI1SDz6pnm8sJM/+JPJpBXiGnn7zcgNPywbdWYOUg7NytYDKMAGo9dshXLN773vdOdnTBr/3BvwVPPJf5VjXfpKqy+NM3CU++rXKn9PHsm+Uf//jHrW9evSJ0UnWb9jWabdHXZl9o2RGaDNrErXHgtjTZUpar4Esp5FjxKN/B63Iekd0bIX244FSaxM1NjVYfyR8jg3OEHPYgGDsREHx1wgGEo+dsZMc3PngZ0C7zaGbSZR/sSh9wwAHdVy0q/xqISVfl4AuUnAxaie9XmVeVb9YYEhe+bO4x+5ax8PGwDytX/buOrkmpc5d9tA2SpmU3YNU3EtZqo29wljqtwnehUaINxQnHht0e5ZqPjZI8ats8w01oNQs/Sc65r/Lky5UscwnAejsIpjXAHAzFwSefhe0ThOvJ97znPd1H4vjAHV+zNO88KbhP82c5yy0vrnf7PgsLvb8eWektT5/c7psjS31OEDk2wSXCqY8Xn3wt03bN4c6z8fbQzOPp/hfF6zPP2QJfhQB2YGWAeYmDkquiaWsl4BjcSynoKh+fIAwHP/tNWvrwCuaHcsiHyuHf4I5xXv6t4Ha3u133Aj8pndjlVjCbx7yjebDz/e53v7t74YFg3rJlS3dkF5sluL/nfNxxx3UPm7CT7WvoetJYtE8HqYPY48vxcEuNTTeu20sAP1H4X1a2/mwX2DgobUfrH3tV2xkGne3pMscKT1smX9sbfPefspnX0h1XIYBRmo2ZZQdXVaoDumUscLOdevJxG0c7RDpGOpdx3P8BCuK7KWCYiTt5CRz+eIwvafhFfyNztLPXo52dIKsBnvQuG5/d6aOPPrr7GxNfOzvA8uEJYBlQfTx9T7tPvr4ghh+y8JVOTi7Zl3T0EdG9TCjVfq7b1qn/LKe4aWPbjva0WfIzbdrX+G4zzypf9rs05fWvhiyNaBNBWgal0XCOmWubGRmHeis4zc/0yT951HbXMfjbFDi30nGLg5jA8WOQLKdr4DiYMqiMw2bVvEcoLVgesw8HX/bTomnBWELzCdhK25I1++R2kf90zXDkUGa/gJef/6Tcp2+LUtunhjiutAKVpqRNfmnTVrmFm/0uXXkVArgqLRWfZ10bjvZ6xjZsFo7ban9Zh0/yMs1EDjnogQri3dVwRTnvxJGYGQlIvnTRete2Y3Q6+uQj8flSwSzBzoo2vqbJZ3/yK5h9/SA7Kw6+ecV3nr1EB186IX1NJ7Nbqjp135xhg6LsJat1We1oXdaTb+JbvOoXwCu/Pph5rMRx4mBLLq3l5FiXNtWgs4ZiXHDmGdk4fTpKXhV3Rzk0gXwXHadOknLkbrOJj9tx5Lo1bxUxY/Mq3+GHH959+G6RBE+S+XDv1htQeVIAjw0slreUvaxOnOwPHP59gveA+QZWCw8ebITxjWxun1EvfWKvw9QvM68vQehmlv6mxFBlERtUfubRB2/J0Oq35SeJt6nlPsVsqlCNzvPsSzN1cirXZcPr2KjjQN6oqnygzzaXk0/2aXz42ElSnh0UUE+UM/+z8vlAqgln5wsVBAlBxzUnG038O0IrWJKe4CJgyQQXn5vlyS3KeULohBNuDWRmdk4Q7EZznUpgVzz3B5xHO3lXmVtL8OckwDekWeLz8Ertc9zvn0X7fzXOfwjZ006TLlSoNnabdW59p47BSbo+HsnLJ5G6IVZpXc+TTgxjOYrpnMsh0XwpbFAf51P0YySPFt9WHy08eujD3SLnfr/y1fvF2HgLwcq7w/6XxAy+GojUOwG1zO1r414tf3JWN502Ltk2CgXtj5TvqtrXt5fHAnQtnS9A9t8HBQUse1rUSC28Cqv1HHurrQUzTbZZj63ZARj3h6+hIH6dguj6ysbfsO75C1H+F8mPOLYCsgZqBjAd1oAGZhquew866KCpZ5Y3IqSC9pvKDxcN/9bNlyYXSX167oPDc1ZbX5+5wurDWSn4djvS2TjKaijX6xIol1iUjecxOrhMV4dg+nqNDV6ldb3yBrcuvcExT27b3UQvCRyggDn9j3KrJD117inzfLSTgy7rSepABeZzRg3e5OEyT3lxX5kl/qJJfI/XMvzewv+E8sljOo+9FTjpe9Y9ZLnEzUse8JOfbQCN7d2yh9stQ9p/Efmyn/GwlufAYJY9pXFQuBXaUmwNrMSvxk0+fTyzjxYv6868W/LlCYEnjz4tR7+JguONcvqFI4SX/LkOJchqMKYBCdAMXLfVWRh4DV7DfE2efPvK4stjVQcr31A4vBro4IXEY/cR/TgnS2Dg2Na0uZz6M6za3noHXtuSJu1DH4vKl7IuVXkVAtgKq8FkuIOHug1oXBuv4tb2dKpq5JZDtIyYclR+lo0jbccogB8q399P+WctZhXmPw1zgDqIEy8Dl7KDPYO+4teTAXTMwPnKYpXFdeEeq/w/lO8p2I/HcNtggtZHX+Cpv6Q1PO1Q+wC/RW944lfaat8FxV0OtFUIYAdUy0A2Rhqh4lXDp7HTOYzHMXlUB7I8acGkBd5XT5pTFMT7M3Pp+BoFwZ9nuQQ7vb4nXGdOB2EGaga4g74TbBzYeZwaiNpbf/lZcP4i+rdJ9htI9perjVnXeuJYbZB122yKZVRadkgbGrVlB7e5Dx9Tpu2RL2VdqvIqBDAKSwdwuQZaGi+N3KfwRfjYSWz0dIjka16Jn3Kn06QzUv6NguBhCobdFBSfUc4l6KQPrkff/va3T30UrgYyyH2BOVHIeCe6KsW8Pv3pT3e3slpJvPn/oi9K1tsr31c4uXqo9sh6jjn1PhEL0ceV1FW2m64lGrDsg3rlc0bk6+tz0+HzlLLpAo4NkXLYEA4WtwHPDQrgLaNVnEqf11x1/Nlni7edpjpsOmernGO6ppbLL1XHN1E+twJrykYspe9xj3tM3T6ykAV16lrYbQQ4yQHrIycIXvnjvd3kI3wIOKl8TUH7dzrytzI5vkn3Y3jqyOVqK9PVusUAABlqSURBVNPk0eOs+tkIv8qj8reeZ/VRZWuNteJsWn3KOTZNitkd9xm/Dz6b27YzczVgy9Ab4dNHvz0ymuZ8uu30TAXT3ytPXlN0R/yLA5taTiXopjaowGm1m5br3be97W2TL1Eartg9Vfm/FNyPE4w/3O5YKc9y6nntZl/xvEvs9kX62h6a2m/2t5G+++jOVjiDWYVkpbcMthH5ZxnPbbNwNtIXuC1eG4VdTIF8iPKNaue8HLHnnnt2rw16Zq04OfPWsmbUER+xI0OfQa6g/a4yH6heaJOt9jvUzx4NrEIAZ2ChFS+DDK+zQd+YgLM89hK6xccnCHCNnwGXtMhCnWS+Xn7D27ySxmVoLCe4KQttOSbwLqAAfrny/Wh0IuhYUnNvmIc7Lnaxi3VNNRhrnRcNvvrVr3bff2690C/8QxTcDxKrXyl7jJax68IyjMseS+rK5To2dEQyX8rWn8scK0/rNPVlGPhnlXyWlz6WLllJSydYCNQnow2WzpTjqM5EWxrZuMknaWh33TK4rxY8carM1bkqbvKtcpr23Argx2mWfHpdUhOgauueg2ZZzUsSZP6DmMRMy6OSPLvMu8I8LsmbQznjdp2Kj/LzNPM+U1X+/ylT3xiMU9uBt2wAvDVe4/fxS51mX4vgu88+O7b6Nsyyup+lOlZHWyrhxsLMc/YqczVudZY0ZsXNtsrX9RZNH+5ZAb+VgvUFCj4eycxZbNIXgdhKNWAnAxKB0rcVuP9bMP5k2ww2OtYM2JYIZzbs7JCvrcwzeyT/H/FzQLdOPsBa7Ynbh4MKWzxTtUlreKWZ1VdtSx7mXfnVfmg/j4L40crf1muDa2ckawl+lPj8s3jyj97uux6RYSPytWQ2rB7dFyejln5SlipXxbeMtQ/Ln8c+WIt2aWGpgKUVMgyLvPU2j8/Ci5yNE6d1ZoV/xenTUe2vr96CV0eyLNmX6VptthXvGt9FQfgYHa+jfGHlc2im7ZOZJTKPc/5O+VtaWr9SxwOUm/eeBV9EF3V8IpukjbT14fbB6eTskM/6z3EtTbnX0Esj4TZBLGc6s4PNomZby+gOfm8uQQfMfKDJNpdTR9mn8eHj/tLY2R9w46ecpjV9jjNhLueGCvIlL2hvqnwDxe/tlS+vsm8/naLAPUawQ7RM5i0h/tPJX4Ss488xIF/KlGXaavKYgVu+1thoNy/KxnE5+W62fEu9iZWKWpWyDZ8OsL2yJ48W31YfLTz6n4U7T77Not0euebRnJ3tLb2dnf1vel/NTZBNl2pagGokzxB9M0VSV9parzygbcGSZ6u98p2lwopb6xuRv6+fyrPWTdcHp5221lj7+gS+vf7UJ0cf/OyWb9aYh7Y5GqhGdD03PWbBaEsepjM82+2ArTY7aPKqvNOJ3ZY8a7n2Q3sdV+KkDMBrwCR9iy7xXa4y1T48Xvdn+Vr8K23tg3anFv0yypcyL13Zxlk6wYpAKadnBcN8/eRjHUvCW+WcZeDZh1N1VfurdMhR+QFzf7PGZDzTm1drbK22Klvym1Wu/LPe4ll5VXrT9NH28a+6rLqv/cySY1bfi8hne7X63HTYIorZdCElQAZCn0GqolvB47EkbksHaVjTGG8Ro7d01id3C7cPVuXeXp6tMSQv99PSTUu2xG+VoVmUF7jLJF/qvDX2TYXVJdimCtPT+bxARMGp5Ooo2VYdM4PSbXYei5M4wCxPipu0wPvqrSFW+efR03+OsfaV9O6vpYMcZ7abpjXO5Ge5zccyVfmgqfLW/pZdPo976Y6rEMDVATKg0jFaztpqTwelnI6cBjI8HdROW/mm8ya/llNXZ83xVAehbZ58OR7zxq7Zj/mAS7klf4VVWZJfi0+VM+tVFugrzPVllK/qYmnq84y2DIJWGe0Y6ZR2iOq4LaeqOB4juLTVB0VSB9lni7edb5ZzpqO6nGPyWCr/1hjpL+W1rlpjcFvtP8fkctWtdVB5tHSzEX6V3mPk2JKlBZvFo7ZZp7N0kDQpT4UP9QU1YKep6H3wilfrSdfi0YJVHtT78Obxb/FKmOkr/3nwyrfSt1ZbFafy2B6aeTzdR8Xbnr62h6b2W8fcJ18f3gBfQANWestgC5BPUGYZry9ANsK/4rb62xBMzyk/VflHznps8v6lkxa/KsdQX1AD0vORqe8FyTYNben/XlTKfJi00+ukejSQd1Z/q8z/zfLViD5c4H7vlCVULltdzyW08Tl6yeXld9bVvOH3geFpOass8Jss8TT+XVTfArBrWFvbWQfTpxweG2hZrnU/Guj+PT545fgM90nT+urE4GecEp66Sr6WFxL3nyfjKjt4G5HvytLTHqeLtK4E/1/KV3gG/AvKfECwKZ8eN72C8gXMQTTrmC0TYOkDWMp8mfK6T8pYiWrDgU5VJnj54No/cVRuORNkk+AY88BCdha3cbRjpoOm8xtnzGYdftLPK6dcLlsm889jlY828D2WLJsu27KPFi/TpA7Bc0qdVN2Zd+IkrXmm3qHZbvkUvDdTflXIt67I+5JavdAHJ/uPyU+epOMPxogp3zraZQYsfQDPU54CGIdgHMxUe+vVutvoZfXHqsyH4QjsdNB0NjuSYT7S5ayyjT0LBx6Z5uFme+2/8qrt83hXfPPro0v8VqDO4gfPpJmFm+Oq4690td312lfynCqP/YS3ty6qfE8F820VxA9R+Z2JKNiDdTJYmbhYGUGtZC1p+LOs7vW3sVH4jsxlVfaSbAcZ5/kyxFcFP2xMZ8fqyMbZxq+zAzh9Z+SkHbOemunNvwZ5Olq2VTzz7Ou/tue43HeV3zh1+W94Hk1b25J35W+ZoPEsWsdY5TSN+YJ/RuWb8NRke6Ly96IT+r+4AvNyE2F32OGC8pP/Kz9hFv6asmU+aNmXzTGubuZaqSTl3kUCHxVCM4abyjgHKV8cuIJ5Jxnnf8k4n1S1LntzvH2BgsFJGXhJV52+rz6LB23ZT9Yrv+x7Fl0fHvzqEtV86hgtU5Uh8YwDjxY8x5X8Ur5Kd0blS95fkZ/sWZSxk2C7yi/eK/9gtYaf7KL8NAX7PagWfMvX5yMFfXOqKxfAoSY7WPd/QzLOfRXA/DeP0x4q8L+8vx8D0iH5WBRLKV6Cv7LyL5V5R5brI66lMZpnBBUnCR5sIuEAuyrzXdefKLOBdryy+1Jxck+ZFQL92SHoC96cbJCRL2F8XPkY5T8pk+Y5DfSXUr6V8vmVD1NmMw/ZnWqQQcMSEnmuqszYj1X+nPKvlaGtY2ac+d/Gv1GdyxL6vr0y4ybzIQHjITv8SFdQvo3y4cqMO//snH8u9BfkrW9oLqmMHE7oBN22bMIYa+AF6VQRPzlcJ/WHK4gPHK/e+JbY7oJh0z+OsRlb8vx5H8MBvoAGpOyT8pMxItkyJquGu0T9tIzwcKya9hPP31Vc6oKfLIM+WgR2tOyDpfnDlP/YQ/sn0f69aNP5+JPvDxT5LyUeH1We+hSO8E4Q7W4hbNe3aF+Y9MJ7lGjfp3xagf9JMIKFVHUDjCXk1yvdeNw47/8c004Own2V+1D5VOU9xeMt5qHjB0HW8Q1ljLsJ9kblbow6Mt7XJI7q7Aavm0DEf8o2qrMp2Ze6cQrngYX3x/sIBD+f+j42xyVYt3IjqW2qf8OX9ZjOtqwy9slVZ6nzJKKWRdwqSBzG+mYZ6HU6+05uEyQNS2/ll8ghXi14zhYC7fgSwV6ldmbMdUlwvlP1Ih3fo8bJrrnqU7jCwbn2bMC5Jvuo2q4bBOsCUXT/qna+uDHVJr6M/xB4K1e6q6j9e8rXrnT0Jdh51fd/qMgnduwTlccO0uldhHsf81D9F9DryGGS1P5UVe5vEdX+Y81yz5lCGo2ur/qVxjD3dSPRsKLokuj+oJXVW1wvR2iqD/SgTsCMjZl48gmhlj7mMVmm9lUOYGS34c8h53xYUSzLaZaF4JBvKSe9nwzWjVnOsSbnOAIHUf6xaTGo0oNUZ3lKgnZXwR5lY4v0VNG8Uvl/Ku8PK9NLjjuozEzayVadW+0sX/ljs58o/xw5TCv+51Q7J4ALQmp4HoVDG/1D/xNkCXr0cJDqLH09br4p/VblCxlPNCeL9kc6/trdi++O0g9/zH1j5ZZfMPx/AC/k+S79KAWomxFvk3jq6/tCOFp9TS4x1M7suyf0yowV2fkqZjL7lOo/USYBd98+dmMU/zHK1MHjNz9oQLy88kUts2Ti87l93wRr8V0q2LolzFJJ1xbmgQJzTdQlGf2CMsbNVCRwuiSjnKAzPrMAjkFmKfvI9DThvEqGZ9mI8Tjrf0I4N4Ae51PaV+0fG9PuVWifrTb44xyvEO6v1c7yufNm1R9gWmCZ1O+vJBuyHqHMLP8ABc6rRdbN+KK9omg5AfB513VpPLY7qYFrdtLeon+X6LuPQIt+F9GzlH7buP3ugvHfvV0S/e/U/21VZAm7s9qeLlr+OqWTXbxepPZbbsM+/VdNVHYU/UHKB4Oufj6vo6rT/+oAH7W9SW0fhkYZWf8kvNeo6R9gRFL5DoKx2oE5/wN1t3E/3YlPchwoOEHnIOxsqTx1ctMYYNeXkmYX4aKrneA/Ttyt4AEP99HHZynhKxfAunZ5xixNyjB8bfGhwvGfcHWGkUPhDOxKdw6g+id0JHipcxZmifwa5S7JyFfioIyl2fjJxAaME7Phy1TxJgh94RRdv3ZII0u+F6rMxg8J53yj8r2U2RTqkpzsnuLxAdfzKPpnqs7MZNkOFez16ucRxhP93UTfBbACkhPeJAn3uaqwcQX9icLjkqEL4HHiZMjegTeYJg3CPVKZRzlPOh19/QwsnNcqP6riCfY8yclK5lzQq99by1ZmdTnDxwBma3TQ6VHJgegyR7eNUcaIa2tbxfvF6N6BqjLXuXspT2yptlPUP5cOeZKY4rXslZUL4HkKlVE423sXFHQb/j1yoHQClpQYk5kPONfMmXwthpNwn3CS5AzPkINcSPzeJ+A3lX+oMpstebbvAgwHwpEi1eUaTsQm0CSAhUsZIhxrKomXLwsM52T0PskzCWDh7DGmh0dujHFy4b4nO9C0WcZTRdOtAMayEsCTVQ7wcWLVQPBOpq9oy+JhquQ4rYCjBcc2lwVZfXE5wGriYMnPrZxJkpyHqsLOPKnVXye78pRyQRYvlsmPoVx0D6hLsgt/3MbJ7O3K63gYb9mPKxfAMuxRUurktK0yG0+XUvZZ/W9VvpuC4lZqI7jS+ATlPpqVHqQjMw2bWR1dT8Kw6vI0lox8AP2K4OHsyk9Q/QlyAmbjL6k/Zm9mDJzODiG0mb5hB/wRfJ1Ew4kFwlnEpuX4w6RXmcC4iPIFrBe360Sxf8FtVWeuSccEli31m7xSPpdZFu8v/T/eipEO70qwqv7oKeK1tbdGfZYeWvL3wjijKuFDz1G/LN9JE/l6CZe0YRUDeA/p8ifKGBXF42zXlCN8SJl7iATYRZSfL0Nxdvcsdgk5zlcF73BIWNLlGUf6OV7Gvp5o360ygX8uO6COXHveQoFxC7E7SQ76INV97TaD7VRwTs124rmIXRzgjKHO1MymnJhmnZxmyTYrgGsw1br5Wj7qthXlf1MmWM83RryFjsyYlxnXsQv3fj80ridt2nwSdLINs67Jof+1YL5MMfyPgrP64AT2dWV2oy179jHhswqFRRxl2caRysaIzMZfl8FuLSMy43ZJ5b0VTMywv1Vmc+ZIBUZe/7Cp8hzBjgJf5euq/Pht1JNf+DvI2RjbU/Xzi/cjhP9EHSf3D6EQ/bmY4fQsNruzOJAdZMJwXEi+tc11PDJXGolnmezErhvH/CvcS+i6jE/eyMyqYh3tGGmd7JwHNfbkQTnxktdv1PYN5V1BEt0WHdi8mkSg+L1ZMO6LwzRPTubjIzSnZfCqTvqWeNxuXK6H6j+094210i5dfRUD2EqsSueWzGl2BB2Zha6l/Gll/q0gg/c0BeN1Bef2RpcU4HfUoQawm/P4e50sXiDAf+i4s443F+3rxP/SRlL9yeJ/T9WrjC1+wJBlkjQOZuS+4G3x6K4pI7Gh9ivlX4jXSZxY3CaZ/1ZlNvNmpVlyr2trBO8s3iyjD9CJrgtgpfNIX09LAsnI5QhpXV+Jp3JdeZTmZnUezybRsgJnLZWWVWbk4iyK7Hnax5hTBpVj8EAFOFcog+E6leXUhA8zcMFx9RI6w39HvI4iq0zQ89AEfbF7/WE55N8krXixSUTQtJyFE4v77cYgvg8o9Nx+gTbH16GIN7P+1PglU26AMcsy+5uejbZJUl/PUiVfz3Qftb91fY+ZWO+09+GAmvbJ8dL2Oo2DWzfMwKTJgzWCHyvwt8e8p8bZ4AmLPh9O+VxO2WfJB9+VSH2DXwXh5559FViMA8ck0DJxHXxjZYKJ/919tJzoqQXHusGh2LTiRe8rCPevlPcSjPYuQFW/StIK76eqd9dYcshswmGfJMBdlAkint5i1udafZIUgG/JepZF/8+q76fME2Fcf99bsLoB9AbB0c+adPDGIsPu6vOlaruUsq+TryfYCxXcyO3ddxWbiQHloPqCOO1jGp8k0CnPR69LkvX1ArJ8dh+mpZ9pZW47gVRY5Wn5Um7KffJV+qWur+oS2o6ActNARGyOidshpG/IMdbk6B2uDryt9EmBfqTyxZUvqnLe22Wmw8HBx9DcIjoAWpLwDxb9x1XkUUJOBnuMm6BjifgS1buzx7hLN1O/sJaP7xIeJ5UdVScQJ0nB+yNVDktYloV/PtG/XvSvEJxLBpbxkyQ4S+dDlK0XHgh5p/K+IAmf9DDlB6uKDGzIpQycXHpPIPBQMu+uwpjFY9w0ORiwrgF6ltHS4d4Ik4SxfE545eF6+kHtv9ahIVeayrvSLXV9lWdgFOuzKkfu407t5mpW8XXWMXKY56cl5DfMvFfXkeDl6aRHlnaW3cxw3Gd9p/J/CI9+cFYC79bKPJrJU1rM5F0Syst14LZThzsm2daoX/H5KXxEs7PyVPAK/Ge1311obLx5bBPaMb+3j+nPC49sFPxkjePegrFRZHp2xh+utqnrXtFy++1CVQbp5A5jnp38PSn13odneB6TDh3l/Xp0xUmUS5sWrUXJNgdkS8yWjJ513QZdla/Fa2lhSx/AMirP606yNIkRfNbMo/z01GcJ95fGFx4PB/i20T8pOJ6hNjZ2/qLMX27+RTCe3GLHksD4VdByjcYJgD54dvnxwrub2o9Q/p3yyWMeHH+n9q9q9/lvdHwM+Mp96cXCf7nyccHjDyp/Qfy5Dp88xUXf4vd7tU3GL5yHqf4C5d8kvXC/prbddfxEdGz9HKe2W4vXk0XzQ2VuqTD+TgfKyPIZyX9n4bA8J7H8n+obWdxG+zgD4gX6iYzC42GPOtsZ30eC9yNjfgQv6cWqm5amysOw2vbn0n9352GcK43rlbfx0Wv6G/hDOoMaSGPYAJx80incBTDjZLtPVhyvrnwr5Ssrmw80eUJzufKgzszMNTQ8bjiuV3k6ei0Tp14nHF/zmsdNhMJ90F2UgUGT8hjmIyydwOMEc0vliypXevMyv+R9CeHTLwF/1TGtDpO+65hbPBLH5W7M49Qah2HgSzWn60ZlZl8ueSrf5JP02edZIZ/1FUMaimeGBjAcycczwjN5tPi2+mjh9cnDiw2tAK4yz+qn4tb6GaGtvGq9xbvibG+d22+Td72lp8ktvQ0wPCvl24AYm4e6CptYGMnXKWiqXh9ZexUPeIXVevI1nxYsLdRq73UkXWMmbas8C6HKW+stfouM23Sz+M1q6+uXWSt3dyseO++sGC6v4P136WZyO0vL7v+syKrPkmFWW4NVB5onXx/d0sJXIYCr8mw4jOHNiFkw2kjGNV3lS7sNbBpw0lGyT/CTt/lN8dD1VN8ObXVA6lXWhMHfMvokQnsGDH0bL8dgOtqMbzlTXvPzOFOeKt+4q0l/ya/K57YtClxeUjingncin4L3h4K9Utl4MN0M+XJMOfaEL1V5FQI4AwXl2Tl8TIWm4wDHCKZ3OekNM4/KM/tO3EqX/VT+LYO3+mnhAcsx1X4djNXZUm7rwZt/qQfKhruv2ofpq8yW133l0W3m3R0VvFt0nApeneBOUAA/XHDuItD3pslnoVfpuAoBbH3WYDLczks9ncyOkO0uG686OjwqXXXcFo3pWjJ9Xk7a3RMmjWeblKnSVh6zxjeP1rz68HIstVxpqswpp3Vk3SXtRH/SwzU18f5WRx4W4YWFz2l3/P/oyC2uFv8qU7Vf0rToLcdC8nlAw3HQwKCBQQODBgYNDBoYNDBoYNDAoIFBA4MGBg0MGhg0MGhg0MCggUEDgwYGDQwaGDQwaGDQwKCBQQODBgYNDBoYNDBoYNDAoIFBA4MGBg0MGhg0MGhg0MCggUEDgwYGDQwaGDQwaGDQwKCBQQODBgYNDBoYNDBoYNDAoIFBA4MGBg0MGhg0MGhg0MCggUEDgwYGDQwaGDQwaGDQwKCBQQODBgYNDBoYNDBoYNDAoIFBA4MGBg0MGhg0MGhg0MCggUEDgwYGDQwaGDQwaGDQwKCBQQODBgYNDBoYNDBoYNDAoIFBA4MGBg0MGhg0MGhg0MCggUEDgwYGDQwaGDQwaGDQwKCBQQODBgYNDBoYNDBoYNDAoIFBA4MGBg0MGhg0MGhg0MCggUEDgwYGDQwaGDQwaGDQwKCBQQODBgYNDBoYNDBoYNDAoIFBA4MGZmng/wEdpslepHK7RQAAAABJRU5ErkJggg==;" parent="1" vertex="1">
          <mxGeometry x="-457.5" y="-745.76" width="38" height="38" as="geometry" />
        </mxCell>
        <mxCell id="fVgRkVASK4dvTecgE4iH-92" value="" style="endArrow=none;html=1;rounded=0;strokeColor=#7A7A7A;exitX=0.784;exitY=0.5;exitDx=0;exitDy=0;exitPerimeter=0;entryX=1;entryY=0.5;entryDx=0;entryDy=0;" parent="1" edge="1">
          <mxGeometry width="50" height="50" relative="1" as="geometry">
            <mxPoint x="-497.48464" y="-668.22" as="sourcePoint" />
            <mxPoint x="-486.46000000000004" y="-668.22" as="targetPoint" />
          </mxGeometry>
        </mxCell>
        <mxCell id="fVgRkVASK4dvTecgE4iH-93" value="" style="endArrow=none;html=1;rounded=0;strokeColor=#7A7A7A;exitX=0.784;exitY=0.5;exitDx=0;exitDy=0;exitPerimeter=0;entryX=1;entryY=0.5;entryDx=0;entryDy=0;" parent="1" edge="1">
          <mxGeometry width="50" height="50" relative="1" as="geometry">
            <mxPoint x="-497.46000000000004" y="-702.54" as="sourcePoint" />
            <mxPoint x="-486.46000000000004" y="-702.54" as="targetPoint" />
          </mxGeometry>
        </mxCell>
        <mxCell id="fVgRkVASK4dvTecgE4iH-94" value="" style="endArrow=none;html=1;rounded=0;strokeColor=#7A7A7A;exitX=0.784;exitY=0.5;exitDx=0;exitDy=0;exitPerimeter=0;entryX=1;entryY=0.5;entryDx=0;entryDy=0;" parent="1" edge="1">
          <mxGeometry width="50" height="50" relative="1" as="geometry">
            <mxPoint x="-497.46000000000004" y="-720.04" as="sourcePoint" />
            <mxPoint x="-486.46000000000004" y="-720.04" as="targetPoint" />
          </mxGeometry>
        </mxCell>
        <mxCell id="fVgRkVASK4dvTecgE4iH-95" value="" style="endArrow=none;html=1;rounded=0;strokeColor=#7A7A7A;entryX=1;entryY=0.5;entryDx=0;entryDy=0;exitX=0.995;exitY=0.467;exitDx=0;exitDy=0;exitPerimeter=0;" parent="1" edge="1">
          <mxGeometry width="50" height="50" relative="1" as="geometry">
            <mxPoint x="-486.7152" y="-719.9575000000001" as="sourcePoint" />
            <mxPoint x="-486.46000000000004" y="-668.22" as="targetPoint" />
          </mxGeometry>
        </mxCell>
        <mxCell id="fVgRkVASK4dvTecgE4iH-96" value="" style="curved=1;endArrow=classic;html=1;rounded=0;strokeColor=#7A7A7A;entryX=0;entryY=0.75;entryDx=0;entryDy=0;" parent="1" edge="1">
          <mxGeometry width="50" height="50" relative="1" as="geometry">
            <mxPoint x="-487.5" y="-689.76" as="sourcePoint" />
            <mxPoint x="-457.5" y="-673.76" as="targetPoint" />
            <Array as="points">
              <mxPoint x="-477.5" y="-689.76" />
              <mxPoint x="-477.5" y="-673.76" />
            </Array>
          </mxGeometry>
        </mxCell>
        <mxCell id="fVgRkVASK4dvTecgE4iH-97" value="" style="sketch=0;pointerEvents=1;shadow=0;dashed=0;html=1;strokeColor=none;fillColor=#808080;aspect=fixed;labelPosition=center;verticalLabelPosition=bottom;verticalAlign=top;align=center;outlineConnect=0;shape=mxgraph.vvd.wavefront;" parent="1" vertex="1">
          <mxGeometry x="-552.5" y="-756.01" width="20" height="23.26" as="geometry" />
        </mxCell>
        <mxCell id="fVgRkVASK4dvTecgE4iH-98" value="Ds0" style="text;html=1;align=center;verticalAlign=middle;whiteSpace=wrap;rounded=0;fontFamily=Verdana;fontStyle=2;fontColor=#808080;fontSize=16;" parent="1" vertex="1">
          <mxGeometry x="-552.5" y="-770" width="10" height="4.24" as="geometry" />
        </mxCell>
        <mxCell id="fVgRkVASK4dvTecgE4iH-99" value="" style="curved=1;endArrow=classic;html=1;rounded=0;strokeColor=#7A7A7A;entryX=0;entryY=0.25;entryDx=0;entryDy=0;" parent="1" edge="1">
          <mxGeometry width="50" height="50" relative="1" as="geometry">
            <mxPoint x="-531" y="-744.51" as="sourcePoint" />
            <mxPoint x="-457.5" y="-690.76" as="targetPoint" />
            <Array as="points">
              <mxPoint x="-467.5" y="-739.76" />
              <mxPoint x="-487.5" y="-689.76" />
            </Array>
          </mxGeometry>
        </mxCell>
        <mxCell id="fVgRkVASK4dvTecgE4iH-103" value="" style="endArrow=none;html=1;rounded=0;strokeColor=#7A7A7A;exitX=0.784;exitY=0.5;exitDx=0;exitDy=0;exitPerimeter=0;entryX=1;entryY=0.5;entryDx=0;entryDy=0;" parent="1" edge="1">
          <mxGeometry width="50" height="50" relative="1" as="geometry">
            <mxPoint x="-497.80464000000006" y="-668.22" as="sourcePoint" />
            <mxPoint x="-486.78" y="-668.22" as="targetPoint" />
          </mxGeometry>
        </mxCell>
        <mxCell id="fVgRkVASK4dvTecgE4iH-104" value="" style="endArrow=none;html=1;rounded=0;strokeColor=#7A7A7A;exitX=0.784;exitY=0.5;exitDx=0;exitDy=0;exitPerimeter=0;entryX=1;entryY=0.5;entryDx=0;entryDy=0;" parent="1" edge="1">
          <mxGeometry width="50" height="50" relative="1" as="geometry">
            <mxPoint x="-497.78" y="-702.54" as="sourcePoint" />
            <mxPoint x="-486.78" y="-702.54" as="targetPoint" />
          </mxGeometry>
        </mxCell>
        <mxCell id="fVgRkVASK4dvTecgE4iH-105" value="" style="endArrow=none;html=1;rounded=0;strokeColor=#7A7A7A;exitX=0.784;exitY=0.5;exitDx=0;exitDy=0;exitPerimeter=0;entryX=1;entryY=0.5;entryDx=0;entryDy=0;" parent="1" edge="1">
          <mxGeometry width="50" height="50" relative="1" as="geometry">
            <mxPoint x="-497.78" y="-720.04" as="sourcePoint" />
            <mxPoint x="-486.78" y="-720.04" as="targetPoint" />
          </mxGeometry>
        </mxCell>
        <mxCell id="fVgRkVASK4dvTecgE4iH-106" value="" style="endArrow=none;html=1;rounded=0;strokeColor=#7A7A7A;entryX=1;entryY=0.5;entryDx=0;entryDy=0;exitX=0.995;exitY=0.467;exitDx=0;exitDy=0;exitPerimeter=0;" parent="1" edge="1">
          <mxGeometry width="50" height="50" relative="1" as="geometry">
            <mxPoint x="-487.0351999999999" y="-719.9575000000001" as="sourcePoint" />
            <mxPoint x="-486.78" y="-668.22" as="targetPoint" />
          </mxGeometry>
        </mxCell>
        <mxCell id="fVgRkVASK4dvTecgE4iH-108" value="" style="endArrow=none;html=1;rounded=0;strokeColor=#7A7A7A;exitX=0.784;exitY=0.5;exitDx=0;exitDy=0;exitPerimeter=0;entryX=1;entryY=0.5;entryDx=0;entryDy=0;" parent="1" edge="1">
          <mxGeometry width="50" height="50" relative="1" as="geometry">
            <mxPoint x="-497.78" y="-687.49" as="sourcePoint" />
            <mxPoint x="-486.78" y="-687.49" as="targetPoint" />
          </mxGeometry>
        </mxCell>
        <mxCell id="fVgRkVASK4dvTecgE4iH-109" value="" style="endArrow=none;html=1;rounded=0;strokeColor=#7A7A7A;exitX=0.784;exitY=0.5;exitDx=0;exitDy=0;exitPerimeter=0;entryX=1;entryY=0.5;entryDx=0;entryDy=0;" parent="1" edge="1">
          <mxGeometry width="50" height="50" relative="1" as="geometry">
            <mxPoint x="-497.78" y="-702.53" as="sourcePoint" />
            <mxPoint x="-486.78" y="-702.53" as="targetPoint" />
          </mxGeometry>
        </mxCell>
        <mxCell id="fVgRkVASK4dvTecgE4iH-110" value="" style="endArrow=none;html=1;rounded=0;strokeColor=#7A7A7A;exitX=0.784;exitY=0.5;exitDx=0;exitDy=0;exitPerimeter=0;entryX=1;entryY=0.5;entryDx=0;entryDy=0;" parent="1" edge="1">
          <mxGeometry width="50" height="50" relative="1" as="geometry">
            <mxPoint x="-497.78" y="-687.51" as="sourcePoint" />
            <mxPoint x="-486.78" y="-687.51" as="targetPoint" />
          </mxGeometry>
        </mxCell>
        <mxCell id="fVgRkVASK4dvTecgE4iH-111" value="" style="endArrow=none;html=1;rounded=0;strokeColor=#7A7A7A;exitX=0.784;exitY=0.5;exitDx=0;exitDy=0;exitPerimeter=0;entryX=1;entryY=0.5;entryDx=0;entryDy=0;" parent="1" edge="1">
          <mxGeometry width="50" height="50" relative="1" as="geometry">
            <mxPoint x="-497.78" y="-668.26" as="sourcePoint" />
            <mxPoint x="-486.78" y="-668.26" as="targetPoint" />
          </mxGeometry>
        </mxCell>
        <mxCell id="fVgRkVASK4dvTecgE4iH-112" value="" style="curved=1;endArrow=classic;html=1;rounded=0;strokeColor=#7A7A7A;exitX=0.993;exitY=0.552;exitDx=0;exitDy=0;exitPerimeter=0;" parent="1" edge="1">
          <mxGeometry width="50" height="50" relative="1" as="geometry">
            <mxPoint x="-408" y="-677.76" as="sourcePoint" />
            <mxPoint x="-376" y="-704.76" as="targetPoint" />
            <Array as="points">
              <mxPoint x="-391.5" y="-678.76" />
              <mxPoint x="-401.5" y="-702.76" />
            </Array>
          </mxGeometry>
        </mxCell>
        <mxCell id="fVgRkVASK4dvTecgE4iH-117" value="" style="shape=image;verticalLabelPosition=bottom;labelBackgroundColor=default;verticalAlign=top;aspect=fixed;imageAspect=0;image=data:image/png,iVBORw0KGgoAAAANSUhEUgAAASAAAADoCAYAAABPTzntAAAABHNCSVQICAgIfAhkiAAAGwhJREFUeF7t3QmQFFWex/HivgUVFJVTW2lAnEZRvFBgtZcARFccUXQUcd1QZ1W8JjAGGR2cwVHXhV1XRl05XB1RZxVxVcADWhERD1Q88OTwQkQu5b7292u7jKLIl11ZfRjoNyM6oKsyX2Z+qt4/3/u/l9mpFAsCCCCAAAIIIIAAAggggAACCCCAAAIIIIAAAggggAACCCCAAAIIIIAAAggggAACCCCAAAIIIIAAAggggAACCCCAAAIIIIAAAggggAACCCCAAAIIIIAAAggggAACCCCAAAIIIIAAAggggAACCCCAAAIIIIAAAggggAACCCCAAAIIIIAAAggggAACCCCAAAIIIIAAAggggAACCCCAAAIIIIAAAggggAACCCCAAAIIIIAAAggggAACCCCAAAIIIIAAAggggAACCCCAAAIIIIAAAggggAACCCCAAAIIIIAAAggggAACCCCAAAIIIIAAAggggAACCCCAAAIIIIAAAggggAACCCCAAAIIIIAAAggggAACCCCAAAIIIIAAAggggAACCCCAAAIIIIAAAggggAACCCCAAAIIIIAAAggggAACCCCAAAIIIIAAAggggAACCCCAAAIIIIAAAggggAACCCCAAAIIIIAAAggggAACCCCAAAIIIIAAAggggAACCCCAAAIIIIAAAggggAACCCCAAAIIIIAAAggggAACCCCAAAIIIIAAAggggAACCCCAAAIIIIAAAggggAACCCCAAAIIIIAAAggggAACCCCAAAIIIIAAAggggAACCCCAAAIIIIAAAggggAACCCCAAAIIIIAAAggggMBuLVBjtz763fTgd+zYUe/999+vtXLlytIz2GuvvVKHHHLI5tq1a2/dTU+p2g/7gw8+qLN9+/Y6mYZNmjTZ1qpVq03VfjDsMG8BAlDedMk3fPvttx/+7LPPCj///PMa69atS6kClRZSq1atlCrPDlWeVIcOHVJ77rnn/c2aNbsl+R5+2GLRokUP16hRo1A/V7Rt23ZmvuVU1nY65wE615u2bt366kEHHXRhvuWuWbOm+Jtvvrng008/7awyU2vXrq2xbdu2lAJ6qWGjRo127L///qkDDzzw7fbt21/VsGHD5fnui+2qR4AAVIXOqiAPfPTRRx3eeeedWl988YUrSoF+GrjCeEn/q0BR+rv/VSsoVa9evRX77LPPV506dUq1bNly5n777XeVKnCTN954o/i9994boYqYOvXUU79r06bNCVGHP2/evNe0XpGCzxL9XKgKOStqvep4bdmyZafI4D8XL17cSudRctJJJ/1Dkv0q4Nzz1VdfdXv33XdT+rfpxo0bW8gi1lCO6/WzVHZbunTpklLQ+06tzEirJMfCupUvQACqfNNUSUlJYwWSFxcuXHjIihUrGmzevLlGOtjkuruaNWum6tat6+7ZmtatW09v2rTp0yrvjwpkrd1y2nfffbf17t17QUFBQdfsMl966aX5c+bMKfI+O3bsuEjbX1FUVPRE9npV/btaYoM//vjj0W+99VYbH/Ohhx46q2/fvr1y3e8zzzwzWa3FfgpCjWX4Y4sx1+0d0G3YvHnzbQrEcxT8CEK54lXTerWraT+/iN0oH7Hvd999N/npp5+urVZKkStN0sCThnKF1dU+pRZEU1XAvqpMh6u70dpdDi/Lly+v9fzzzxfp35nqfvTfe++912Uie/tNmzallGtqr2O4RS2iumpR/W91fRBLly49X/seodZfm/Xr15cGglyXb7/99sFHH320pVp83bZs2dLY55LPYnsbfPnll7VkeMwdd9wxUy3HlLpmu3jlUz7bVFygZsWLoAQL6EveTsHiPgWFnqpAx/uLn2/wyRR15XMlVDArSAcfv+/Xv/7665SCXU919R5SS6th1CfhIPbhhx8WKm/yB/30j1qnsl9Tq2WQAt5wdZsKHHySLAsWLLh/6tSpAxQwesow7+CTuU9/DvKrvXr16p4zZszoqbIfUg6pRZLjYt2qESAAVYKrrvSd1d0Y/8ILLxSr8qUyA0UlFB8swhVLLY3U/Pnz+ynvUye0ooOAjrGL1vvzq6++Oii0XmW8rmA3VPu5QS2fwu+//z5REHbwUffxTHUzGyphXRmHs1MZDtq6UKSee+65fp988sn9MmtX6TuhwEQCBKBEXLuuvGTJkg6rVq26TXmOXrqyJqpwu5aW/BXnilq0aOGcUOzGGzZsSKkF1EWBcriO9dTYlfN8U8HnbLV8rnaLK0nLR8GqgYbVJyj4/FqGHl7P8wjK38xB20P32mexWkVjFZhbl78Va1SVAAGoArL6MjdSU/5IVbg+6naVG3ycFFX+IXXAAQd4yPhe/T7MPwoeJRqxSdWvX790JCzXxcGna9euKSWZr1OSeUN52zkIqcVU5CCkkanTyls/yfsaoTpb5V6rINcpSfBRa7G+Euz/ptbIEAWfuuV1W+2jUUKPDjq5PC1tuMcee/zN0xjsa5e4xfvQRSMlgwFqaQ2RS3z0jiuM9yokQBK6AnzqcnVW3ueisiH2YEkeWlcFcYCZ0aBBgxIlg9dp3s8TGsH61BupjPmqvF31b5F++ugK3TKXbpzLPOqoo4YpAT1OFXFz8AAy3nBw0MjU0Sp/5JtvvtlAgevBXLaLW0fHPlRznK5Wa6KT5zeVF0Qyy5o9e3Y95XouUUsydjvP8/H56jwfq1OnTolG1FIKOHM1FeEVl6euVUcl5OfpnBxcCpT0/ldPVwh15XyM/tw05+pCeU9XEV/HnSPvVY0AAShPV33Zf6WcxZX6Ep8QFyzcqiksLPRVe4zmo0xVJZqrOT47tVZ0NX9Bh/GCEqSX6urdN9cK7ASzKl4zBZXcm03akYOQA566Or97/fXX1x9xxBGP58ngYDZIyeZr1ZpInPNRvqypWo7DlZOJHWJ3i6ddu3buZk6R51+OPvro0qCTuWgC4vv63T8pDQS0lWFN5aCG6rjqh1pk7urp+NsqmF2if9fogvBBdrn8XrUCBKA8fVXpihR8znKiNbS4O6Buws1qpWzU/8co+KyJWleVpcGECROKFdB+re7APrnmQByAdBw36Co/RuUmugWhLAgVabsb1HKpr/lCD0UdW9xrCiDnK580XPOTEuV80mUqD9NMrZ/hbjWFFnVVbThZLbWFynVN0byot0Lrpl/X/KglCmw3yuczTYvYV127Yfo3cjM7KIgP0bpTtAIBKFKp6l6M7yxX3X5365KV7+ioYe9ij6iEFne71OJ5VJVmlFo4N4aCj7oLB6vlM1gV5DoFn565Bp/0fpVzcQ7oErVocp9oU7axA5i6PkUKIL9XS2hg6FyiXlfLYrDn+Sh5nFfw0Xk3UfdnqLYPdr08d0izp/+unNmfdIvKjbkEn/Sxqlu6XNvdrBbTH9U6Ghc3D0nd3pTsT5HDgVHnymtVJ0AAysNWwecoBYrBmp8TubUTpWpRpIqLi6/XzN+NkSuVvaicRT8lsn+vllT3pMHHRbj7p1zHaAWDBnH7Cb3nFoCCiUfHblIi+B9D62W+rn359orRyvsUxLVe4srS/vbStiMdBKMWG+oWErd+7tAM5nei1snltTPOOGOVXK9R921qKMFvQ73nXFCXXMpkncoTIAAltFSLoYl+9o4bcleCeXOPHj0mqvvwnr7YwTHlu+66q5fmzAzUhML2cXkkJ2CdSwotmtPim1gHq6I1Cq0T97qDgHIgvkl2jFokp8Stq2A5UMHjDnUX2yRNOGeWq/lInpsU3JW7rzqnqeq+LguulOMbZ5111gY9beAqtYoit3DOzZ+nHVmqV4AAlNDbORq1GtqFEpseAtYo13pduS8IFa3uVtuHH374JJUxWj/HxwUfdx10Z/eKgw8+eHboCu7hdS13qmvYPLTP8l73bSOqgIUKLmMVXE6OWl9D+H31/p2a69PGM73zXRTo9lDCt9ijVKFFXa+ZapFcoacCVDgvI7cdypOt8I2poSF6f566YHRXIGJeUOhDqYLXCUAJUTXnJ6UuWHB41yM2ChaxpSrX8BsFoQlqQcR2u9LB59hjj71fFX+Ey45a3HXzkLJnYVdkcSBTUrm9clv36T6s7pll6ZiPU/kPqZvmAFyR3fi2iPaa+3N3KPA6f6ZW5pW9evVaXKEdZWysXNwODdkvlWFki9TD9coxXadj6l1Z+6Sc8gUIQOUb7bSGK7pHvkL5Gl1FNyrhPDtU7Lhx4454+eWXB6q10ipUhrfVlXqZktezunfv/lcNQV/pyYt+cFlo8exeT66r6OKWjYJPSyVmp2iE7Th1T2op8Jyo452meU+NKxp8fHwO4HHHqlaPcz+JT0VzivbWz4nTp0//VfbG6s5tlN+fGjduHJl08mfhc6uM88veN7+HBQhAYZvId5z38NUyaq6Ou0jK1yxTrmGXPIpuhDxg8uTJh+rq/4DvlI8LPppo5weUTRsyZEgvBZ/rfSC+3cIVM2rxsfi4dFNq1Ns7veYuiFsYoe6cV3ZyXS2hlhrKflrB6BjNeZqllk/pIzFCi8tzuaEuTuZ2HhKPyx9pdKzcW0uyj+PJJ5/cU0HtNwpus+Tw33qUxyGZ6+hz2SzTuzURNPIkbOjgG0qKZ++P3ytHgACU0NGBIyr4pIsJDfeqMo/Sl/slVY4Ocds7+Chhuvb0009fkXlong8Tl4h2dyY0KpdZjpO7Kn+1gtnK8oKQninURBX6xWeffba0coYWl6OWxQq1Mtbq39BqP77uAB7qfnkll+FZz7kuenRHI9kOVUvt3zUy53veuqk7+ZiC0gHZZYQ+H6/nzyXus8kui98rLkAAqrhhuSXceuutrZ966qmTnXyN+4LrKr1eweFLTbq7TXN7rs0s2BU2btu4YJJZTllLZYyGuK9RF29F3HZu8bzyyiuxrQJvr67NcpV1sf4dn0sLqDwwB/m4AJW5vbpbTXScFytvdZtHsrw4WKr72ElBaG52ECrPMM6jvOPm/eQCBKCEZq5gcZVMX/6a6mKVXr7V2ml6zz33NNWXeoG6B7E5Hw+1a+RnhuYO9dUExlHZh+XcRNloV/Zbpb+7++PWU65Lv379Jqhbd7lyLX58aa6b7bKeWlK+r+2Cs88+O+eHnflY/RNa3EXLpTup4FhPLZ/fKv91W3ZOya1BJc5bKZDN0a0epZ+HWl6141pyoePh9aoTIAAltHXXwBU9qtKWNeHb6Eu/xMWqEqzW1Xy1gkfTuN24Mup+rJQmLb6pyhx5q4Fn62ZXsnSZPpak3RZve9pppz2ofNWl+SR8vb1GstwtPOe88857Ku78st9zjkfnGWnodX2eSnpnb7bL7xoMGK6Wz2gntaMWt6TUEmqj95Y4+Kil1FNBPDLy2VD5oVJHluoTiPwwqm/3u9+e/MgH/0UGX2GjEsm+cvvRHF4eeeSR0glucYuDT+fOnVOaFzNM3ZixoXV920fU/ry+K48n2cXliELlnnnmmZP0BMLVqnxTfF5xXZTMMvz8IeWlep577rklobJDrzvgucUXWnJp/Xhb58UcNHz+oeP25zR37txmClZbfAd9aOa2W7XOj8XliELHy+v5C9ACSmjnyWy6mz3Y3XHeRLdXNB07duwqjR4FK4Z360ro5/no5zr9f1zoUJRUPe6www77v9AolCugA6PyRqEiYl9XC+1JXfn7qwsYu176TQcQBbseaqkEpxvEFaTjXKDu02GhbpjzP0povzhz5sxD48rRed+sJw1c51s2olqk6W1dnpPTU6ZMCeazHHg0x+scBda/xe2T9ypXgACU0FNP7VukL+ubvvpGLb4S6xaDGsoDRY+Zl23kynfMMcd41vSlqpC3a7Zz5PCwV3/sscdqa1g82Ddwt1C3ULRVYFgadUzlvaZbFbYqHzRN59TfD/qKW9x9Uhe0hyb0zbnssst+eEJ+3AYR7ylYbNe+1npqQWhRMGgiy39Slyn4sDDNkdqkgHG7gq8NY4OQP5dQ68fH4M9Tjut0bNE3+IUOlNcrJEAASsinyrpdV+dtrqhxV924Yh183B1QS+pf1PK4T+UEg4+GmE9WxZgclzx1F06BYY3K+eEPjsXtPPDeiSeeuE2V8FnlZvq6NRV1bg4YCr7Hq4hX7BAoKvhyZjfpyCOPLDUILR6qV8vvqscff/yg0Dp+3YFb3bD79HlcEzruuO39ns/VXcryZrCXVw7vJxcgACU3c6JyqrotI50zSLq42+WEs3I+V2oE6aHsP6eTWZ5aW6co8NylrlywWeKug0aCeqjM6AfeJDjAAQMGbFJlnOkglN2dcwVVq6eHciXzLrroorxaCZlBTd2mL9VK7Bs330eJ92bqPk3yX7KIOw3dsLpODuPbaca4pjFEBs+47W2oY7lS5/eT/xXZuOP8Ob5HAMrjU9XVdpW+9EuTftk9eqZuw6e6ag/WrRXjdcUOTl128PFd52oFxN4pr+Nw92GBKnfiFknUqatls9EtIQXZvr79w0HDCW4F2x76mZNv8Mnel1qBW9Sieq9bt27BgOGkuwwKlIAfrxtgb9Ns8o7Z5aR/10PIVilIjler8p8ViIJlRm2vaQ9+auUidYeDn0fUdrxWcQECUJ6GqpTTVIlGOCeSy+JRFj8jSMFrhCreExrCjvyya9j4/GnTps187bXXbtENmR7SDxbvYXDtv6dWCD+WMbh1+A1NB9iiVsHzap30V0vle3Vxeqryv5xPtyu8l5S7oMu0n/4hQ3fZHIQ0gbO9HrN6nhLX/+PHl4TKdADRMf9drcxhoRxd9rbuDmuEbJiOIa+EenZ5/J5MgGH4ZF4/rq1Zv1/ffffd7zhXkcviyuQbWdVdukiV6ky1bEarcs/ztupqDNUQ+Cl6RGlK9zAVaui40PckhYaWvU167pBG0BIPg+dyvO6OaTRvurp/gzQ5skr2oRbgJj2JcbZbQX4udHawTXfZHIQ04tZCifgWOu8/3Hvvvec6f6QW2mSVUfooWbWSemn6w+Vax3OImodGDLPP3ftUovsMbfey3vth/kT2SvxeZQIEoDxo1RrYf9asWQM9bBuXHM4s2sHEd6wr19DLj83QdvuNGjWqdLbdpEmTuqiFdJArjStbXODx+m5NKYe0TsPm5+Rx+DlvoltCHF0TTTLMufCyFQ8//PB1ixcvPkeB9AEFo+C528RBWUGpiwJGF8+1klWhDM9yURMnTmyj1tThNnRQKc8wfZxln8vxCmz/oWH6yzU5s/SiwFI9AgSgPJzVPSrS7NvL9WUvyPWL7t14XbeYylpNPz5vJ9cg5jIcfHTlX6Gu3OXKXeT91yzyOO0q2UQBZaumEDyivE0dBeg7FYwahiZcpg0dYMpaS4V6zT+ZromP02Xp8+yuADZa946N1G0qLyUuhA3yEiAHlAebci8tNFJUkMemFdrEI2jqcqxs27bt70444YQK/z2vCh1MJW6saQ1blL+ZpGHwq5Wg3xA3S7oSd7tTUZ4xrUDUWwGx2j/Xqjqn3aFcAlAen5JaH/OUAxqmZvu9cTemRhWdpMWUub2HipXE/kJdr2s04jMhquzd/TU/fE3neJW6fivzua2kvPP3Z5U5FSBzfe+v7POkC1YeZCW+TxcsD0zNkSn9I3jKGZyqnM6FzumkE6gOFJ6k6Kcm+p6m7CR1qAKEDsPJZs1PWaxyJypfskxdlZ9l8Emfv87xr8rv1FNSvpnO+WLle1rm8pyjkJ9fd4tK0wq2KMj4Tzn30R8BqJN5IfCjbjUna7L+vbVPnz4VfgZ13LHw3s4CBKAKfCM0B2ehKstEVZQhyl2UXl01K3m1ruJjHJQ0WfEG3+CppLWfg5xzYtRXagcyPwFRLa2F+v1mPaBskm59yOloPd/I20dVXL+e5LEdOe2wbKX0fl3hs1t6fi/0TOvsfWiKQ+lNuXqG0jK5DdcNve18h3w6SZ+9ftTv/iy8TxsqZ7ZRxzRKf6lkukYa5+o4rtfnUt+5Jt/MqiH4iZrjdPOgQYMIPlGYVfgaAagCuPqDdx9oCP0m5TBW+8ZTVzzdrLpSrZTS5/koOOn73yylSXQpv6+r8DmqRC3Sd9KnK6krSzro+HEQKme+Wj4l/pPOGulaoJzPpCSHqYr3gK72s7KDnvfjroaC0Nwk5eW6rvZb4vJd8bMTyQ4+ev3jXMvyepqPdJeG12srmBf4T/ioNXSYyu2q0bA9nbjPHjG0v/etn6+07pMKZN977pUmjG7QnKM/l+37dU0v8H11v9Vzh/ZQ8LHVTQMHDuRv8iT5cCpp3fyfRFVJB/BLKkZX3xs9uVDzgWrrxsga7rY5KJR1EXaoa7ddlWW7Ks4MTaj72SSZK+szVsDordZQsf6G2X4KSjXVxa2R7uLaUJMPtytgb9P8qk/0FzD+SwMFwaf06w8r3q6ymutiMEL3weV1E29lndcvuRwC0E/w6ev2grrqUtR0q8iLH++hK/F2tZy2KiBVyi0VP8FpVdsuS0pKainA1Mo0dCCX3zaPqOVyIGp9uvVfQ/OIto4cOTLvm3hz2RfrIIAAAggggAACCCCAAAIIIIAAAggggAACCCCAAAIIIIAAAggggAACCCCAAAIIIIAAAggggAACCCCAAAIIIIAAAggggAACCCCAAAIIIIAAAggggAACCCCAAAIIIIAAAggggAACCCCAAAIIIIAAAggggAACCCCAAAIIIIAAAggggAACCCCAAAIIIIAAAggggAACCCCAAAIIIIAAAggggAACCCCAAAIIIIAAAggggAACCCCAAAIIIIAAAggggAACCCCAAAIIIIAAAggggAACCCCAAAIIIIAAAggggAACCCCAAAIIIIAAAggggAACCCCAAAIIIIAAAggggAACCCCAAAIIIIAAAggggAACCCCAAAIIIIAAAggggAACCCCAAAIIIIAAAggggAACCCCAAAIIIIAAAggggAACCCCAAAIIIIAAAggggAACCCCAAAIIIIAAAggggAACCCCAAAIIIIAAAggggAACCCCAAAIIIIAAAggggAACCCCAAAIIIIAAAggggAACCCCAAAIIIIAAAggggAACCCCAAAIIIIAAAggggAACCCCAAAIIIIAAAggggAACCCCAAAIIIIAAAggggAACCCCAAAIIIIAAAggggAACCCCAAAIIIIAAAggggAACCCCAAAIIIIAAAggggAACCCCAAAIIIIAAAggggAACCCCAAAIIIIAAAggggAACCCCAAAIIIIAAAggggAACCCCAAAIIIIAAAggggAACCCCAAAIIIIAAAggggAACCCCAAAIIIIAAAghUm8D/A7zc+V2OawRHAAAAAElFTkSuQmCC;" parent="1" vertex="1">
          <mxGeometry x="-393.22" y="-732.47" width="74.48" height="60" as="geometry" />
        </mxCell>
        <mxCell id="fVgRkVASK4dvTecgE4iH-118" value="" style="shape=image;verticalLabelPosition=bottom;labelBackgroundColor=default;verticalAlign=top;aspect=fixed;imageAspect=0;image=data:image/png,iVBORw0KGgoAAAANSUhEUgAAASAAAADoCAYAAABPTzntAAAABHNCSVQICAgIfAhkiAAAGwhJREFUeF7t3QmQFFWex/HivgUVFJVTW2lAnEZRvFBgtZcARFccUXQUcd1QZ1W8JjAGGR2cwVHXhV1XRl05XB1RZxVxVcADWhERD1Q88OTwQkQu5b7292u7jKLIl11ZfRjoNyM6oKsyX2Z+qt4/3/u/l9mpFAsCCCCAAAIIIIAAAggggAACCCCAAAIIIIAAAggggAACCCCAAAIIIIAAAggggAACCCCAAAIIIIAAAggggAACCCCAAAIIIIAAAggggAACCCCAAAIIIIAAAggggAACCCCAAAIIIIAAAggggAACCCCAAAIIIIAAAggggAACCCCAAAIIIIAAAggggAACCCCAAAIIIIAAAggggAACCCCAAAIIIIAAAggggAACCCCAAAIIIIAAAggggAACCCCAAAIIIIAAAggggAACCCCAAAIIIIAAAggggAACCCCAAAIIIIAAAggggAACCCCAAAIIIIAAAggggAACCCCAAAIIIIAAAggggAACCCCAAAIIIIAAAggggAACCCCAAAIIIIAAAggggAACCCCAAAIIIIAAAggggAACCCCAAAIIIIAAAggggAACCCCAAAIIIIAAAggggAACCCCAAAIIIIAAAggggAACCCCAAAIIIIAAAggggAACCCCAAAIIIIAAAggggAACCCCAAAIIIIAAAggggAACCCCAAAIIIIAAAggggAACCCCAAAIIIIAAAggggAACCCCAAAIIIIAAAggggAACCCCAAAIIIIAAAggggAACCCCAAAIIIIAAAggggAACCCCAAAIIIIAAAggggAACCCCAAAIIIIAAAggggMBuLVBjtz763fTgd+zYUe/999+vtXLlytIz2GuvvVKHHHLI5tq1a2/dTU+p2g/7gw8+qLN9+/Y6mYZNmjTZ1qpVq03VfjDsMG8BAlDedMk3fPvttx/+7LPPCj///PMa69atS6kClRZSq1atlCrPDlWeVIcOHVJ77rnn/c2aNbsl+R5+2GLRokUP16hRo1A/V7Rt23ZmvuVU1nY65wE615u2bt366kEHHXRhvuWuWbOm+Jtvvrng008/7awyU2vXrq2xbdu2lAJ6qWGjRo127L///qkDDzzw7fbt21/VsGHD5fnui+2qR4AAVIXOqiAPfPTRRx3eeeedWl988YUrSoF+GrjCeEn/q0BR+rv/VSsoVa9evRX77LPPV506dUq1bNly5n777XeVKnCTN954o/i9994boYqYOvXUU79r06bNCVGHP2/evNe0XpGCzxL9XKgKOStqvep4bdmyZafI4D8XL17cSudRctJJJ/1Dkv0q4Nzz1VdfdXv33XdT+rfpxo0bW8gi1lCO6/WzVHZbunTpklLQ+06tzEirJMfCupUvQACqfNNUSUlJYwWSFxcuXHjIihUrGmzevLlGOtjkuruaNWum6tat6+7ZmtatW09v2rTp0yrvjwpkrd1y2nfffbf17t17QUFBQdfsMl966aX5c+bMKfI+O3bsuEjbX1FUVPRE9npV/btaYoM//vjj0W+99VYbH/Ohhx46q2/fvr1y3e8zzzwzWa3FfgpCjWX4Y4sx1+0d0G3YvHnzbQrEcxT8CEK54lXTerWraT+/iN0oH7Hvd999N/npp5+urVZKkStN0sCThnKF1dU+pRZEU1XAvqpMh6u70dpdDi/Lly+v9fzzzxfp35nqfvTfe++912Uie/tNmzallGtqr2O4RS2iumpR/W91fRBLly49X/seodZfm/Xr15cGglyXb7/99sFHH320pVp83bZs2dLY55LPYnsbfPnll7VkeMwdd9wxUy3HlLpmu3jlUz7bVFygZsWLoAQL6EveTsHiPgWFnqpAx/uLn2/wyRR15XMlVDArSAcfv+/Xv/7665SCXU919R5SS6th1CfhIPbhhx8WKm/yB/30j1qnsl9Tq2WQAt5wdZsKHHySLAsWLLh/6tSpAxQwesow7+CTuU9/DvKrvXr16p4zZszoqbIfUg6pRZLjYt2qESAAVYKrrvSd1d0Y/8ILLxSr8qUyA0UlFB8swhVLLY3U/Pnz+ynvUye0ooOAjrGL1vvzq6++Oii0XmW8rmA3VPu5QS2fwu+//z5REHbwUffxTHUzGyphXRmHs1MZDtq6UKSee+65fp988sn9MmtX6TuhwEQCBKBEXLuuvGTJkg6rVq26TXmOXrqyJqpwu5aW/BXnilq0aOGcUOzGGzZsSKkF1EWBcriO9dTYlfN8U8HnbLV8rnaLK0nLR8GqgYbVJyj4/FqGHl7P8wjK38xB20P32mexWkVjFZhbl78Va1SVAAGoArL6MjdSU/5IVbg+6naVG3ycFFX+IXXAAQd4yPhe/T7MPwoeJRqxSdWvX790JCzXxcGna9euKSWZr1OSeUN52zkIqcVU5CCkkanTyls/yfsaoTpb5V6rINcpSfBRa7G+Euz/ptbIEAWfuuV1W+2jUUKPDjq5PC1tuMcee/zN0xjsa5e4xfvQRSMlgwFqaQ2RS3z0jiuM9yokQBK6AnzqcnVW3ueisiH2YEkeWlcFcYCZ0aBBgxIlg9dp3s8TGsH61BupjPmqvF31b5F++ugK3TKXbpzLPOqoo4YpAT1OFXFz8AAy3nBw0MjU0Sp/5JtvvtlAgevBXLaLW0fHPlRznK5Wa6KT5zeVF0Qyy5o9e3Y95XouUUsydjvP8/H56jwfq1OnTolG1FIKOHM1FeEVl6euVUcl5OfpnBxcCpT0/ldPVwh15XyM/tw05+pCeU9XEV/HnSPvVY0AAShPV33Zf6WcxZX6Ep8QFyzcqiksLPRVe4zmo0xVJZqrOT47tVZ0NX9Bh/GCEqSX6urdN9cK7ASzKl4zBZXcm03akYOQA566Or97/fXX1x9xxBGP58ngYDZIyeZr1ZpInPNRvqypWo7DlZOJHWJ3i6ddu3buZk6R51+OPvro0qCTuWgC4vv63T8pDQS0lWFN5aCG6rjqh1pk7urp+NsqmF2if9fogvBBdrn8XrUCBKA8fVXpihR8znKiNbS4O6Buws1qpWzU/8co+KyJWleVpcGECROKFdB+re7APrnmQByAdBw36Co/RuUmugWhLAgVabsb1HKpr/lCD0UdW9xrCiDnK580XPOTEuV80mUqD9NMrZ/hbjWFFnVVbThZLbWFynVN0byot0Lrpl/X/KglCmw3yuczTYvYV127Yfo3cjM7KIgP0bpTtAIBKFKp6l6M7yxX3X5365KV7+ioYe9ij6iEFne71OJ5VJVmlFo4N4aCj7oLB6vlM1gV5DoFn565Bp/0fpVzcQ7oErVocp9oU7axA5i6PkUKIL9XS2hg6FyiXlfLYrDn+Sh5nFfw0Xk3UfdnqLYPdr08d0izp/+unNmfdIvKjbkEn/Sxqlu6XNvdrBbTH9U6Ghc3D0nd3pTsT5HDgVHnymtVJ0AAysNWwecoBYrBmp8TubUTpWpRpIqLi6/XzN+NkSuVvaicRT8lsn+vllT3pMHHRbj7p1zHaAWDBnH7Cb3nFoCCiUfHblIi+B9D62W+rn359orRyvsUxLVe4srS/vbStiMdBKMWG+oWErd+7tAM5nei1snltTPOOGOVXK9R921qKMFvQ73nXFCXXMpkncoTIAAltFSLoYl+9o4bcleCeXOPHj0mqvvwnr7YwTHlu+66q5fmzAzUhML2cXkkJ2CdSwotmtPim1gHq6I1Cq0T97qDgHIgvkl2jFokp8Stq2A5UMHjDnUX2yRNOGeWq/lInpsU3JW7rzqnqeq+LguulOMbZ5111gY9beAqtYoit3DOzZ+nHVmqV4AAlNDbORq1GtqFEpseAtYo13pduS8IFa3uVtuHH374JJUxWj/HxwUfdx10Z/eKgw8+eHboCu7hdS13qmvYPLTP8l73bSOqgIUKLmMVXE6OWl9D+H31/p2a69PGM73zXRTo9lDCt9ijVKFFXa+ZapFcoacCVDgvI7cdypOt8I2poSF6f566YHRXIGJeUOhDqYLXCUAJUTXnJ6UuWHB41yM2ChaxpSrX8BsFoQlqQcR2u9LB59hjj71fFX+Ey45a3HXzkLJnYVdkcSBTUrm9clv36T6s7pll6ZiPU/kPqZvmAFyR3fi2iPaa+3N3KPA6f6ZW5pW9evVaXKEdZWysXNwODdkvlWFki9TD9coxXadj6l1Z+6Sc8gUIQOUb7bSGK7pHvkL5Gl1FNyrhPDtU7Lhx4454+eWXB6q10ipUhrfVlXqZktezunfv/lcNQV/pyYt+cFlo8exeT66r6OKWjYJPSyVmp2iE7Th1T2op8Jyo452meU+NKxp8fHwO4HHHqlaPcz+JT0VzivbWz4nTp0//VfbG6s5tlN+fGjduHJl08mfhc6uM88veN7+HBQhAYZvId5z38NUyaq6Ou0jK1yxTrmGXPIpuhDxg8uTJh+rq/4DvlI8LPppo5weUTRsyZEgvBZ/rfSC+3cIVM2rxsfi4dFNq1Ns7veYuiFsYoe6cV3ZyXS2hlhrKflrB6BjNeZqllk/pIzFCi8tzuaEuTuZ2HhKPyx9pdKzcW0uyj+PJJ5/cU0HtNwpus+Tw33qUxyGZ6+hz2SzTuzURNPIkbOjgG0qKZ++P3ytHgACU0NGBIyr4pIsJDfeqMo/Sl/slVY4Ocds7+Chhuvb0009fkXlong8Tl4h2dyY0KpdZjpO7Kn+1gtnK8oKQninURBX6xWeffba0coYWl6OWxQq1Mtbq39BqP77uAB7qfnkll+FZz7kuenRHI9kOVUvt3zUy53veuqk7+ZiC0gHZZYQ+H6/nzyXus8kui98rLkAAqrhhuSXceuutrZ966qmTnXyN+4LrKr1eweFLTbq7TXN7rs0s2BU2btu4YJJZTllLZYyGuK9RF29F3HZu8bzyyiuxrQJvr67NcpV1sf4dn0sLqDwwB/m4AJW5vbpbTXScFytvdZtHsrw4WKr72ElBaG52ECrPMM6jvOPm/eQCBKCEZq5gcZVMX/6a6mKVXr7V2ml6zz33NNWXeoG6B7E5Hw+1a+RnhuYO9dUExlHZh+XcRNloV/Zbpb+7++PWU65Lv379Jqhbd7lyLX58aa6b7bKeWlK+r+2Cs88+O+eHnflY/RNa3EXLpTup4FhPLZ/fKv91W3ZOya1BJc5bKZDN0a0epZ+HWl6141pyoePh9aoTIAAltHXXwBU9qtKWNeHb6Eu/xMWqEqzW1Xy1gkfTuN24Mup+rJQmLb6pyhx5q4Fn62ZXsnSZPpak3RZve9pppz2ofNWl+SR8vb1GstwtPOe88857Ku78st9zjkfnGWnodX2eSnpnb7bL7xoMGK6Wz2gntaMWt6TUEmqj95Y4+Kil1FNBPDLy2VD5oVJHluoTiPwwqm/3u9+e/MgH/0UGX2GjEsm+cvvRHF4eeeSR0glucYuDT+fOnVOaFzNM3ZixoXV920fU/ry+K48n2cXliELlnnnmmZP0BMLVqnxTfF5xXZTMMvz8IeWlep577rklobJDrzvgucUXWnJp/Xhb58UcNHz+oeP25zR37txmClZbfAd9aOa2W7XOj8XliELHy+v5C9ACSmjnyWy6mz3Y3XHeRLdXNB07duwqjR4FK4Z360ro5/no5zr9f1zoUJRUPe6www77v9AolCugA6PyRqEiYl9XC+1JXfn7qwsYu176TQcQBbseaqkEpxvEFaTjXKDu02GhbpjzP0povzhz5sxD48rRed+sJw1c51s2olqk6W1dnpPTU6ZMCeazHHg0x+scBda/xe2T9ypXgACU0FNP7VukL+ubvvpGLb4S6xaDGsoDRY+Zl23kynfMMcd41vSlqpC3a7Zz5PCwV3/sscdqa1g82Ddwt1C3ULRVYFgadUzlvaZbFbYqHzRN59TfD/qKW9x9Uhe0hyb0zbnssst+eEJ+3AYR7ylYbNe+1npqQWhRMGgiy39Slyn4sDDNkdqkgHG7gq8NY4OQP5dQ68fH4M9Tjut0bNE3+IUOlNcrJEAASsinyrpdV+dtrqhxV924Yh183B1QS+pf1PK4T+UEg4+GmE9WxZgclzx1F06BYY3K+eEPjsXtPPDeiSeeuE2V8FnlZvq6NRV1bg4YCr7Hq4hX7BAoKvhyZjfpyCOPLDUILR6qV8vvqscff/yg0Dp+3YFb3bD79HlcEzruuO39ns/VXcryZrCXVw7vJxcgACU3c6JyqrotI50zSLq42+WEs3I+V2oE6aHsP6eTWZ5aW6co8NylrlywWeKug0aCeqjM6AfeJDjAAQMGbFJlnOkglN2dcwVVq6eHciXzLrroorxaCZlBTd2mL9VK7Bs330eJ92bqPk3yX7KIOw3dsLpODuPbaca4pjFEBs+47W2oY7lS5/eT/xXZuOP8Ob5HAMrjU9XVdpW+9EuTftk9eqZuw6e6ag/WrRXjdcUOTl128PFd52oFxN4pr+Nw92GBKnfiFknUqatls9EtIQXZvr79w0HDCW4F2x76mZNv8Mnel1qBW9Sieq9bt27BgOGkuwwKlIAfrxtgb9Ns8o7Z5aR/10PIVilIjler8p8ViIJlRm2vaQ9+auUidYeDn0fUdrxWcQECUJ6GqpTTVIlGOCeSy+JRFj8jSMFrhCreExrCjvyya9j4/GnTps187bXXbtENmR7SDxbvYXDtv6dWCD+WMbh1+A1NB9iiVsHzap30V0vle3Vxeqryv5xPtyu8l5S7oMu0n/4hQ3fZHIQ0gbO9HrN6nhLX/+PHl4TKdADRMf9drcxhoRxd9rbuDmuEbJiOIa+EenZ5/J5MgGH4ZF4/rq1Zv1/ffffd7zhXkcviyuQbWdVdukiV6ky1bEarcs/ztupqDNUQ+Cl6RGlK9zAVaui40PckhYaWvU167pBG0BIPg+dyvO6OaTRvurp/gzQ5skr2oRbgJj2JcbZbQX4udHawTXfZHIQ04tZCifgWOu8/3Hvvvec6f6QW2mSVUfooWbWSemn6w+Vax3OImodGDLPP3ftUovsMbfey3vth/kT2SvxeZQIEoDxo1RrYf9asWQM9bBuXHM4s2sHEd6wr19DLj83QdvuNGjWqdLbdpEmTuqiFdJArjStbXODx+m5NKYe0TsPm5+Rx+DlvoltCHF0TTTLMufCyFQ8//PB1ixcvPkeB9AEFo+C528RBWUGpiwJGF8+1klWhDM9yURMnTmyj1tThNnRQKc8wfZxln8vxCmz/oWH6yzU5s/SiwFI9AgSgPJzVPSrS7NvL9WUvyPWL7t14XbeYylpNPz5vJ9cg5jIcfHTlX6Gu3OXKXeT91yzyOO0q2UQBZaumEDyivE0dBeg7FYwahiZcpg0dYMpaS4V6zT+ZromP02Xp8+yuADZa946N1G0qLyUuhA3yEiAHlAebci8tNFJUkMemFdrEI2jqcqxs27bt70444YQK/z2vCh1MJW6saQ1blL+ZpGHwq5Wg3xA3S7oSd7tTUZ4xrUDUWwGx2j/Xqjqn3aFcAlAen5JaH/OUAxqmZvu9cTemRhWdpMWUub2HipXE/kJdr2s04jMhquzd/TU/fE3neJW6fivzua2kvPP3Z5U5FSBzfe+v7POkC1YeZCW+TxcsD0zNkSn9I3jKGZyqnM6FzumkE6gOFJ6k6Kcm+p6m7CR1qAKEDsPJZs1PWaxyJypfskxdlZ9l8Emfv87xr8rv1FNSvpnO+WLle1rm8pyjkJ9fd4tK0wq2KMj4Tzn30R8BqJN5IfCjbjUna7L+vbVPnz4VfgZ13LHw3s4CBKAKfCM0B2ehKstEVZQhyl2UXl01K3m1ruJjHJQ0WfEG3+CppLWfg5xzYtRXagcyPwFRLa2F+v1mPaBskm59yOloPd/I20dVXL+e5LEdOe2wbKX0fl3hs1t6fi/0TOvsfWiKQ+lNuXqG0jK5DdcNve18h3w6SZ+9ftTv/iy8TxsqZ7ZRxzRKf6lkukYa5+o4rtfnUt+5Jt/MqiH4iZrjdPOgQYMIPlGYVfgaAagCuPqDdx9oCP0m5TBW+8ZTVzzdrLpSrZTS5/koOOn73yylSXQpv6+r8DmqRC3Sd9KnK6krSzro+HEQKme+Wj4l/pPOGulaoJzPpCSHqYr3gK72s7KDnvfjroaC0Nwk5eW6rvZb4vJd8bMTyQ4+ev3jXMvyepqPdJeG12srmBf4T/ioNXSYyu2q0bA9nbjPHjG0v/etn6+07pMKZN977pUmjG7QnKM/l+37dU0v8H11v9Vzh/ZQ8LHVTQMHDuRv8iT5cCpp3fyfRFVJB/BLKkZX3xs9uVDzgWrrxsga7rY5KJR1EXaoa7ddlWW7Ks4MTaj72SSZK+szVsDordZQsf6G2X4KSjXVxa2R7uLaUJMPtytgb9P8qk/0FzD+SwMFwaf06w8r3q6ymutiMEL3weV1E29lndcvuRwC0E/w6ev2grrqUtR0q8iLH++hK/F2tZy2KiBVyi0VP8FpVdsuS0pKainA1Mo0dCCX3zaPqOVyIGp9uvVfQ/OIto4cOTLvm3hz2RfrIIAAAggggAACCCCAAAIIIIAAAggggAACCCCAAAIIIIAAAggggAACCCCAAAIIIIAAAggggAACCCCAAAIIIIAAAggggAACCCCAAAIIIIAAAggggAACCCCAAAIIIIAAAggggAACCCCAAAIIIIAAAggggAACCCCAAAIIIIAAAggggAACCCCAAAIIIIAAAggggAACCCCAAAIIIIAAAggggAACCCCAAAIIIIAAAggggAACCCCAAAIIIIAAAggggAACCCCAAAIIIIAAAggggAACCCCAAAIIIIAAAggggAACCCCAAAIIIIAAAggggAACCCCAAAIIIIAAAggggAACCCCAAAIIIIAAAggggAACCCCAAAIIIIAAAggggAACCCCAAAIIIIAAAggggAACCCCAAAIIIIAAAggggAACCCCAAAIIIIAAAggggAACCCCAAAIIIIAAAggggAACCCCAAAIIIIAAAggggAACCCCAAAIIIIAAAggggAACCCCAAAIIIIAAAggggAACCCCAAAIIIIAAAggggAACCCCAAAIIIIAAAggggAACCCCAAAIIIIAAAggggAACCCCAAAIIIIAAAggggAACCCCAAAIIIIAAAggggAACCCCAAAIIIIAAAggggAACCCCAAAIIIIAAAggggAACCCCAAAIIIIAAAggggAACCCCAAAIIIIAAAggggAACCCCAAAIIIIAAAggggAACCCCAAAIIIIAAAggggAACCCCAAAIIIIAAAggggAACCCCAAAIIIIAAAghUm8D/A7zc+V2OawRHAAAAAElFTkSuQmCC;" parent="1" vertex="1">
          <mxGeometry x="-550" y="-696.76" width="74.48" height="60" as="geometry" />
        </mxCell>
        <mxCell id="fVgRkVASK4dvTecgE4iH-119" value="" style="shape=image;verticalLabelPosition=bottom;labelBackgroundColor=default;verticalAlign=top;aspect=fixed;imageAspect=0;image=data:image/png,iVBORw0KGgoAAAANSUhEUgAAASAAAADoCAYAAABPTzntAAAABHNCSVQICAgIfAhkiAAAGwhJREFUeF7t3QmQFFWex/HivgUVFJVTW2lAnEZRvFBgtZcARFccUXQUcd1QZ1W8JjAGGR2cwVHXhV1XRl05XB1RZxVxVcADWhERD1Q88OTwQkQu5b7292u7jKLIl11ZfRjoNyM6oKsyX2Z+qt4/3/u/l9mpFAsCCCCAAAIIIIAAAggggAACCCCAAAIIIIAAAggggAACCCCAAAIIIIAAAggggAACCCCAAAIIIIAAAggggAACCCCAAAIIIIAAAggggAACCCCAAAIIIIAAAggggAACCCCAAAIIIIAAAggggAACCCCAAAIIIIAAAggggAACCCCAAAIIIIAAAggggAACCCCAAAIIIIAAAggggAACCCCAAAIIIIAAAggggAACCCCAAAIIIIAAAggggAACCCCAAAIIIIAAAggggAACCCCAAAIIIIAAAggggAACCCCAAAIIIIAAAggggAACCCCAAAIIIIAAAggggAACCCCAAAIIIIAAAggggAACCCCAAAIIIIAAAggggAACCCCAAAIIIIAAAggggAACCCCAAAIIIIAAAggggAACCCCAAAIIIIAAAggggAACCCCAAAIIIIAAAggggAACCCCAAAIIIIAAAggggAACCCCAAAIIIIAAAggggAACCCCAAAIIIIAAAggggAACCCCAAAIIIIAAAggggAACCCCAAAIIIIAAAggggAACCCCAAAIIIIAAAggggAACCCCAAAIIIIAAAggggAACCCCAAAIIIIAAAggggAACCCCAAAIIIIAAAggggAACCCCAAAIIIIAAAggggAACCCCAAAIIIIAAAggggMBuLVBjtz763fTgd+zYUe/999+vtXLlytIz2GuvvVKHHHLI5tq1a2/dTU+p2g/7gw8+qLN9+/Y6mYZNmjTZ1qpVq03VfjDsMG8BAlDedMk3fPvttx/+7LPPCj///PMa69atS6kClRZSq1atlCrPDlWeVIcOHVJ77rnn/c2aNbsl+R5+2GLRokUP16hRo1A/V7Rt23ZmvuVU1nY65wE615u2bt366kEHHXRhvuWuWbOm+Jtvvrng008/7awyU2vXrq2xbdu2lAJ6qWGjRo127L///qkDDzzw7fbt21/VsGHD5fnui+2qR4AAVIXOqiAPfPTRRx3eeeedWl988YUrSoF+GrjCeEn/q0BR+rv/VSsoVa9evRX77LPPV506dUq1bNly5n777XeVKnCTN954o/i9994boYqYOvXUU79r06bNCVGHP2/evNe0XpGCzxL9XKgKOStqvep4bdmyZafI4D8XL17cSudRctJJJ/1Dkv0q4Nzz1VdfdXv33XdT+rfpxo0bW8gi1lCO6/WzVHZbunTpklLQ+06tzEirJMfCupUvQACqfNNUSUlJYwWSFxcuXHjIihUrGmzevLlGOtjkuruaNWum6tat6+7ZmtatW09v2rTp0yrvjwpkrd1y2nfffbf17t17QUFBQdfsMl966aX5c+bMKfI+O3bsuEjbX1FUVPRE9npV/btaYoM//vjj0W+99VYbH/Ohhx46q2/fvr1y3e8zzzwzWa3FfgpCjWX4Y4sx1+0d0G3YvHnzbQrEcxT8CEK54lXTerWraT+/iN0oH7Hvd999N/npp5+urVZKkStN0sCThnKF1dU+pRZEU1XAvqpMh6u70dpdDi/Lly+v9fzzzxfp35nqfvTfe++912Uie/tNmzallGtqr2O4RS2iumpR/W91fRBLly49X/seodZfm/Xr15cGglyXb7/99sFHH320pVp83bZs2dLY55LPYnsbfPnll7VkeMwdd9wxUy3HlLpmu3jlUz7bVFygZsWLoAQL6EveTsHiPgWFnqpAx/uLn2/wyRR15XMlVDArSAcfv+/Xv/7665SCXU919R5SS6th1CfhIPbhhx8WKm/yB/30j1qnsl9Tq2WQAt5wdZsKHHySLAsWLLh/6tSpAxQwesow7+CTuU9/DvKrvXr16p4zZszoqbIfUg6pRZLjYt2qESAAVYKrrvSd1d0Y/8ILLxSr8qUyA0UlFB8swhVLLY3U/Pnz+ynvUye0ooOAjrGL1vvzq6++Oii0XmW8rmA3VPu5QS2fwu+//z5REHbwUffxTHUzGyphXRmHs1MZDtq6UKSee+65fp988sn9MmtX6TuhwEQCBKBEXLuuvGTJkg6rVq26TXmOXrqyJqpwu5aW/BXnilq0aOGcUOzGGzZsSKkF1EWBcriO9dTYlfN8U8HnbLV8rnaLK0nLR8GqgYbVJyj4/FqGHl7P8wjK38xB20P32mexWkVjFZhbl78Va1SVAAGoArL6MjdSU/5IVbg+6naVG3ycFFX+IXXAAQd4yPhe/T7MPwoeJRqxSdWvX790JCzXxcGna9euKSWZr1OSeUN52zkIqcVU5CCkkanTyls/yfsaoTpb5V6rINcpSfBRa7G+Euz/ptbIEAWfuuV1W+2jUUKPDjq5PC1tuMcee/zN0xjsa5e4xfvQRSMlgwFqaQ2RS3z0jiuM9yokQBK6AnzqcnVW3ueisiH2YEkeWlcFcYCZ0aBBgxIlg9dp3s8TGsH61BupjPmqvF31b5F++ugK3TKXbpzLPOqoo4YpAT1OFXFz8AAy3nBw0MjU0Sp/5JtvvtlAgevBXLaLW0fHPlRznK5Wa6KT5zeVF0Qyy5o9e3Y95XouUUsydjvP8/H56jwfq1OnTolG1FIKOHM1FeEVl6euVUcl5OfpnBxcCpT0/ldPVwh15XyM/tw05+pCeU9XEV/HnSPvVY0AAShPV33Zf6WcxZX6Ep8QFyzcqiksLPRVe4zmo0xVJZqrOT47tVZ0NX9Bh/GCEqSX6urdN9cK7ASzKl4zBZXcm03akYOQA566Or97/fXX1x9xxBGP58ngYDZIyeZr1ZpInPNRvqypWo7DlZOJHWJ3i6ddu3buZk6R51+OPvro0qCTuWgC4vv63T8pDQS0lWFN5aCG6rjqh1pk7urp+NsqmF2if9fogvBBdrn8XrUCBKA8fVXpihR8znKiNbS4O6Buws1qpWzU/8co+KyJWleVpcGECROKFdB+re7APrnmQByAdBw36Co/RuUmugWhLAgVabsb1HKpr/lCD0UdW9xrCiDnK580XPOTEuV80mUqD9NMrZ/hbjWFFnVVbThZLbWFynVN0byot0Lrpl/X/KglCmw3yuczTYvYV127Yfo3cjM7KIgP0bpTtAIBKFKp6l6M7yxX3X5365KV7+ioYe9ij6iEFne71OJ5VJVmlFo4N4aCj7oLB6vlM1gV5DoFn565Bp/0fpVzcQ7oErVocp9oU7axA5i6PkUKIL9XS2hg6FyiXlfLYrDn+Sh5nFfw0Xk3UfdnqLYPdr08d0izp/+unNmfdIvKjbkEn/Sxqlu6XNvdrBbTH9U6Ghc3D0nd3pTsT5HDgVHnymtVJ0AAysNWwecoBYrBmp8TubUTpWpRpIqLi6/XzN+NkSuVvaicRT8lsn+vllT3pMHHRbj7p1zHaAWDBnH7Cb3nFoCCiUfHblIi+B9D62W+rn359orRyvsUxLVe4srS/vbStiMdBKMWG+oWErd+7tAM5nei1snltTPOOGOVXK9R921qKMFvQ73nXFCXXMpkncoTIAAltFSLoYl+9o4bcleCeXOPHj0mqvvwnr7YwTHlu+66q5fmzAzUhML2cXkkJ2CdSwotmtPim1gHq6I1Cq0T97qDgHIgvkl2jFokp8Stq2A5UMHjDnUX2yRNOGeWq/lInpsU3JW7rzqnqeq+LguulOMbZ5111gY9beAqtYoit3DOzZ+nHVmqV4AAlNDbORq1GtqFEpseAtYo13pduS8IFa3uVtuHH374JJUxWj/HxwUfdx10Z/eKgw8+eHboCu7hdS13qmvYPLTP8l73bSOqgIUKLmMVXE6OWl9D+H31/p2a69PGM73zXRTo9lDCt9ijVKFFXa+ZapFcoacCVDgvI7cdypOt8I2poSF6f566YHRXIGJeUOhDqYLXCUAJUTXnJ6UuWHB41yM2ChaxpSrX8BsFoQlqQcR2u9LB59hjj71fFX+Ey45a3HXzkLJnYVdkcSBTUrm9clv36T6s7pll6ZiPU/kPqZvmAFyR3fi2iPaa+3N3KPA6f6ZW5pW9evVaXKEdZWysXNwODdkvlWFki9TD9coxXadj6l1Z+6Sc8gUIQOUb7bSGK7pHvkL5Gl1FNyrhPDtU7Lhx4454+eWXB6q10ipUhrfVlXqZktezunfv/lcNQV/pyYt+cFlo8exeT66r6OKWjYJPSyVmp2iE7Th1T2op8Jyo452meU+NKxp8fHwO4HHHqlaPcz+JT0VzivbWz4nTp0//VfbG6s5tlN+fGjduHJl08mfhc6uM88veN7+HBQhAYZvId5z38NUyaq6Ou0jK1yxTrmGXPIpuhDxg8uTJh+rq/4DvlI8LPppo5weUTRsyZEgvBZ/rfSC+3cIVM2rxsfi4dFNq1Ns7veYuiFsYoe6cV3ZyXS2hlhrKflrB6BjNeZqllk/pIzFCi8tzuaEuTuZ2HhKPyx9pdKzcW0uyj+PJJ5/cU0HtNwpus+Tw33qUxyGZ6+hz2SzTuzURNPIkbOjgG0qKZ++P3ytHgACU0NGBIyr4pIsJDfeqMo/Sl/slVY4Ocds7+Chhuvb0009fkXlong8Tl4h2dyY0KpdZjpO7Kn+1gtnK8oKQninURBX6xWeffba0coYWl6OWxQq1Mtbq39BqP77uAB7qfnkll+FZz7kuenRHI9kOVUvt3zUy53veuqk7+ZiC0gHZZYQ+H6/nzyXus8kui98rLkAAqrhhuSXceuutrZ966qmTnXyN+4LrKr1eweFLTbq7TXN7rs0s2BU2btu4YJJZTllLZYyGuK9RF29F3HZu8bzyyiuxrQJvr67NcpV1sf4dn0sLqDwwB/m4AJW5vbpbTXScFytvdZtHsrw4WKr72ElBaG52ECrPMM6jvOPm/eQCBKCEZq5gcZVMX/6a6mKVXr7V2ml6zz33NNWXeoG6B7E5Hw+1a+RnhuYO9dUExlHZh+XcRNloV/Zbpb+7++PWU65Lv379Jqhbd7lyLX58aa6b7bKeWlK+r+2Cs88+O+eHnflY/RNa3EXLpTup4FhPLZ/fKv91W3ZOya1BJc5bKZDN0a0epZ+HWl6141pyoePh9aoTIAAltHXXwBU9qtKWNeHb6Eu/xMWqEqzW1Xy1gkfTuN24Mup+rJQmLb6pyhx5q4Fn62ZXsnSZPpak3RZve9pppz2ofNWl+SR8vb1GstwtPOe88857Ku78st9zjkfnGWnodX2eSnpnb7bL7xoMGK6Wz2gntaMWt6TUEmqj95Y4+Kil1FNBPDLy2VD5oVJHluoTiPwwqm/3u9+e/MgH/0UGX2GjEsm+cvvRHF4eeeSR0glucYuDT+fOnVOaFzNM3ZixoXV920fU/ry+K48n2cXliELlnnnmmZP0BMLVqnxTfF5xXZTMMvz8IeWlep577rklobJDrzvgucUXWnJp/Xhb58UcNHz+oeP25zR37txmClZbfAd9aOa2W7XOj8XliELHy+v5C9ACSmjnyWy6mz3Y3XHeRLdXNB07duwqjR4FK4Z360ro5/no5zr9f1zoUJRUPe6www77v9AolCugA6PyRqEiYl9XC+1JXfn7qwsYu176TQcQBbseaqkEpxvEFaTjXKDu02GhbpjzP0povzhz5sxD48rRed+sJw1c51s2olqk6W1dnpPTU6ZMCeazHHg0x+scBda/xe2T9ypXgACU0FNP7VukL+ubvvpGLb4S6xaDGsoDRY+Zl23kynfMMcd41vSlqpC3a7Zz5PCwV3/sscdqa1g82Ddwt1C3ULRVYFgadUzlvaZbFbYqHzRN59TfD/qKW9x9Uhe0hyb0zbnssst+eEJ+3AYR7ylYbNe+1npqQWhRMGgiy39Slyn4sDDNkdqkgHG7gq8NY4OQP5dQ68fH4M9Tjut0bNE3+IUOlNcrJEAASsinyrpdV+dtrqhxV924Yh183B1QS+pf1PK4T+UEg4+GmE9WxZgclzx1F06BYY3K+eEPjsXtPPDeiSeeuE2V8FnlZvq6NRV1bg4YCr7Hq4hX7BAoKvhyZjfpyCOPLDUILR6qV8vvqscff/yg0Dp+3YFb3bD79HlcEzruuO39ns/VXcryZrCXVw7vJxcgACU3c6JyqrotI50zSLq42+WEs3I+V2oE6aHsP6eTWZ5aW6co8NylrlywWeKug0aCeqjM6AfeJDjAAQMGbFJlnOkglN2dcwVVq6eHciXzLrroorxaCZlBTd2mL9VK7Bs330eJ92bqPk3yX7KIOw3dsLpODuPbaca4pjFEBs+47W2oY7lS5/eT/xXZuOP8Ob5HAMrjU9XVdpW+9EuTftk9eqZuw6e6ag/WrRXjdcUOTl128PFd52oFxN4pr+Nw92GBKnfiFknUqatls9EtIQXZvr79w0HDCW4F2x76mZNv8Mnel1qBW9Sieq9bt27BgOGkuwwKlIAfrxtgb9Ns8o7Z5aR/10PIVilIjler8p8ViIJlRm2vaQ9+auUidYeDn0fUdrxWcQECUJ6GqpTTVIlGOCeSy+JRFj8jSMFrhCreExrCjvyya9j4/GnTps187bXXbtENmR7SDxbvYXDtv6dWCD+WMbh1+A1NB9iiVsHzap30V0vle3Vxeqryv5xPtyu8l5S7oMu0n/4hQ3fZHIQ0gbO9HrN6nhLX/+PHl4TKdADRMf9drcxhoRxd9rbuDmuEbJiOIa+EenZ5/J5MgGH4ZF4/rq1Zv1/ffffd7zhXkcviyuQbWdVdukiV6ky1bEarcs/ztupqDNUQ+Cl6RGlK9zAVaui40PckhYaWvU167pBG0BIPg+dyvO6OaTRvurp/gzQ5skr2oRbgJj2JcbZbQX4udHawTXfZHIQ04tZCifgWOu8/3Hvvvec6f6QW2mSVUfooWbWSemn6w+Vax3OImodGDLPP3ftUovsMbfey3vth/kT2SvxeZQIEoDxo1RrYf9asWQM9bBuXHM4s2sHEd6wr19DLj83QdvuNGjWqdLbdpEmTuqiFdJArjStbXODx+m5NKYe0TsPm5+Rx+DlvoltCHF0TTTLMufCyFQ8//PB1ixcvPkeB9AEFo+C528RBWUGpiwJGF8+1klWhDM9yURMnTmyj1tThNnRQKc8wfZxln8vxCmz/oWH6yzU5s/SiwFI9AgSgPJzVPSrS7NvL9WUvyPWL7t14XbeYylpNPz5vJ9cg5jIcfHTlX6Gu3OXKXeT91yzyOO0q2UQBZaumEDyivE0dBeg7FYwahiZcpg0dYMpaS4V6zT+ZromP02Xp8+yuADZa946N1G0qLyUuhA3yEiAHlAebci8tNFJUkMemFdrEI2jqcqxs27bt70444YQK/z2vCh1MJW6saQ1blL+ZpGHwq5Wg3xA3S7oSd7tTUZ4xrUDUWwGx2j/Xqjqn3aFcAlAen5JaH/OUAxqmZvu9cTemRhWdpMWUub2HipXE/kJdr2s04jMhquzd/TU/fE3neJW6fivzua2kvPP3Z5U5FSBzfe+v7POkC1YeZCW+TxcsD0zNkSn9I3jKGZyqnM6FzumkE6gOFJ6k6Kcm+p6m7CR1qAKEDsPJZs1PWaxyJypfskxdlZ9l8Emfv87xr8rv1FNSvpnO+WLle1rm8pyjkJ9fd4tK0wq2KMj4Tzn30R8BqJN5IfCjbjUna7L+vbVPnz4VfgZ13LHw3s4CBKAKfCM0B2ehKstEVZQhyl2UXl01K3m1ruJjHJQ0WfEG3+CppLWfg5xzYtRXagcyPwFRLa2F+v1mPaBskm59yOloPd/I20dVXL+e5LEdOe2wbKX0fl3hs1t6fi/0TOvsfWiKQ+lNuXqG0jK5DdcNve18h3w6SZ+9ftTv/iy8TxsqZ7ZRxzRKf6lkukYa5+o4rtfnUt+5Jt/MqiH4iZrjdPOgQYMIPlGYVfgaAagCuPqDdx9oCP0m5TBW+8ZTVzzdrLpSrZTS5/koOOn73yylSXQpv6+r8DmqRC3Sd9KnK6krSzro+HEQKme+Wj4l/pPOGulaoJzPpCSHqYr3gK72s7KDnvfjroaC0Nwk5eW6rvZb4vJd8bMTyQ4+ev3jXMvyepqPdJeG12srmBf4T/ioNXSYyu2q0bA9nbjPHjG0v/etn6+07pMKZN977pUmjG7QnKM/l+37dU0v8H11v9Vzh/ZQ8LHVTQMHDuRv8iT5cCpp3fyfRFVJB/BLKkZX3xs9uVDzgWrrxsga7rY5KJR1EXaoa7ddlWW7Ks4MTaj72SSZK+szVsDordZQsf6G2X4KSjXVxa2R7uLaUJMPtytgb9P8qk/0FzD+SwMFwaf06w8r3q6ymutiMEL3weV1E29lndcvuRwC0E/w6ev2grrqUtR0q8iLH++hK/F2tZy2KiBVyi0VP8FpVdsuS0pKainA1Mo0dCCX3zaPqOVyIGp9uvVfQ/OIto4cOTLvm3hz2RfrIIAAAggggAACCCCAAAIIIIAAAggggAACCCCAAAIIIIAAAggggAACCCCAAAIIIIAAAggggAACCCCAAAIIIIAAAggggAACCCCAAAIIIIAAAggggAACCCCAAAIIIIAAAggggAACCCCAAAIIIIAAAggggAACCCCAAAIIIIAAAggggAACCCCAAAIIIIAAAggggAACCCCAAAIIIIAAAggggAACCCCAAAIIIIAAAggggAACCCCAAAIIIIAAAggggAACCCCAAAIIIIAAAggggAACCCCAAAIIIIAAAggggAACCCCAAAIIIIAAAggggAACCCCAAAIIIIAAAggggAACCCCAAAIIIIAAAggggAACCCCAAAIIIIAAAggggAACCCCAAAIIIIAAAggggAACCCCAAAIIIIAAAggggAACCCCAAAIIIIAAAggggAACCCCAAAIIIIAAAggggAACCCCAAAIIIIAAAggggAACCCCAAAIIIIAAAggggAACCCCAAAIIIIAAAggggAACCCCAAAIIIIAAAggggAACCCCAAAIIIIAAAggggAACCCCAAAIIIIAAAggggAACCCCAAAIIIIAAAggggAACCCCAAAIIIIAAAggggAACCCCAAAIIIIAAAggggAACCCCAAAIIIIAAAggggAACCCCAAAIIIIAAAggggAACCCCAAAIIIIAAAggggAACCCCAAAIIIIAAAggggAACCCCAAAIIIIAAAggggAACCCCAAAIIIIAAAggggAACCCCAAAIIIIAAAghUm8D/A7zc+V2OawRHAAAAAElFTkSuQmCC;" parent="1" vertex="1">
          <mxGeometry x="-550" y="-715.76" width="74.48" height="60" as="geometry" />
        </mxCell>
        <mxCell id="fVgRkVASK4dvTecgE4iH-120" value="" style="shape=image;verticalLabelPosition=bottom;labelBackgroundColor=default;verticalAlign=top;aspect=fixed;imageAspect=0;image=data:image/png,iVBORw0KGgoAAAANSUhEUgAAASAAAADoCAYAAABPTzntAAAABHNCSVQICAgIfAhkiAAAGwhJREFUeF7t3QmQFFWex/HivgUVFJVTW2lAnEZRvFBgtZcARFccUXQUcd1QZ1W8JjAGGR2cwVHXhV1XRl05XB1RZxVxVcADWhERD1Q88OTwQkQu5b7292u7jKLIl11ZfRjoNyM6oKsyX2Z+qt4/3/u/l9mpFAsCCCCAAAIIIIAAAggggAACCCCAAAIIIIAAAggggAACCCCAAAIIIIAAAggggAACCCCAAAIIIIAAAggggAACCCCAAAIIIIAAAggggAACCCCAAAIIIIAAAggggAACCCCAAAIIIIAAAggggAACCCCAAAIIIIAAAggggAACCCCAAAIIIIAAAggggAACCCCAAAIIIIAAAggggAACCCCAAAIIIIAAAggggAACCCCAAAIIIIAAAggggAACCCCAAAIIIIAAAggggAACCCCAAAIIIIAAAggggAACCCCAAAIIIIAAAggggAACCCCAAAIIIIAAAggggAACCCCAAAIIIIAAAggggAACCCCAAAIIIIAAAggggAACCCCAAAIIIIAAAggggAACCCCAAAIIIIAAAggggAACCCCAAAIIIIAAAggggAACCCCAAAIIIIAAAggggAACCCCAAAIIIIAAAggggAACCCCAAAIIIIAAAggggAACCCCAAAIIIIAAAggggAACCCCAAAIIIIAAAggggAACCCCAAAIIIIAAAggggAACCCCAAAIIIIAAAggggAACCCCAAAIIIIAAAggggAACCCCAAAIIIIAAAggggAACCCCAAAIIIIAAAggggAACCCCAAAIIIIAAAggggAACCCCAAAIIIIAAAggggMBuLVBjtz763fTgd+zYUe/999+vtXLlytIz2GuvvVKHHHLI5tq1a2/dTU+p2g/7gw8+qLN9+/Y6mYZNmjTZ1qpVq03VfjDsMG8BAlDedMk3fPvttx/+7LPPCj///PMa69atS6kClRZSq1atlCrPDlWeVIcOHVJ77rnn/c2aNbsl+R5+2GLRokUP16hRo1A/V7Rt23ZmvuVU1nY65wE615u2bt366kEHHXRhvuWuWbOm+Jtvvrng008/7awyU2vXrq2xbdu2lAJ6qWGjRo127L///qkDDzzw7fbt21/VsGHD5fnui+2qR4AAVIXOqiAPfPTRRx3eeeedWl988YUrSoF+GrjCeEn/q0BR+rv/VSsoVa9evRX77LPPV506dUq1bNly5n777XeVKnCTN954o/i9994boYqYOvXUU79r06bNCVGHP2/evNe0XpGCzxL9XKgKOStqvep4bdmyZafI4D8XL17cSudRctJJJ/1Dkv0q4Nzz1VdfdXv33XdT+rfpxo0bW8gi1lCO6/WzVHZbunTpklLQ+06tzEirJMfCupUvQACqfNNUSUlJYwWSFxcuXHjIihUrGmzevLlGOtjkuruaNWum6tat6+7ZmtatW09v2rTp0yrvjwpkrd1y2nfffbf17t17QUFBQdfsMl966aX5c+bMKfI+O3bsuEjbX1FUVPRE9npV/btaYoM//vjj0W+99VYbH/Ohhx46q2/fvr1y3e8zzzwzWa3FfgpCjWX4Y4sx1+0d0G3YvHnzbQrEcxT8CEK54lXTerWraT+/iN0oH7Hvd999N/npp5+urVZKkStN0sCThnKF1dU+pRZEU1XAvqpMh6u70dpdDi/Lly+v9fzzzxfp35nqfvTfe++912Uie/tNmzallGtqr2O4RS2iumpR/W91fRBLly49X/seodZfm/Xr15cGglyXb7/99sFHH320pVp83bZs2dLY55LPYnsbfPnll7VkeMwdd9wxUy3HlLpmu3jlUz7bVFygZsWLoAQL6EveTsHiPgWFnqpAx/uLn2/wyRR15XMlVDArSAcfv+/Xv/7665SCXU919R5SS6th1CfhIPbhhx8WKm/yB/30j1qnsl9Tq2WQAt5wdZsKHHySLAsWLLh/6tSpAxQwesow7+CTuU9/DvKrvXr16p4zZszoqbIfUg6pRZLjYt2qESAAVYKrrvSd1d0Y/8ILLxSr8qUyA0UlFB8swhVLLY3U/Pnz+ynvUye0ooOAjrGL1vvzq6++Oii0XmW8rmA3VPu5QS2fwu+//z5REHbwUffxTHUzGyphXRmHs1MZDtq6UKSee+65fp988sn9MmtX6TuhwEQCBKBEXLuuvGTJkg6rVq26TXmOXrqyJqpwu5aW/BXnilq0aOGcUOzGGzZsSKkF1EWBcriO9dTYlfN8U8HnbLV8rnaLK0nLR8GqgYbVJyj4/FqGHl7P8wjK38xB20P32mexWkVjFZhbl78Va1SVAAGoArL6MjdSU/5IVbg+6naVG3ycFFX+IXXAAQd4yPhe/T7MPwoeJRqxSdWvX790JCzXxcGna9euKSWZr1OSeUN52zkIqcVU5CCkkanTyls/yfsaoTpb5V6rINcpSfBRa7G+Euz/ptbIEAWfuuV1W+2jUUKPDjq5PC1tuMcee/zN0xjsa5e4xfvQRSMlgwFqaQ2RS3z0jiuM9yokQBK6AnzqcnVW3ueisiH2YEkeWlcFcYCZ0aBBgxIlg9dp3s8TGsH61BupjPmqvF31b5F++ugK3TKXbpzLPOqoo4YpAT1OFXFz8AAy3nBw0MjU0Sp/5JtvvtlAgevBXLaLW0fHPlRznK5Wa6KT5zeVF0Qyy5o9e3Y95XouUUsydjvP8/H56jwfq1OnTolG1FIKOHM1FeEVl6euVUcl5OfpnBxcCpT0/ldPVwh15XyM/tw05+pCeU9XEV/HnSPvVY0AAShPV33Zf6WcxZX6Ep8QFyzcqiksLPRVe4zmo0xVJZqrOT47tVZ0NX9Bh/GCEqSX6urdN9cK7ASzKl4zBZXcm03akYOQA566Or97/fXX1x9xxBGP58ngYDZIyeZr1ZpInPNRvqypWo7DlZOJHWJ3i6ddu3buZk6R51+OPvro0qCTuWgC4vv63T8pDQS0lWFN5aCG6rjqh1pk7urp+NsqmF2if9fogvBBdrn8XrUCBKA8fVXpihR8znKiNbS4O6Buws1qpWzU/8co+KyJWleVpcGECROKFdB+re7APrnmQByAdBw36Co/RuUmugWhLAgVabsb1HKpr/lCD0UdW9xrCiDnK580XPOTEuV80mUqD9NMrZ/hbjWFFnVVbThZLbWFynVN0byot0Lrpl/X/KglCmw3yuczTYvYV127Yfo3cjM7KIgP0bpTtAIBKFKp6l6M7yxX3X5365KV7+ioYe9ij6iEFne71OJ5VJVmlFo4N4aCj7oLB6vlM1gV5DoFn565Bp/0fpVzcQ7oErVocp9oU7axA5i6PkUKIL9XS2hg6FyiXlfLYrDn+Sh5nFfw0Xk3UfdnqLYPdr08d0izp/+unNmfdIvKjbkEn/Sxqlu6XNvdrBbTH9U6Ghc3D0nd3pTsT5HDgVHnymtVJ0AAysNWwecoBYrBmp8TubUTpWpRpIqLi6/XzN+NkSuVvaicRT8lsn+vllT3pMHHRbj7p1zHaAWDBnH7Cb3nFoCCiUfHblIi+B9D62W+rn359orRyvsUxLVe4srS/vbStiMdBKMWG+oWErd+7tAM5nei1snltTPOOGOVXK9R921qKMFvQ73nXFCXXMpkncoTIAAltFSLoYl+9o4bcleCeXOPHj0mqvvwnr7YwTHlu+66q5fmzAzUhML2cXkkJ2CdSwotmtPim1gHq6I1Cq0T97qDgHIgvkl2jFokp8Stq2A5UMHjDnUX2yRNOGeWq/lInpsU3JW7rzqnqeq+LguulOMbZ5111gY9beAqtYoit3DOzZ+nHVmqV4AAlNDbORq1GtqFEpseAtYo13pduS8IFa3uVtuHH374JJUxWj/HxwUfdx10Z/eKgw8+eHboCu7hdS13qmvYPLTP8l73bSOqgIUKLmMVXE6OWl9D+H31/p2a69PGM73zXRTo9lDCt9ijVKFFXa+ZapFcoacCVDgvI7cdypOt8I2poSF6f566YHRXIGJeUOhDqYLXCUAJUTXnJ6UuWHB41yM2ChaxpSrX8BsFoQlqQcR2u9LB59hjj71fFX+Ey45a3HXzkLJnYVdkcSBTUrm9clv36T6s7pll6ZiPU/kPqZvmAFyR3fi2iPaa+3N3KPA6f6ZW5pW9evVaXKEdZWysXNwODdkvlWFki9TD9coxXadj6l1Z+6Sc8gUIQOUb7bSGK7pHvkL5Gl1FNyrhPDtU7Lhx4454+eWXB6q10ipUhrfVlXqZktezunfv/lcNQV/pyYt+cFlo8exeT66r6OKWjYJPSyVmp2iE7Th1T2op8Jyo452meU+NKxp8fHwO4HHHqlaPcz+JT0VzivbWz4nTp0//VfbG6s5tlN+fGjduHJl08mfhc6uM88veN7+HBQhAYZvId5z38NUyaq6Ou0jK1yxTrmGXPIpuhDxg8uTJh+rq/4DvlI8LPppo5weUTRsyZEgvBZ/rfSC+3cIVM2rxsfi4dFNq1Ns7veYuiFsYoe6cV3ZyXS2hlhrKflrB6BjNeZqllk/pIzFCi8tzuaEuTuZ2HhKPyx9pdKzcW0uyj+PJJ5/cU0HtNwpus+Tw33qUxyGZ6+hz2SzTuzURNPIkbOjgG0qKZ++P3ytHgACU0NGBIyr4pIsJDfeqMo/Sl/slVY4Ocds7+Chhuvb0009fkXlong8Tl4h2dyY0KpdZjpO7Kn+1gtnK8oKQninURBX6xWeffba0coYWl6OWxQq1Mtbq39BqP77uAB7qfnkll+FZz7kuenRHI9kOVUvt3zUy53veuqk7+ZiC0gHZZYQ+H6/nzyXus8kui98rLkAAqrhhuSXceuutrZ966qmTnXyN+4LrKr1eweFLTbq7TXN7rs0s2BU2btu4YJJZTllLZYyGuK9RF29F3HZu8bzyyiuxrQJvr67NcpV1sf4dn0sLqDwwB/m4AJW5vbpbTXScFytvdZtHsrw4WKr72ElBaG52ECrPMM6jvOPm/eQCBKCEZq5gcZVMX/6a6mKVXr7V2ml6zz33NNWXeoG6B7E5Hw+1a+RnhuYO9dUExlHZh+XcRNloV/Zbpb+7++PWU65Lv379Jqhbd7lyLX58aa6b7bKeWlK+r+2Cs88+O+eHnflY/RNa3EXLpTup4FhPLZ/fKv91W3ZOya1BJc5bKZDN0a0epZ+HWl6141pyoePh9aoTIAAltHXXwBU9qtKWNeHb6Eu/xMWqEqzW1Xy1gkfTuN24Mup+rJQmLb6pyhx5q4Fn62ZXsnSZPpak3RZve9pppz2ofNWl+SR8vb1GstwtPOe88857Ku78st9zjkfnGWnodX2eSnpnb7bL7xoMGK6Wz2gntaMWt6TUEmqj95Y4+Kil1FNBPDLy2VD5oVJHluoTiPwwqm/3u9+e/MgH/0UGX2GjEsm+cvvRHF4eeeSR0glucYuDT+fOnVOaFzNM3ZixoXV920fU/ry+K48n2cXliELlnnnmmZP0BMLVqnxTfF5xXZTMMvz8IeWlep577rklobJDrzvgucUXWnJp/Xhb58UcNHz+oeP25zR37txmClZbfAd9aOa2W7XOj8XliELHy+v5C9ACSmjnyWy6mz3Y3XHeRLdXNB07duwqjR4FK4Z360ro5/no5zr9f1zoUJRUPe6www77v9AolCugA6PyRqEiYl9XC+1JXfn7qwsYu176TQcQBbseaqkEpxvEFaTjXKDu02GhbpjzP0povzhz5sxD48rRed+sJw1c51s2olqk6W1dnpPTU6ZMCeazHHg0x+scBda/xe2T9ypXgACU0FNP7VukL+ubvvpGLb4S6xaDGsoDRY+Zl23kynfMMcd41vSlqpC3a7Zz5PCwV3/sscdqa1g82Ddwt1C3ULRVYFgadUzlvaZbFbYqHzRN59TfD/qKW9x9Uhe0hyb0zbnssst+eEJ+3AYR7ylYbNe+1npqQWhRMGgiy39Slyn4sDDNkdqkgHG7gq8NY4OQP5dQ68fH4M9Tjut0bNE3+IUOlNcrJEAASsinyrpdV+dtrqhxV924Yh183B1QS+pf1PK4T+UEg4+GmE9WxZgclzx1F06BYY3K+eEPjsXtPPDeiSeeuE2V8FnlZvq6NRV1bg4YCr7Hq4hX7BAoKvhyZjfpyCOPLDUILR6qV8vvqscff/yg0Dp+3YFb3bD79HlcEzruuO39ns/VXcryZrCXVw7vJxcgACU3c6JyqrotI50zSLq42+WEs3I+V2oE6aHsP6eTWZ5aW6co8NylrlywWeKug0aCeqjM6AfeJDjAAQMGbFJlnOkglN2dcwVVq6eHciXzLrroorxaCZlBTd2mL9VK7Bs330eJ92bqPk3yX7KIOw3dsLpODuPbaca4pjFEBs+47W2oY7lS5/eT/xXZuOP8Ob5HAMrjU9XVdpW+9EuTftk9eqZuw6e6ag/WrRXjdcUOTl128PFd52oFxN4pr+Nw92GBKnfiFknUqatls9EtIQXZvr79w0HDCW4F2x76mZNv8Mnel1qBW9Sieq9bt27BgOGkuwwKlIAfrxtgb9Ns8o7Z5aR/10PIVilIjler8p8ViIJlRm2vaQ9+auUidYeDn0fUdrxWcQECUJ6GqpTTVIlGOCeSy+JRFj8jSMFrhCreExrCjvyya9j4/GnTps187bXXbtENmR7SDxbvYXDtv6dWCD+WMbh1+A1NB9iiVsHzap30V0vle3Vxeqryv5xPtyu8l5S7oMu0n/4hQ3fZHIQ0gbO9HrN6nhLX/+PHl4TKdADRMf9drcxhoRxd9rbuDmuEbJiOIa+EenZ5/J5MgGH4ZF4/rq1Zv1/ffffd7zhXkcviyuQbWdVdukiV6ky1bEarcs/ztupqDNUQ+Cl6RGlK9zAVaui40PckhYaWvU167pBG0BIPg+dyvO6OaTRvurp/gzQ5skr2oRbgJj2JcbZbQX4udHawTXfZHIQ04tZCifgWOu8/3Hvvvec6f6QW2mSVUfooWbWSemn6w+Vax3OImodGDLPP3ftUovsMbfey3vth/kT2SvxeZQIEoDxo1RrYf9asWQM9bBuXHM4s2sHEd6wr19DLj83QdvuNGjWqdLbdpEmTuqiFdJArjStbXODx+m5NKYe0TsPm5+Rx+DlvoltCHF0TTTLMufCyFQ8//PB1ixcvPkeB9AEFo+C528RBWUGpiwJGF8+1klWhDM9yURMnTmyj1tThNnRQKc8wfZxln8vxCmz/oWH6yzU5s/SiwFI9AgSgPJzVPSrS7NvL9WUvyPWL7t14XbeYylpNPz5vJ9cg5jIcfHTlX6Gu3OXKXeT91yzyOO0q2UQBZaumEDyivE0dBeg7FYwahiZcpg0dYMpaS4V6zT+ZromP02Xp8+yuADZa946N1G0qLyUuhA3yEiAHlAebci8tNFJUkMemFdrEI2jqcqxs27bt70444YQK/z2vCh1MJW6saQ1blL+ZpGHwq5Wg3xA3S7oSd7tTUZ4xrUDUWwGx2j/Xqjqn3aFcAlAen5JaH/OUAxqmZvu9cTemRhWdpMWUub2HipXE/kJdr2s04jMhquzd/TU/fE3neJW6fivzua2kvPP3Z5U5FSBzfe+v7POkC1YeZCW+TxcsD0zNkSn9I3jKGZyqnM6FzumkE6gOFJ6k6Kcm+p6m7CR1qAKEDsPJZs1PWaxyJypfskxdlZ9l8Emfv87xr8rv1FNSvpnO+WLle1rm8pyjkJ9fd4tK0wq2KMj4Tzn30R8BqJN5IfCjbjUna7L+vbVPnz4VfgZ13LHw3s4CBKAKfCM0B2ehKstEVZQhyl2UXl01K3m1ruJjHJQ0WfEG3+CppLWfg5xzYtRXagcyPwFRLa2F+v1mPaBskm59yOloPd/I20dVXL+e5LEdOe2wbKX0fl3hs1t6fi/0TOvsfWiKQ+lNuXqG0jK5DdcNve18h3w6SZ+9ftTv/iy8TxsqZ7ZRxzRKf6lkukYa5+o4rtfnUt+5Jt/MqiH4iZrjdPOgQYMIPlGYVfgaAagCuPqDdx9oCP0m5TBW+8ZTVzzdrLpSrZTS5/koOOn73yylSXQpv6+r8DmqRC3Sd9KnK6krSzro+HEQKme+Wj4l/pPOGulaoJzPpCSHqYr3gK72s7KDnvfjroaC0Nwk5eW6rvZb4vJd8bMTyQ4+ev3jXMvyepqPdJeG12srmBf4T/ioNXSYyu2q0bA9nbjPHjG0v/etn6+07pMKZN977pUmjG7QnKM/l+37dU0v8H11v9Vzh/ZQ8LHVTQMHDuRv8iT5cCpp3fyfRFVJB/BLKkZX3xs9uVDzgWrrxsga7rY5KJR1EXaoa7ddlWW7Ks4MTaj72SSZK+szVsDordZQsf6G2X4KSjXVxa2R7uLaUJMPtytgb9P8qk/0FzD+SwMFwaf06w8r3q6ymutiMEL3weV1E29lndcvuRwC0E/w6ev2grrqUtR0q8iLH++hK/F2tZy2KiBVyi0VP8FpVdsuS0pKainA1Mo0dCCX3zaPqOVyIGp9uvVfQ/OIto4cOTLvm3hz2RfrIIAAAggggAACCCCAAAIIIIAAAggggAACCCCAAAIIIIAAAggggAACCCCAAAIIIIAAAggggAACCCCAAAIIIIAAAggggAACCCCAAAIIIIAAAggggAACCCCAAAIIIIAAAggggAACCCCAAAIIIIAAAggggAACCCCAAAIIIIAAAggggAACCCCAAAIIIIAAAggggAACCCCAAAIIIIAAAggggAACCCCAAAIIIIAAAggggAACCCCAAAIIIIAAAggggAACCCCAAAIIIIAAAggggAACCCCAAAIIIIAAAggggAACCCCAAAIIIIAAAggggAACCCCAAAIIIIAAAggggAACCCCAAAIIIIAAAggggAACCCCAAAIIIIAAAggggAACCCCAAAIIIIAAAggggAACCCCAAAIIIIAAAggggAACCCCAAAIIIIAAAggggAACCCCAAAIIIIAAAggggAACCCCAAAIIIIAAAggggAACCCCAAAIIIIAAAggggAACCCCAAAIIIIAAAggggAACCCCAAAIIIIAAAggggAACCCCAAAIIIIAAAggggAACCCCAAAIIIIAAAggggAACCCCAAAIIIIAAAggggAACCCCAAAIIIIAAAggggAACCCCAAAIIIIAAAggggAACCCCAAAIIIIAAAggggAACCCCAAAIIIIAAAggggAACCCCAAAIIIIAAAggggAACCCCAAAIIIIAAAggggAACCCCAAAIIIIAAAggggAACCCCAAAIIIIAAAggggAACCCCAAAIIIIAAAghUm8D/A7zc+V2OawRHAAAAAElFTkSuQmCC;" parent="1" vertex="1">
          <mxGeometry x="-550" y="-747.76" width="74.48" height="60" as="geometry" />
        </mxCell>
        <mxCell id="fVgRkVASK4dvTecgE4iH-121" value="" style="shape=image;verticalLabelPosition=bottom;labelBackgroundColor=default;verticalAlign=top;aspect=fixed;imageAspect=0;image=data:image/png,iVBORw0KGgoAAAANSUhEUgAAASAAAADoCAYAAABPTzntAAAABHNCSVQICAgIfAhkiAAAGwhJREFUeF7t3QmQFFWex/HivgUVFJVTW2lAnEZRvFBgtZcARFccUXQUcd1QZ1W8JjAGGR2cwVHXhV1XRl05XB1RZxVxVcADWhERD1Q88OTwQkQu5b7292u7jKLIl11ZfRjoNyM6oKsyX2Z+qt4/3/u/l9mpFAsCCCCAAAIIIIAAAggggAACCCCAAAIIIIAAAggggAACCCCAAAIIIIAAAggggAACCCCAAAIIIIAAAggggAACCCCAAAIIIIAAAggggAACCCCAAAIIIIAAAggggAACCCCAAAIIIIAAAggggAACCCCAAAIIIIAAAggggAACCCCAAAIIIIAAAggggAACCCCAAAIIIIAAAggggAACCCCAAAIIIIAAAggggAACCCCAAAIIIIAAAggggAACCCCAAAIIIIAAAggggAACCCCAAAIIIIAAAggggAACCCCAAAIIIIAAAggggAACCCCAAAIIIIAAAggggAACCCCAAAIIIIAAAggggAACCCCAAAIIIIAAAggggAACCCCAAAIIIIAAAggggAACCCCAAAIIIIAAAggggAACCCCAAAIIIIAAAggggAACCCCAAAIIIIAAAggggAACCCCAAAIIIIAAAggggAACCCCAAAIIIIAAAggggAACCCCAAAIIIIAAAggggAACCCCAAAIIIIAAAggggAACCCCAAAIIIIAAAggggAACCCCAAAIIIIAAAggggAACCCCAAAIIIIAAAggggAACCCCAAAIIIIAAAggggAACCCCAAAIIIIAAAggggAACCCCAAAIIIIAAAggggAACCCCAAAIIIIAAAggggMBuLVBjtz763fTgd+zYUe/999+vtXLlytIz2GuvvVKHHHLI5tq1a2/dTU+p2g/7gw8+qLN9+/Y6mYZNmjTZ1qpVq03VfjDsMG8BAlDedMk3fPvttx/+7LPPCj///PMa69atS6kClRZSq1atlCrPDlWeVIcOHVJ77rnn/c2aNbsl+R5+2GLRokUP16hRo1A/V7Rt23ZmvuVU1nY65wE615u2bt366kEHHXRhvuWuWbOm+Jtvvrng008/7awyU2vXrq2xbdu2lAJ6qWGjRo127L///qkDDzzw7fbt21/VsGHD5fnui+2qR4AAVIXOqiAPfPTRRx3eeeedWl988YUrSoF+GrjCeEn/q0BR+rv/VSsoVa9evRX77LPPV506dUq1bNly5n777XeVKnCTN954o/i9994boYqYOvXUU79r06bNCVGHP2/evNe0XpGCzxL9XKgKOStqvep4bdmyZafI4D8XL17cSudRctJJJ/1Dkv0q4Nzz1VdfdXv33XdT+rfpxo0bW8gi1lCO6/WzVHZbunTpklLQ+06tzEirJMfCupUvQACqfNNUSUlJYwWSFxcuXHjIihUrGmzevLlGOtjkuruaNWum6tat6+7ZmtatW09v2rTp0yrvjwpkrd1y2nfffbf17t17QUFBQdfsMl966aX5c+bMKfI+O3bsuEjbX1FUVPRE9npV/btaYoM//vjj0W+99VYbH/Ohhx46q2/fvr1y3e8zzzwzWa3FfgpCjWX4Y4sx1+0d0G3YvHnzbQrEcxT8CEK54lXTerWraT+/iN0oH7Hvd999N/npp5+urVZKkStN0sCThnKF1dU+pRZEU1XAvqpMh6u70dpdDi/Lly+v9fzzzxfp35nqfvTfe++912Uie/tNmzallGtqr2O4RS2iumpR/W91fRBLly49X/seodZfm/Xr15cGglyXb7/99sFHH320pVp83bZs2dLY55LPYnsbfPnll7VkeMwdd9wxUy3HlLpmu3jlUz7bVFygZsWLoAQL6EveTsHiPgWFnqpAx/uLn2/wyRR15XMlVDArSAcfv+/Xv/7665SCXU919R5SS6th1CfhIPbhhx8WKm/yB/30j1qnsl9Tq2WQAt5wdZsKHHySLAsWLLh/6tSpAxQwesow7+CTuU9/DvKrvXr16p4zZszoqbIfUg6pRZLjYt2qESAAVYKrrvSd1d0Y/8ILLxSr8qUyA0UlFB8swhVLLY3U/Pnz+ynvUye0ooOAjrGL1vvzq6++Oii0XmW8rmA3VPu5QS2fwu+//z5REHbwUffxTHUzGyphXRmHs1MZDtq6UKSee+65fp988sn9MmtX6TuhwEQCBKBEXLuuvGTJkg6rVq26TXmOXrqyJqpwu5aW/BXnilq0aOGcUOzGGzZsSKkF1EWBcriO9dTYlfN8U8HnbLV8rnaLK0nLR8GqgYbVJyj4/FqGHl7P8wjK38xB20P32mexWkVjFZhbl78Va1SVAAGoArL6MjdSU/5IVbg+6naVG3ycFFX+IXXAAQd4yPhe/T7MPwoeJRqxSdWvX790JCzXxcGna9euKSWZr1OSeUN52zkIqcVU5CCkkanTyls/yfsaoTpb5V6rINcpSfBRa7G+Euz/ptbIEAWfuuV1W+2jUUKPDjq5PC1tuMcee/zN0xjsa5e4xfvQRSMlgwFqaQ2RS3z0jiuM9yokQBK6AnzqcnVW3ueisiH2YEkeWlcFcYCZ0aBBgxIlg9dp3s8TGsH61BupjPmqvF31b5F++ugK3TKXbpzLPOqoo4YpAT1OFXFz8AAy3nBw0MjU0Sp/5JtvvtlAgevBXLaLW0fHPlRznK5Wa6KT5zeVF0Qyy5o9e3Y95XouUUsydjvP8/H56jwfq1OnTolG1FIKOHM1FeEVl6euVUcl5OfpnBxcCpT0/ldPVwh15XyM/tw05+pCeU9XEV/HnSPvVY0AAShPV33Zf6WcxZX6Ep8QFyzcqiksLPRVe4zmo0xVJZqrOT47tVZ0NX9Bh/GCEqSX6urdN9cK7ASzKl4zBZXcm03akYOQA566Or97/fXX1x9xxBGP58ngYDZIyeZr1ZpInPNRvqypWo7DlZOJHWJ3i6ddu3buZk6R51+OPvro0qCTuWgC4vv63T8pDQS0lWFN5aCG6rjqh1pk7urp+NsqmF2if9fogvBBdrn8XrUCBKA8fVXpihR8znKiNbS4O6Buws1qpWzU/8co+KyJWleVpcGECROKFdB+re7APrnmQByAdBw36Co/RuUmugWhLAgVabsb1HKpr/lCD0UdW9xrCiDnK580XPOTEuV80mUqD9NMrZ/hbjWFFnVVbThZLbWFynVN0byot0Lrpl/X/KglCmw3yuczTYvYV127Yfo3cjM7KIgP0bpTtAIBKFKp6l6M7yxX3X5365KV7+ioYe9ij6iEFne71OJ5VJVmlFo4N4aCj7oLB6vlM1gV5DoFn565Bp/0fpVzcQ7oErVocp9oU7axA5i6PkUKIL9XS2hg6FyiXlfLYrDn+Sh5nFfw0Xk3UfdnqLYPdr08d0izp/+unNmfdIvKjbkEn/Sxqlu6XNvdrBbTH9U6Ghc3D0nd3pTsT5HDgVHnymtVJ0AAysNWwecoBYrBmp8TubUTpWpRpIqLi6/XzN+NkSuVvaicRT8lsn+vllT3pMHHRbj7p1zHaAWDBnH7Cb3nFoCCiUfHblIi+B9D62W+rn359orRyvsUxLVe4srS/vbStiMdBKMWG+oWErd+7tAM5nei1snltTPOOGOVXK9R921qKMFvQ73nXFCXXMpkncoTIAAltFSLoYl+9o4bcleCeXOPHj0mqvvwnr7YwTHlu+66q5fmzAzUhML2cXkkJ2CdSwotmtPim1gHq6I1Cq0T97qDgHIgvkl2jFokp8Stq2A5UMHjDnUX2yRNOGeWq/lInpsU3JW7rzqnqeq+LguulOMbZ5111gY9beAqtYoit3DOzZ+nHVmqV4AAlNDbORq1GtqFEpseAtYo13pduS8IFa3uVtuHH374JJUxWj/HxwUfdx10Z/eKgw8+eHboCu7hdS13qmvYPLTP8l73bSOqgIUKLmMVXE6OWl9D+H31/p2a69PGM73zXRTo9lDCt9ijVKFFXa+ZapFcoacCVDgvI7cdypOt8I2poSF6f566YHRXIGJeUOhDqYLXCUAJUTXnJ6UuWHB41yM2ChaxpSrX8BsFoQlqQcR2u9LB59hjj71fFX+Ey45a3HXzkLJnYVdkcSBTUrm9clv36T6s7pll6ZiPU/kPqZvmAFyR3fi2iPaa+3N3KPA6f6ZW5pW9evVaXKEdZWysXNwODdkvlWFki9TD9coxXadj6l1Z+6Sc8gUIQOUb7bSGK7pHvkL5Gl1FNyrhPDtU7Lhx4454+eWXB6q10ipUhrfVlXqZktezunfv/lcNQV/pyYt+cFlo8exeT66r6OKWjYJPSyVmp2iE7Th1T2op8Jyo452meU+NKxp8fHwO4HHHqlaPcz+JT0VzivbWz4nTp0//VfbG6s5tlN+fGjduHJl08mfhc6uM88veN7+HBQhAYZvId5z38NUyaq6Ou0jK1yxTrmGXPIpuhDxg8uTJh+rq/4DvlI8LPppo5weUTRsyZEgvBZ/rfSC+3cIVM2rxsfi4dFNq1Ns7veYuiFsYoe6cV3ZyXS2hlhrKflrB6BjNeZqllk/pIzFCi8tzuaEuTuZ2HhKPyx9pdKzcW0uyj+PJJ5/cU0HtNwpus+Tw33qUxyGZ6+hz2SzTuzURNPIkbOjgG0qKZ++P3ytHgACU0NGBIyr4pIsJDfeqMo/Sl/slVY4Ocds7+Chhuvb0009fkXlong8Tl4h2dyY0KpdZjpO7Kn+1gtnK8oKQninURBX6xWeffba0coYWl6OWxQq1Mtbq39BqP77uAB7qfnkll+FZz7kuenRHI9kOVUvt3zUy53veuqk7+ZiC0gHZZYQ+H6/nzyXus8kui98rLkAAqrhhuSXceuutrZ966qmTnXyN+4LrKr1eweFLTbq7TXN7rs0s2BU2btu4YJJZTllLZYyGuK9RF29F3HZu8bzyyiuxrQJvr67NcpV1sf4dn0sLqDwwB/m4AJW5vbpbTXScFytvdZtHsrw4WKr72ElBaG52ECrPMM6jvOPm/eQCBKCEZq5gcZVMX/6a6mKVXr7V2ml6zz33NNWXeoG6B7E5Hw+1a+RnhuYO9dUExlHZh+XcRNloV/Zbpb+7++PWU65Lv379Jqhbd7lyLX58aa6b7bKeWlK+r+2Cs88+O+eHnflY/RNa3EXLpTup4FhPLZ/fKv91W3ZOya1BJc5bKZDN0a0epZ+HWl6141pyoePh9aoTIAAltHXXwBU9qtKWNeHb6Eu/xMWqEqzW1Xy1gkfTuN24Mup+rJQmLb6pyhx5q4Fn62ZXsnSZPpak3RZve9pppz2ofNWl+SR8vb1GstwtPOe88857Ku78st9zjkfnGWnodX2eSnpnb7bL7xoMGK6Wz2gntaMWt6TUEmqj95Y4+Kil1FNBPDLy2VD5oVJHluoTiPwwqm/3u9+e/MgH/0UGX2GjEsm+cvvRHF4eeeSR0glucYuDT+fOnVOaFzNM3ZixoXV920fU/ry+K48n2cXliELlnnnmmZP0BMLVqnxTfF5xXZTMMvz8IeWlep577rklobJDrzvgucUXWnJp/Xhb58UcNHz+oeP25zR37txmClZbfAd9aOa2W7XOj8XliELHy+v5C9ACSmjnyWy6mz3Y3XHeRLdXNB07duwqjR4FK4Z360ro5/no5zr9f1zoUJRUPe6www77v9AolCugA6PyRqEiYl9XC+1JXfn7qwsYu176TQcQBbseaqkEpxvEFaTjXKDu02GhbpjzP0povzhz5sxD48rRed+sJw1c51s2olqk6W1dnpPTU6ZMCeazHHg0x+scBda/xe2T9ypXgACU0FNP7VukL+ubvvpGLb4S6xaDGsoDRY+Zl23kynfMMcd41vSlqpC3a7Zz5PCwV3/sscdqa1g82Ddwt1C3ULRVYFgadUzlvaZbFbYqHzRN59TfD/qKW9x9Uhe0hyb0zbnssst+eEJ+3AYR7ylYbNe+1npqQWhRMGgiy39Slyn4sDDNkdqkgHG7gq8NY4OQP5dQ68fH4M9Tjut0bNE3+IUOlNcrJEAASsinyrpdV+dtrqhxV924Yh183B1QS+pf1PK4T+UEg4+GmE9WxZgclzx1F06BYY3K+eEPjsXtPPDeiSeeuE2V8FnlZvq6NRV1bg4YCr7Hq4hX7BAoKvhyZjfpyCOPLDUILR6qV8vvqscff/yg0Dp+3YFb3bD79HlcEzruuO39ns/VXcryZrCXVw7vJxcgACU3c6JyqrotI50zSLq42+WEs3I+V2oE6aHsP6eTWZ5aW6co8NylrlywWeKug0aCeqjM6AfeJDjAAQMGbFJlnOkglN2dcwVVq6eHciXzLrroorxaCZlBTd2mL9VK7Bs330eJ92bqPk3yX7KIOw3dsLpODuPbaca4pjFEBs+47W2oY7lS5/eT/xXZuOP8Ob5HAMrjU9XVdpW+9EuTftk9eqZuw6e6ag/WrRXjdcUOTl128PFd52oFxN4pr+Nw92GBKnfiFknUqatls9EtIQXZvr79w0HDCW4F2x76mZNv8Mnel1qBW9Sieq9bt27BgOGkuwwKlIAfrxtgb9Ns8o7Z5aR/10PIVilIjler8p8ViIJlRm2vaQ9+auUidYeDn0fUdrxWcQECUJ6GqpTTVIlGOCeSy+JRFj8jSMFrhCreExrCjvyya9j4/GnTps187bXXbtENmR7SDxbvYXDtv6dWCD+WMbh1+A1NB9iiVsHzap30V0vle3Vxeqryv5xPtyu8l5S7oMu0n/4hQ3fZHIQ0gbO9HrN6nhLX/+PHl4TKdADRMf9drcxhoRxd9rbuDmuEbJiOIa+EenZ5/J5MgGH4ZF4/rq1Zv1/ffffd7zhXkcviyuQbWdVdukiV6ky1bEarcs/ztupqDNUQ+Cl6RGlK9zAVaui40PckhYaWvU167pBG0BIPg+dyvO6OaTRvurp/gzQ5skr2oRbgJj2JcbZbQX4udHawTXfZHIQ04tZCifgWOu8/3Hvvvec6f6QW2mSVUfooWbWSemn6w+Vax3OImodGDLPP3ftUovsMbfey3vth/kT2SvxeZQIEoDxo1RrYf9asWQM9bBuXHM4s2sHEd6wr19DLj83QdvuNGjWqdLbdpEmTuqiFdJArjStbXODx+m5NKYe0TsPm5+Rx+DlvoltCHF0TTTLMufCyFQ8//PB1ixcvPkeB9AEFo+C528RBWUGpiwJGF8+1klWhDM9yURMnTmyj1tThNnRQKc8wfZxln8vxCmz/oWH6yzU5s/SiwFI9AgSgPJzVPSrS7NvL9WUvyPWL7t14XbeYylpNPz5vJ9cg5jIcfHTlX6Gu3OXKXeT91yzyOO0q2UQBZaumEDyivE0dBeg7FYwahiZcpg0dYMpaS4V6zT+ZromP02Xp8+yuADZa946N1G0qLyUuhA3yEiAHlAebci8tNFJUkMemFdrEI2jqcqxs27bt70444YQK/z2vCh1MJW6saQ1blL+ZpGHwq5Wg3xA3S7oSd7tTUZ4xrUDUWwGx2j/Xqjqn3aFcAlAen5JaH/OUAxqmZvu9cTemRhWdpMWUub2HipXE/kJdr2s04jMhquzd/TU/fE3neJW6fivzua2kvPP3Z5U5FSBzfe+v7POkC1YeZCW+TxcsD0zNkSn9I3jKGZyqnM6FzumkE6gOFJ6k6Kcm+p6m7CR1qAKEDsPJZs1PWaxyJypfskxdlZ9l8Emfv87xr8rv1FNSvpnO+WLle1rm8pyjkJ9fd4tK0wq2KMj4Tzn30R8BqJN5IfCjbjUna7L+vbVPnz4VfgZ13LHw3s4CBKAKfCM0B2ehKstEVZQhyl2UXl01K3m1ruJjHJQ0WfEG3+CppLWfg5xzYtRXagcyPwFRLa2F+v1mPaBskm59yOloPd/I20dVXL+e5LEdOe2wbKX0fl3hs1t6fi/0TOvsfWiKQ+lNuXqG0jK5DdcNve18h3w6SZ+9ftTv/iy8TxsqZ7ZRxzRKf6lkukYa5+o4rtfnUt+5Jt/MqiH4iZrjdPOgQYMIPlGYVfgaAagCuPqDdx9oCP0m5TBW+8ZTVzzdrLpSrZTS5/koOOn73yylSXQpv6+r8DmqRC3Sd9KnK6krSzro+HEQKme+Wj4l/pPOGulaoJzPpCSHqYr3gK72s7KDnvfjroaC0Nwk5eW6rvZb4vJd8bMTyQ4+ev3jXMvyepqPdJeG12srmBf4T/ioNXSYyu2q0bA9nbjPHjG0v/etn6+07pMKZN977pUmjG7QnKM/l+37dU0v8H11v9Vzh/ZQ8LHVTQMHDuRv8iT5cCpp3fyfRFVJB/BLKkZX3xs9uVDzgWrrxsga7rY5KJR1EXaoa7ddlWW7Ks4MTaj72SSZK+szVsDordZQsf6G2X4KSjXVxa2R7uLaUJMPtytgb9P8qk/0FzD+SwMFwaf06w8r3q6ymutiMEL3weV1E29lndcvuRwC0E/w6ev2grrqUtR0q8iLH++hK/F2tZy2KiBVyi0VP8FpVdsuS0pKainA1Mo0dCCX3zaPqOVyIGp9uvVfQ/OIto4cOTLvm3hz2RfrIIAAAggggAACCCCAAAIIIIAAAggggAACCCCAAAIIIIAAAggggAACCCCAAAIIIIAAAggggAACCCCAAAIIIIAAAggggAACCCCAAAIIIIAAAggggAACCCCAAAIIIIAAAggggAACCCCAAAIIIIAAAggggAACCCCAAAIIIIAAAggggAACCCCAAAIIIIAAAggggAACCCCAAAIIIIAAAggggAACCCCAAAIIIIAAAggggAACCCCAAAIIIIAAAggggAACCCCAAAIIIIAAAggggAACCCCAAAIIIIAAAggggAACCCCAAAIIIIAAAggggAACCCCAAAIIIIAAAggggAACCCCAAAIIIIAAAggggAACCCCAAAIIIIAAAggggAACCCCAAAIIIIAAAggggAACCCCAAAIIIIAAAggggAACCCCAAAIIIIAAAggggAACCCCAAAIIIIAAAggggAACCCCAAAIIIIAAAggggAACCCCAAAIIIIAAAggggAACCCCAAAIIIIAAAggggAACCCCAAAIIIIAAAggggAACCCCAAAIIIIAAAggggAACCCCAAAIIIIAAAggggAACCCCAAAIIIIAAAggggAACCCCAAAIIIIAAAggggAACCCCAAAIIIIAAAggggAACCCCAAAIIIIAAAggggAACCCCAAAIIIIAAAggggAACCCCAAAIIIIAAAggggAACCCCAAAIIIIAAAggggAACCCCAAAIIIIAAAggggAACCCCAAAIIIIAAAggggAACCCCAAAIIIIAAAghUm8D/A7zc+V2OawRHAAAAAElFTkSuQmCC;" parent="1" vertex="1">
          <mxGeometry x="-550" y="-730.76" width="74.48" height="60" as="geometry" />
        </mxCell>
        <mxCell id="fVgRkVASK4dvTecgE4iH-124" value="" style="curved=1;endArrow=classic;html=1;rounded=0;dashed=1;strokeColor=#FFFFFF;" parent="1" edge="1">
          <mxGeometry width="50" height="50" relative="1" as="geometry">
            <mxPoint x="-578" y="-668" as="sourcePoint" />
            <mxPoint x="-539" y="-668" as="targetPoint" />
            <Array as="points" />
          </mxGeometry>
        </mxCell>
        <mxCell id="fVgRkVASK4dvTecgE4iH-125" value="4" style="text;html=1;align=center;verticalAlign=middle;whiteSpace=wrap;rounded=0;fontColor=#FFFFFF;" parent="1" vertex="1">
          <mxGeometry x="-616.5" y="-681.76" width="60" height="30" as="geometry" />
        </mxCell>
        <mxCell id="q-R3dWNQLta7oaJh802B-1" value="4" style="text;html=1;align=center;verticalAlign=middle;whiteSpace=wrap;rounded=0;fontColor=#FFFFFF;" vertex="1" parent="1">
          <mxGeometry x="-323.5" y="-670.76" width="60" height="30" as="geometry" />
        </mxCell>
        <mxCell id="q-R3dWNQLta7oaJh802B-2" value="" style="curved=1;endArrow=classic;html=1;rounded=0;dashed=1;strokeColor=#FFFFFF;sourcePerimeterSpacing=0;endSize=6;exitX=1;exitY=0.5;exitDx=0;exitDy=0;" edge="1" parent="1">
          <mxGeometry width="50" height="50" relative="1" as="geometry">
            <mxPoint x="-341.5" y="-705.76" as="sourcePoint" />
            <mxPoint x="-302.5" y="-658" as="targetPoint" />
            <Array as="points" />
          </mxGeometry>
        </mxCell>
      </root>
    </mxGraphModel>
  </diagram>
</mxfile>
